<svg id="コンポーネント_14_1" data-name="コンポーネント 14 – 1" xmlns="http://www.w3.org/2000/svg" width="178.357" height="26" viewBox="0 0 178.357 26">
  <path id="パス_288" data-name="パス 288" d="M9.624-6.888a38.854,38.854,0,0,0,4.1-.024c.12,0,.192-.048.216-.264.024-.288.048-.792.048-1.056,0-.144-.072-.192-.288-.168a29.868,29.868,0,0,1-3.888.048c.216-1.464.432-2.928.624-4.1a34.3,34.3,0,0,0,3.5-.024c.144,0,.24-.048.24-.24.024-.336.024-.744.024-1.1,0-.144-.048-.192-.144-.192a22.483,22.483,0,0,1-3.36.048c.144-1.008.264-1.7.432-2.64a2.119,2.119,0,0,1,.432-1.128.56.56,0,0,0,.168-.336c0-.144-.144-.288-.36-.384A8.28,8.28,0,0,0,9.5-19.032a7.272,7.272,0,0,1-.024,2.04c-.1,1.032-.168,1.608-.36,2.9a19.409,19.409,0,0,1-4.608-.936c0,.48.024.984.048,1.344.024.24.048.264.216.312a19.284,19.284,0,0,0,4.08.768C8.712-11.352,8.52-9.96,8.3-8.472a16.753,16.753,0,0,1-4.248-.912A8.38,8.38,0,0,0,4.08-8.04c.024.216.1.288.216.312a23.388,23.388,0,0,0,3.816.744c-.1,1.008-.24,2.112-.24,2.976,0,3.168,1.752,4.8,5.5,4.8,3.48,0,6.216-1.968,6.216-5.208A5.96,5.96,0,0,0,17.592-8.76a.475.475,0,0,0-.408-.072,6.054,6.054,0,0,1-1.488.1c1.8,1.8,2.208,3.024,2.208,4.3,0,2.52-2.208,3.7-4.8,3.7-2.424,0-3.72-.84-3.72-3.288C9.384-4.776,9.528-5.928,9.624-6.888Zm19.728-2.16a9.008,9.008,0,0,0,.864,1.584.614.614,0,0,0,.432.264,1.274,1.274,0,0,0,.456-.216,5.423,5.423,0,0,1,1.128-.6,21.7,21.7,0,0,1,7.08-1.92c2.136,0,3.552,1.056,3.552,3.192a3.983,3.983,0,0,1-2.4,3.84,16.424,16.424,0,0,1-5.5,1.584A3.281,3.281,0,0,1,35.88-.312a.376.376,0,0,0,.48.24A15.694,15.694,0,0,0,41.328-1.68C43.488-2.856,44.5-4.344,44.5-6.648c0-2.832-2.016-4.68-4.992-4.68a23.413,23.413,0,0,0-6.48,1.368A21.678,21.678,0,0,1,29.352-9.048ZM58.32-18.792a8.818,8.818,0,0,1,.528,2.352A42.89,42.89,0,0,0,60.12-10.3c-3.048,1.848-4.68,3.624-4.68,5.928,0,3.288,3,4.2,7.152,4.2A53.407,53.407,0,0,0,68.976-.5c.264-.024.36-.12.336-.336a10.437,10.437,0,0,0-.144-1.248c-.048-.192-.12-.24-.336-.216a46.121,46.121,0,0,1-6.168.5c-3.624.024-5.64-.5-5.64-2.64,0-1.68,1.128-2.928,3.552-4.344,1.632-.936,3.7-1.92,5.448-2.736a9.119,9.119,0,0,1,2.112-.768c.432-.048.48-.384.288-.672A10.185,10.185,0,0,0,67.2-14.3a3.892,3.892,0,0,1-1.392,1.1c-1.416.792-2.856,1.464-4.272,2.16a32.142,32.142,0,0,1-.936-4.848c-.072-.528-.12-1.008-.144-1.536,0-.384.12-.6.12-.84a.347.347,0,0,0-.288-.312A10.937,10.937,0,0,0,58.32-18.792ZM98.376-5.448c0-.168-.024-.168-.192-.168-.144,0-.912.048-3.192.048H92.328v-3.72H93.96c2.112,0,2.784.048,2.9.048.168,0,.192-.024.192-.192v-.984c0-.168-.024-.192-.192-.192-.12,0-.792.048-2.9.048H92.328v-3.312h2.28c2.208,0,2.952.048,3.072.048.168,0,.192-.024.192-.192V-15c0-.168-.024-.192-.192-.192-.12,0-.864.048-3.072.048h-.84c.624-1.08,1.1-2.04,1.536-2.952a2.145,2.145,0,0,1,.384-.624c.12-.12.216-.216.216-.336s-.048-.216-.24-.312a7.837,7.837,0,0,0-1.32-.48,5.847,5.847,0,0,1-.312,1.2,26.508,26.508,0,0,1-1.656,3.5H89.544c-2.232,0-2.952-.048-3.072-.048-.144,0-.168.024-.168.192v.984c0,.168.024.192.168.192.12,0,.84-.048,3.072-.048h1.368v3.312h-1.1c-2.088,0-2.784-.048-2.9-.048-.168,0-.192.024-.192.192v.984c0,.168.024.192.192.192.12,0,.816-.048,2.9-.048h1.1v3.72h-1.8c-2.3,0-3.048-.048-3.168-.048-.168,0-.192,0-.192.168v1.032c0,.168.024.192.192.192.12,0,.864-.048,3.168-.048h1.8v2.136c0,2.448-.048,3.48-.048,3.624,0,.168.024.192.192.192h1.128c.168,0,.192-.024.192-.192,0-.144-.048-1.176-.048-3.624V-4.272h2.664c2.28,0,3.048.048,3.192.048.168,0,.192-.024.192-.192Zm-13.7,1.632c0-1.1.048-1.608.048-1.7,0-.168-.024-.192-.192-.192-.144,0-.6.048-2.136.048H80.4c-1.512,0-1.992-.048-2.112-.048-.168,0-.192.024-.192.192,0,.12.048.624.048,2.088v1.464C78.144.96,78.1,1.44,78.1,1.56c0,.168.024.192.192.192h.984c.168,0,.192-.024.192-.192V.336h3.888v.792c0,.168.024.192.192.192h.984c.168,0,.192-.024.192-.192,0-.12-.048-.576-.048-3.384ZM83.352-.84H79.464V-4.488h3.888ZM85.32-15.264c0-.168-.024-.192-.192-.192-.12,0-.7.048-2.52.048h-2.88c-1.824,0-2.4-.048-2.52-.048-.168,0-.192.024-.192.192v.984c0,.192.024.216.192.216.12,0,.7-.048,2.52-.048h2.88c1.824,0,2.4.048,2.52.048.168,0,.192-.024.192-.216Zm-.5-3.288c0-.168-.024-.192-.192-.192-.144,0-.576.048-2.112.048H80.448c-1.536,0-1.992-.048-2.112-.048-.168,0-.192.024-.192.192v.96c0,.168.024.192.192.192.12,0,.576-.048,2.112-.048h2.064c1.536,0,1.968.048,2.112.048.168,0,.192-.024.192-.192Zm-.336,6.6c0-.168-.024-.192-.216-.192-.12,0-.5.048-1.968.048H80.5c-1.464,0-1.872-.048-1.992-.048-.168,0-.192.024-.192.192v.936c0,.168.024.192.192.192.12,0,.528-.048,1.992-.048h1.8c1.464,0,1.848.048,1.968.048.192,0,.216-.024.216-.192Zm0,3.192c0-.168-.024-.192-.216-.192-.12,0-.5.048-1.968.048H80.5c-1.464,0-1.872-.048-1.992-.048-.168,0-.192.024-.192.192v.936c0,.168.024.192.192.192.12,0,.528-.048,1.992-.048h1.8c1.464,0,1.848.048,1.968.048.192,0,.216-.024.216-.192Zm3.264-10.584c-.288.144-.312.168-.216.312a14.909,14.909,0,0,1,1.56,3c.048.168.1.192.408.048l.648-.288c.264-.144.312-.168.24-.36a16.251,16.251,0,0,0-1.632-2.928c-.12-.168-.168-.144-.384-.048ZM107.5-18.6a13.215,13.215,0,0,1,.192,3.624c-.12,3.384-.336,7.3-.336,10.7,0,3.528,1.464,4.824,4.176,4.824a13.357,13.357,0,0,0,9.144-4.032c.216-.192.288-.312.288-.456a1.221,1.221,0,0,0-.1-.336,5.68,5.68,0,0,1-.408-1.392c-2.472,2.736-5.592,4.584-8.64,4.584-2.088,0-2.832-.816-2.832-3.5,0-3.312.144-6.6.36-10.224a13.677,13.677,0,0,1,.288-2.472,1.832,1.832,0,0,0,.192-.624c0-.168-.12-.288-.384-.36A9.535,9.535,0,0,0,107.5-18.6Zm32.9-.384a5.632,5.632,0,0,1-1.056,1.488c-2.136,2.16-4.752,4.7-6.7,6.768a2.22,2.22,0,0,0-.84,1.56,1.878,1.878,0,0,0,.936,1.512A63.864,63.864,0,0,1,141.792.48c.168.216.264.192.456.048a10.85,10.85,0,0,0,.912-.912c.192-.24.144-.288-.024-.48a77.465,77.465,0,0,0-9.264-7.92c-.216-.144-.312-.264-.312-.432a.905.905,0,0,1,.336-.6c1.8-1.92,4.728-4.632,7.08-6.768a2.881,2.881,0,0,1,.888-.624.356.356,0,0,0,.24-.312.507.507,0,0,0-.168-.312A11.092,11.092,0,0,0,140.4-18.984Z" transform="translate(-4.04 22)" fill="#231815"/>
  <g id="グループ_790" data-name="グループ 790" transform="translate(155.686 3.329)">
    <path id="パス_287" data-name="パス 287" d="M0,0H13.714" transform="translate(2.815 9.451)" fill="none" stroke="#231815" stroke-linecap="round" stroke-width="1.5"/>
    <path id="パス_286" data-name="パス 286" d="M0,0H13.714" transform="translate(9.892 2.814) rotate(90)" fill="none" stroke="#231815" stroke-linecap="round" stroke-width="1.5"/>
    <g id="パス_285" data-name="パス 285" transform="translate(-3.329 -3.329)" fill="none">
      <path d="M13,0A13,13,0,1,1,0,13,13,13,0,0,1,13,0Z" stroke="none"/>
      <path d="M 13 1.5 C 9.928239822387695 1.5 7.040340423583984 2.696210861206055 4.868270874023438 4.868270874023438 C 2.696210861206055 7.040340423583984 1.5 9.928239822387695 1.5 13 C 1.5 16.0717601776123 2.696210861206055 18.95965957641602 4.868270874023438 21.13172912597656 C 7.040340423583984 23.30379104614258 9.928239822387695 24.5 13 24.5 C 16.0717601776123 24.5 18.95965957641602 23.30379104614258 21.13172912597656 21.13172912597656 C 23.30379104614258 18.95965957641602 24.5 16.0717601776123 24.5 13 C 24.5 9.928239822387695 23.30379104614258 7.040340423583984 21.13172912597656 4.868270874023438 C 18.95965957641602 2.696210861206055 16.0717601776123 1.5 13 1.5 M 13 0 C 20.1796989440918 0 26 5.82029914855957 26 13 C 26 20.1796989440918 20.1796989440918 26 13 26 C 5.82029914855957 26 0 20.1796989440918 0 13 C 0 5.82029914855957 5.82029914855957 0 13 0 Z" stroke="none" fill="#231815"/>
    </g>
  </g>
</svg>
