<svg xmlns="http://www.w3.org/2000/svg" width="41.843" height="34" viewBox="0 0 41.843 34">
  <path id="Logo" d="M38.569,9.964c.025.368.025.738.025,1.11,0,11.344-8.636,24.426-24.427,24.426v-.007A24.3,24.3,0,0,1,1.009,31.644a17.468,17.468,0,0,0,2.044.124,17.226,17.226,0,0,0,10.662-3.682,8.6,8.6,0,0,1-8.021-5.962,8.569,8.569,0,0,0,3.876-.147,8.588,8.588,0,0,1-6.887-8.416v-.109a8.52,8.52,0,0,0,3.9,1.075A8.591,8.591,0,0,1,3.921,3.067a24.373,24.373,0,0,0,17.693,8.97,8.593,8.593,0,0,1,14.63-7.83A17.206,17.206,0,0,0,41.7,2.123a8.614,8.614,0,0,1-3.774,4.748A17.133,17.133,0,0,0,42.852,5.52,17.467,17.467,0,0,1,38.569,9.964Z" transform="translate(-1.009 -1.5)" fill="#fff"/>
</svg>
