<svg id="グループ_36" data-name="グループ 36" xmlns="http://www.w3.org/2000/svg" width="159.879" height="74.967" viewBox="0 0 159.879 74.967">
  <path id="パス_137" data-name="パス 137" d="M645.935,98.094c.406.111.813.222,1.214.351,3.085.987,2.937,2.677-.162,3.49a18.842,18.842,0,0,1-5.335.429,44.941,44.941,0,0,1-7.68-1.04v2.61a85.79,85.79,0,0,0,9.261.59,31.679,31.679,0,0,0,8.191-.858c1.617-.448,4.484-1.6,4.478-3.846-.007-2.176-3.162-3.255-4.607-3.742-1.011-.341-2.037-.62-3.065-.9q-2.82-.766-5.643-1.527c-.417-.113-.834-.225-1.245-.359-2.315-.755-2.328-2.111.06-2.688a18.1,18.1,0,0,1,4.818-.358,41.106,41.106,0,0,1,7.622.888V88.672a68.968,68.968,0,0,0-8.688-.516,24.471,24.471,0,0,0-8.107,1.029c-4.352,1.579-4.24,4.673.017,6.351a29.583,29.583,0,0,0,2.984.939q2.943.811,5.886,1.618c.407.111.814.223,1.214.351" transform="translate(-496.956 -88.156)" fill="#1b1311"/>
  <path id="パス_138" data-name="パス 138" d="M599.022,98.188c0,2.584.671,4.142,3.173,5.207a15.391,15.391,0,0,0,4.385,1.044,28.479,28.479,0,0,0,7.2-.094,13.883,13.883,0,0,0,2.894-.671c3.2-1.178,3.4-3.346,3.4-6.267V88.593h-5.144v9.056c0,.452,0,.905-.022,1.358-.08,1.665-.57,2.624-2.239,3.166a7.571,7.571,0,0,1-1.52.312,10.716,10.716,0,0,1-2.132.02,5.943,5.943,0,0,1-2.134-.536,2.781,2.781,0,0,1-1.679-2.787c-.022-.487-.022-.975-.022-1.465V88.655h-6.165Z" transform="translate(-488.243 -88.265)" fill="#1b1311"/>
  <path id="パス_139" data-name="パス 139" d="M526.815,88.594h5.651l11.3,10.131.01-10.076,4.1.008v15.575H542.5L530.98,93.845h-.062v10.388h-4.1Z" transform="translate(-470.167 -88.265)" fill="#1b1311"/>
  <path id="パス_140" data-name="パス 140" d="M476.344,103.649q-8.919,1.552-15.013.32c-5.877-1.188-8.827-4.126-8.834-7.656-.008-3.673,3.175-6.2,7.444-7.318a26.464,26.464,0,0,1,5.032-.737,65.348,65.348,0,0,1,11.371.381v2.516a49.154,49.154,0,0,0-5.765-.821c-2.723-.212-5.222-.311-7.845.921-5.4,2.539-4.457,8.378.979,10.306,3.319,1.177,7.016.738,9.824.251q1.367-.237,2.807-.551Z" transform="translate(-451.563 -88.156)" fill="#1b1311"/>
  <path id="パス_141" data-name="パス 141" d="M645.935,98.094c.406.111.813.222,1.214.351,3.085.987,2.937,2.677-.162,3.49a18.842,18.842,0,0,1-5.335.429,44.941,44.941,0,0,1-7.68-1.04v2.61a85.79,85.79,0,0,0,9.261.59,31.679,31.679,0,0,0,8.191-.858c1.617-.448,4.484-1.6,4.478-3.846-.007-2.176-3.162-3.255-4.607-3.742-1.011-.341-2.037-.62-3.065-.9q-2.82-.766-5.643-1.527c-.417-.113-.834-.225-1.245-.359-2.315-.755-2.328-2.111.06-2.688a18.1,18.1,0,0,1,4.818-.358,41.106,41.106,0,0,1,7.622.888V88.672a68.968,68.968,0,0,0-8.688-.516,24.471,24.471,0,0,0-8.107,1.029c-4.352,1.579-4.24,4.673.017,6.351a29.583,29.583,0,0,0,2.984.939q2.943.811,5.886,1.618c.407.111.814.223,1.214.351" transform="translate(-496.956 -88.156)" fill="#1b1311"/>
  <path id="パス_142" data-name="パス 142" d="M599.022,98.188c0,2.584.671,4.142,3.173,5.207a15.391,15.391,0,0,0,4.385,1.044,28.479,28.479,0,0,0,7.2-.094,13.883,13.883,0,0,0,2.894-.671c3.2-1.178,3.4-3.346,3.4-6.267V88.593h-5.144v9.056c0,.452,0,.905-.022,1.358-.08,1.665-.57,2.624-2.239,3.166a7.571,7.571,0,0,1-1.52.312,10.716,10.716,0,0,1-2.132.02,5.943,5.943,0,0,1-2.134-.536,2.781,2.781,0,0,1-1.679-2.787c-.022-.487-.022-.975-.022-1.465V88.655h-6.165Z" transform="translate(-488.243 -88.265)" fill="#1b1311"/>
  <path id="パス_143" data-name="パス 143" d="M583.628,97.224a11.03,11.03,0,0,0-4.593-1.37q.828-.125,1.531-.3c5.337-1.326,5.368-5.6-.076-6.624a32.072,32.072,0,0,0-5.99-.337H564.349v15.639h11.318a22.24,22.24,0,0,0,6.591-.678c3.646-1.1,4.853-4.2,1.369-6.33m-13.092-6.5h2.374q1.22,0,2.122.062c.842.059,2.743.154,3.067,1.331.361,1.314-1.184,2.111-2.143,2.421a13.1,13.1,0,0,1-3.9.469h-1.52Zm7.117,10.934a10.756,10.756,0,0,1-3.793.5h-3.324V97.085h1.558a14.106,14.106,0,0,1,5.165.753c2.685,1.1,2.248,3.073.394,3.824" transform="translate(-479.563 -88.265)" fill="#1b1311"/>
  <path id="パス_144" data-name="パス 144" d="M526.815,88.594h5.651l11.3,10.131.01-10.076,4.1.008v15.575H542.5L530.98,93.845h-.062v10.388h-4.1Z" transform="translate(-470.167 -88.265)" fill="#1b1311"/>
  <path id="パス_145" data-name="パス 145" d="M504.429,88.759H498.19l-9.957,15.514h4.29l1.993-3.1h10.4l1.723,3.1h6.4Zm-8.663,10.462,4.326-6.741,3.741,6.741Z" transform="translate(-460.509 -88.307)" fill="#1b1311"/>
  <path id="パス_146" data-name="パス 146" d="M476.344,103.649q-8.919,1.552-15.013.32c-5.877-1.188-8.827-4.126-8.834-7.656-.008-3.673,3.175-6.2,7.444-7.318a26.464,26.464,0,0,1,5.032-.737,65.348,65.348,0,0,1,11.371.381v2.516a49.154,49.154,0,0,0-5.765-.821c-2.723-.212-5.222-.311-7.845.921-5.4,2.539-4.457,8.378.979,10.306,3.319,1.177,7.016.738,9.824.251q1.367-.237,2.807-.551Z" transform="translate(-451.563 -88.156)" fill="#1b1311"/>
  <path id="パス_147" data-name="パス 147" d="M611.123,114.346c-.011-.73-.046-1.359-.046-1.36a1.248,1.248,0,0,0-1.3-1.3c-.4,0-.913,0-.913,0H453.517s-.515,0-.912,0a1.249,1.249,0,0,0-1.3,1.3s-.034.63-.046,1.36c-.007.548-.005,1.245-.007,1.731,0,.564.052,1.091.052,1.091a1.285,1.285,0,0,0,1.3,1.287c.254.017.909.008.909.008H608.871s.655.008.909-.008a1.286,1.286,0,0,0,1.3-1.287s.052-.527.052-1.091c0-.486,0-1.184-.007-1.731m-79.858,1.767a4.5,4.5,0,0,1-1.47.675h-4.557c.089-.257.81-2.331.869-2.495l.016-.044-.043.02c-.39.18-1.008.5-1.416.737-.282-.288-.781-.815-.786-.821l-.022-.023-.01.031c-.007.018-.653,1.836-.914,2.592h-1.357c.388-1.111.921-2.505,1.264-3.374h1.247c.058.058.549.554.745.748l.01.011.013-.008a15.649,15.649,0,0,1,1.6-.79H527.7l-.986,2.98-.008.026h.026c.019,0,1.937,0,2.547,0h.005a2.4,2.4,0,0,0,.711-.417l.005-.008c.229-.6.518-1.422.7-1.953l.6,0,.684,0c-.184.576-.516,1.613-.723,2.124m9.333-2.2h-2.31l-.245.761-.008.026h2.084l-.209.5h-2l-.292.969-.008.025,2.775.01-.232.583h-2.909a2.837,2.837,0,0,1-.978-.539c.134-.444.788-2.506.795-2.527l.008-.026h-.625l-.071.209c-.211.62-.6,1.772-.807,2.243a11.09,11.09,0,0,1-2.143,1.085,8.05,8.05,0,0,1-1.374-1.16c.059-.215.135-.49.214-.779.151-.548.323-1.169.408-1.5l.006-.025h-.025c-.026,0-2.538.01-2.867.01h-.007a1.594,1.594,0,0,0-.43.251l-.006.008c-.059.162-.692,1.95-.752,2.12H527.35c.09-.265.582-1.713.754-2.13a3.7,3.7,0,0,1,1.46-.634h4.442c-.1.359-.25.908-.4,1.44-.134.483-.261.938-.333,1.2l0,.01.006.007a1.52,1.52,0,0,0,.355.322l.008.006.011,0a4.989,4.989,0,0,0,.748-.4l0,0,0-.005c.173-.472.407-1.165.613-1.776.1-.3.2-.593.274-.807l5.507-.01Z" transform="translate(-451.251 -94.036)" fill="#1b1311"/>
  <path id="パス_148" data-name="パス 148" d="M466.921,138.975l3.519-1.172v5.315h6.052v2.72H470.44V159.02c0,2.887.9,4.478,3.176,4.478a7.122,7.122,0,0,0,2.4-.335l.215,2.678a9.2,9.2,0,0,1-3.477.544c-5.666,0-5.837-5.021-5.837-7.449v-13.1h-3.606v-2.72h3.606Z" transform="translate(-454.271 -100.561)" fill="#1b1311"/>
  <path id="パス_149" data-name="パス 149" d="M511.776,165.061h-3.284V152.639c0-3.433-1.266-6.4-4.985-6.4a5.8,5.8,0,0,0-5.7,5.9v12.923h-3.284V134.2h3.284v13.077h.08a7.964,7.964,0,0,1,6.686-3.742c2.651,0,7.2,1.582,7.2,8.718Z" transform="translate(-462.084 -99.661)" fill="#1b1311"/>
  <path id="パス_150" data-name="パス 150" d="M546.461,167.283a15.985,15.985,0,0,1-6.766,1.311c-6.291,0-10.05-4.32-10.05-10.608,0-6.6,3.8-11.341,9.615-11.341,6.646,0,8.348,5.94,8.348,9.605,0,.732-.04,1.272-.079,1.774H532.85c.04,5.825,3.442,8.024,7.32,8.024a13.931,13.931,0,0,0,5.658-1.08Zm-2.1-11.65c.04-2.855-1.187-6.558-5.421-6.558-3.957,0-5.7,3.664-6.014,6.558Z" transform="translate(-470.876 -102.77)" fill="#1b1311"/>
  <path id="パス_151" data-name="パス 151" d="M585.172,157.485c0,7.831-5.3,11.148-10.09,11.148-5.539,0-9.813-4.05-9.813-10.839,0-7.175,4.59-11.148,10.09-11.148,5.895,0,9.812,4.4,9.812,10.839m-9.932-8.333c-4.669,0-6.608,4.475-6.608,8.525,0,4.668,2.651,8.448,6.528,8.448,3.918,0,6.647-3.78,6.647-8.525,0-3.742-1.859-8.448-6.568-8.448" transform="translate(-479.794 -102.77)" fill="#1b1311"/>
  <path id="パス_152" data-name="パス 152" d="M614.976,149.859a10.232,10.232,0,0,0-1.187-.077c-3.561,0-5.381,3.433-5.381,6.982v11.419h-3.284V153.447c0-2.238-.04-4.283-.158-6.288h2.888l.158,4.05h.118a6.429,6.429,0,0,1,5.856-4.514,8.532,8.532,0,0,1,.989.116Z" transform="translate(-489.731 -102.783)" fill="#1b1311"/>
  <path id="パス_153" data-name="パス 153" d="M646.006,147.314l-5.737,14.89c-2.572,6.828-4.392,10.762-7.082,13.231a10.952,10.952,0,0,1-4.392,2.469l-.91-2.7a12.081,12.081,0,0,0,6.964-7.561,2.675,2.675,0,0,0-.237-.887l-7.637-19.442h3.6l4.709,12.768c.554,1.467,1.028,3.125,1.385,4.4h.118c.356-1.273.871-2.855,1.385-4.475l4.353-12.691Z" transform="translate(-495.24 -102.937)" fill="#1b1311"/>
</svg>
