<svg xmlns="http://www.w3.org/2000/svg" width="120.875" height="24.6" viewBox="0 0 120.875 24.6">
  <path id="パス_285" data-name="パス 285" d="M-46.675-5.025c0-.125-.275-.275-.475-.275-.075,0-.125.05-.2.175a5.888,5.888,0,0,1-1.85,2.5c-.9.65-2.025.95-4.425.95-1.625,0-2.1-.2-2.4-.675-.25-.4-.35-.875-.35-2.975V-14.1c0-2.375.125-2.825.3-3.15.175-.3.525-.475,1.85-.6.2-.025.25-.075.25-.3,0-.35-.05-.4-.25-.4-.95.05-2.225.125-3.2.125-1,0-2.275-.075-3.275-.125-.15,0-.2.05-.2.4,0,.225.05.275.2.3,1.4.1,1.775.25,2,.6.2.3.275.65.275,2.725v9.2c0,2.375-.075,2.95-.3,3.275-.2.3-.525.475-1.9.6-.15.025-.2.075-.2.325,0,.275.05.325.2.325,2.075-.075,4.35-.125,6.4-.125S-50.15-.9-48-.8a35.633,35.633,0,0,0,1.3-4.1Zm9.925-7.1c-2.875,0-5.35,2.475-5.35,5.95S-39.725-.4-36.75-.4c3.05,0,5.375-2.475,5.375-5.925C-31.375-9.925-33.875-12.125-36.75-12.125Zm0,.75c1.875,0,3.275,1.475,3.275,5.125,0,3.4-1.4,5.1-3.275,5.1-1.925,0-3.225-1.55-3.225-5.1C-39.975-9.675-38.625-11.375-36.75-11.375ZM-18-8.925c.025-2.35-.875-3.2-3.35-3.2-2.375,0-4.5,1.55-4.5,2.9a.6.6,0,0,0,.675.675c.95,0,1.6-.5,1.6-1.075a1.486,1.486,0,0,1,.45-1.225,2.4,2.4,0,0,1,1.7-.6c1.1,0,1.6.775,1.6,2.55v.65a1.271,1.271,0,0,1-.55.95,6.961,6.961,0,0,1-1.975.85,7.061,7.061,0,0,0-2.975,1.325,2.847,2.847,0,0,0-.85,2.2A2.587,2.587,0,0,0-23.3-.4a4.8,4.8,0,0,0,3.575-1.375A1.809,1.809,0,0,0-17.95-.525,3.224,3.224,0,0,0-16.1-1.15.181.181,0,0,0-16-1.3c0-.175-.15-.375-.275-.375A.576.576,0,0,0-16.5-1.6a.915.915,0,0,1-.6.2c-.575,0-.975-.575-.95-2.125ZM-19.85-3.45a2.284,2.284,0,0,1-2.525,2.1A1.859,1.859,0,0,1-24.2-3.275c0-1.225.625-1.9,2.075-2.45C-20.55-6.3-20.1-6.55-19.825-6.9ZM-3.275-10.9a4.286,4.286,0,0,0-3.05-1.25c-3.125,0-5.425,2.3-5.425,5.95,0,3.55,2.05,5.8,5.2,5.8A4.04,4.04,0,0,0-3.275-2.3c0,.575-.025,1-.05,1.675,0,.15.05.225.2.225C-2.25-.55-.875-.725.1-.8c.175-.025.225-.075.225-.325C.325-1.35.275-1.4.1-1.4l-.45-.025c-.6-.025-.825-.15-.95-.4-.125-.225-.15-.6-.15-2.5v-9.1c0-2.325.05-4.1.1-5.9,0-.1-.1-.175-.25-.175a23.573,23.573,0,0,1-3.4,1c-.2.05-.25.1-.25.4,0,.2.05.25.175.25l.9-.05a.708.708,0,0,1,.725.5,5.611,5.611,0,0,1,.175,2.05Zm0,6.525A2.028,2.028,0,0,1-3.75-2.8a2.978,2.978,0,0,1-2.5,1.25c-1.925,0-3.425-1.75-3.425-4.725,0-3.2,1.45-5.1,3.425-5.1A2.9,2.9,0,0,1-3.75-9.95a2.125,2.125,0,0,1,.475,1.5Zm9.6-.025c0,2-.05,2.375-.2,2.575-.175.225-.4.325-1.375.425-.15.025-.2.075-.2.275,0,.275.05.325.2.325C5.475-.825,6.525-.85,7.3-.85c.75,0,1.675.025,2.425.05.15,0,.2-.05.2-.325,0-.2-.05-.25-.2-.275C8.7-1.475,8.375-1.6,8.25-1.825S8.1-2.375,8.1-4.4V-7.525c0-1.175.025-2.525.1-4.3q0-.225-.3-.225a30.926,30.926,0,0,1-3.325,1.025c-.25.075-.3.1-.3.325,0,.275.05.325.2.325l.925-.05a.719.719,0,0,1,.725.5,5.824,5.824,0,0,1,.2,2.05ZM7.05-18.925a1.506,1.506,0,0,0-1.4,1.4,1.448,1.448,0,0,0,1.4,1.4,1.448,1.448,0,0,0,1.4-1.4A1.506,1.506,0,0,0,7.05-18.925Zm8.1,8.525c.325,0,.525.15.7.525a5.162,5.162,0,0,1,.2,2.025v3.5c0,1.925-.075,2.325-.225,2.55-.175.25-.375.375-1.275.45-.15.025-.2.075-.2.275,0,.225.05.275.2.275.75-.025,1.675-.05,2.5-.05.75,0,1.6.025,2.35.05.15,0,.2-.05.2-.275,0-.2-.05-.25-.2-.275-1.05-.1-1.225-.175-1.4-.45-.125-.2-.175-.5-.175-2.55v-3.2a2.65,2.65,0,0,1,.55-1.925,3.087,3.087,0,0,1,2.525-1.4A2.157,2.157,0,0,1,23.05-9.6a2.715,2.715,0,0,1,.275,1.425V-4.35c0,2.075-.075,2.325-.225,2.55-.175.275-.45.4-1.275.45-.175.025-.225.075-.225.275,0,.225.05.275.225.275.775-.025,1.7-.05,2.5-.05.75,0,1.625.025,2.35.05.175,0,.225-.05.225-.275,0-.2-.05-.25-.225-.275-.95-.1-1.175-.2-1.325-.45s-.2-.5-.2-2.55V-5.925c0-.625.025-1.85.025-2.75a3.312,3.312,0,0,0-3.55-3.425,4.486,4.486,0,0,0-3.8,2.3c0-.65.025-1.35.05-2,0-.125-.1-.225-.275-.225A23.613,23.613,0,0,1,14.375-11c-.275.05-.325.125-.325.275,0,.325.05.375.225.375ZM35.6-2.35c-1.225,0-1.675-.35-1.675-.775,0-.6.425-1.15,1.475-1.7a3.332,3.332,0,0,0,.7.075c2.625,0,4.25-1.55,4.25-3.775a3.149,3.149,0,0,0-.975-2.225c.75,0,1.625,0,2.475.075.125,0,.175-.025.25-.175l.3-.75c0-.125-.05-.15-.15-.15-1.025.1-2.525.175-3.875.175a5.074,5.074,0,0,0-2.275-.55c-2.3,0-4.325,1.575-4.325,3.75a3.448,3.448,0,0,0,2.75,3.4c-1.575.7-2.3,1.475-2.3,2.35,0,.85.35,1.325,1.575,1.7-1.6.625-2.475,1.65-2.475,2.9,0,1.725,2,3.125,4.925,3.125,4.1,0,6.075-1.9,6.075-4.325,0-2.1-1.25-3.175-4.2-3.175ZM37.825-.625c2.05,0,2.85.6,2.85,1.875,0,1.7-1.525,3.15-3.975,3.15-2.125,0-3.5-1.1-3.5-2.8a2.541,2.541,0,0,1,.875-1.925,4.187,4.187,0,0,1,.6-.375c.525.05,1.075.075,1.625.075ZM36.1-11.475c1.325,0,2.4,1.1,2.4,3,0,1.95-1.05,3.075-2.375,3.075-1.375,0-2.4-1.1-2.4-3.075C33.725-10.375,34.7-11.475,36.1-11.475Zm13.075,8.1a1.465,1.465,0,0,0-1.5,1.525,1.463,1.463,0,0,0,1.5,1.45A1.473,1.473,0,0,0,50.65-1.85,1.474,1.474,0,0,0,49.175-3.375Zm9.325,0A1.465,1.465,0,0,0,57-1.85,1.463,1.463,0,0,0,58.5-.4a1.473,1.473,0,0,0,1.475-1.45A1.474,1.474,0,0,0,58.5-3.375Z" transform="translate(60.9 19.5)" fill="#9b9277"/>
</svg>
