<svg xmlns="http://www.w3.org/2000/svg" width="23.488" height="30" viewBox="0 0 23.488 30">
  <g id="グループ_42" data-name="グループ 42" transform="translate(251.957 -196.348)">
    <path id="パス_164" data-name="パス 164" d="M-231.029,196.348H-249.4a2.56,2.56,0,0,0-2.56,2.56v24.879a2.56,2.56,0,0,0,2.56,2.56h18.368a2.56,2.56,0,0,0,2.56-2.56V198.908A2.56,2.56,0,0,0-231.029,196.348ZM-245.823,223.8a1.864,1.864,0,0,1-1.864-1.864,1.864,1.864,0,0,1,1.864-1.864,1.864,1.864,0,0,1,1.864,1.864A1.864,1.864,0,0,1-245.823,223.8Zm0-5.623a1.864,1.864,0,0,1-1.864-1.864,1.864,1.864,0,0,1,1.864-1.864,1.864,1.864,0,0,1,1.864,1.864A1.864,1.864,0,0,1-245.823,218.174Zm0-5.623a1.864,1.864,0,0,1-1.864-1.864,1.864,1.864,0,0,1,1.864-1.864,1.864,1.864,0,0,1,1.864,1.864A1.864,1.864,0,0,1-245.823,212.551Zm5.61,11.246a1.864,1.864,0,0,1-1.864-1.864,1.864,1.864,0,0,1,1.864-1.864,1.864,1.864,0,0,1,1.864,1.864A1.864,1.864,0,0,1-240.213,223.8Zm0-5.623a1.864,1.864,0,0,1-1.864-1.864,1.864,1.864,0,0,1,1.864-1.864,1.864,1.864,0,0,1,1.864,1.864A1.864,1.864,0,0,1-240.213,218.174Zm0-5.623a1.864,1.864,0,0,1-1.864-1.864,1.864,1.864,0,0,1,1.864-1.864,1.864,1.864,0,0,1,1.864,1.864A1.864,1.864,0,0,1-240.213,212.551Zm7.474,9.382A1.864,1.864,0,0,1-234.6,223.8a1.864,1.864,0,0,1-1.864-1.864V216.31a1.864,1.864,0,0,1,1.864-1.864,1.863,1.863,0,0,1,1.864,1.864Zm-1.864-9.382a1.864,1.864,0,0,1-1.864-1.864,1.864,1.864,0,0,1,1.864-1.864,1.864,1.864,0,0,1,1.864,1.864A1.864,1.864,0,0,1-234.6,212.551Zm2.231-7.455a.906.906,0,0,1-.907.906h-13.588a.906.906,0,0,1-.907-.906v-4a.907.907,0,0,1,.907-.907h13.588a.907.907,0,0,1,.907.907Z" transform="translate(0 0)" fill="#ededeb"/>
  </g>
</svg>
