<svg xmlns="http://www.w3.org/2000/svg" xmlns:xlink="http://www.w3.org/1999/xlink" width="52.012" height="25" viewBox="0 0 52.012 25">
  <defs>
    <clipPath id="clip-path">
      <rect id="長方形_129" data-name="長方形 129" width="52.012" height="25" fill="#ededeb"/>
    </clipPath>
  </defs>
  <g id="グループ_852" data-name="グループ 852" clip-path="url(#clip-path)">
    <path id="パス_330" data-name="パス 330" d="M88.729,2.025A3.007,3.007,0,0,0,85.886,0h-26.7a8.764,8.764,0,0,0-6.6,3L47.111,9.259H69.962v-6.5a.833.833,0,0,1,.833-.832h8.124a.832.832,0,0,1,.832.832v6.5h2.164v-6.5a.833.833,0,0,1,.833-.832H85.24a.832.832,0,0,1,.793.579L88.2,9.259h3.032ZM67.8,9.136H55.007l4.281-6.19A1.838,1.838,0,0,1,60.8,2.154h6.166a.832.832,0,0,1,.832.832Z" transform="translate(-40.193)" fill="#ededeb"/>
    <path id="パス_331" data-name="パス 331" d="M30.066,116.312a4.274,4.274,0,1,1-4.274-4.274,4.274,4.274,0,0,1,4.274,4.274" transform="translate(-18.358 -95.587)" fill="#ededeb"/>
    <path id="パス_332" data-name="パス 332" d="M284.97,116.312a4.274,4.274,0,1,1-4.275-4.274,4.275,4.275,0,0,1,4.275,4.274" transform="translate(-235.833 -95.587)" fill="#ededeb"/>
    <path id="パス_333" data-name="パス 333" d="M50.645,62.666H4.715A4.715,4.715,0,0,0,0,67.381v6.911a1.3,1.3,0,0,0,1.3,1.3h.91a5.412,5.412,0,1,1,10.458,0H39.634a5.412,5.412,0,1,1,10.459,0,2.013,2.013,0,0,0,1.919-2.01V64.033a1.367,1.367,0,0,0-1.367-1.367" transform="translate(0 -53.464)" fill="#ededeb"/>
  </g>
</svg>
