<svg id="グループ_41" data-name="グループ 41" xmlns="http://www.w3.org/2000/svg" width="32.665" height="32" viewBox="0 0 32.665 32">
  <g id="グループ_40" data-name="グループ 40" transform="translate(0 0)">
    <path id="パス_156" data-name="パス 156" d="M244.589,176.942a11.763,11.763,0,0,1,18.13,14.8l2.163,2.163.333-.332a.471.471,0,0,1,.665,0l7.652,7.651a.943.943,0,0,1,0,1.332l-2.662,2.661a.94.94,0,0,1-1.331,0l-7.652-7.652a.471.471,0,0,1,0-.665l.333-.332-2.062-2.062a11.758,11.758,0,0,1-15.571-17.568Zm2.661,13.973a8,8,0,1,0-2.343-5.655A7.943,7.943,0,0,0,247.25,190.915Z" transform="translate(-241.144 -173.497)" fill="#ededeb"/>
  </g>
</svg>
