<svg xmlns="http://www.w3.org/2000/svg" width="63.998" height="16.808" viewBox="0 0 63.998 16.808">
  <path id="パス_305" data-name="パス 305" d="M6.05-7.964c2.376,1.188,3.168,2.2,3.168,3.828a3.043,3.043,0,0,1-3.3,3.08c-1.76,0-3.41-1.364-4.246-3.63-.044-.11-.088-.132-.22-.132-.22,0-.33.088-.33.22l.022.176a25.6,25.6,0,0,0,.682,3.3,11.949,11.949,0,0,0,3.85.77c3.454,0,5.346-1.8,5.346-4.62,0-2.024-1.056-3.432-4.048-4.8l-1.1-.506c-1.716-.792-2.42-1.76-2.42-2.992A2.588,2.588,0,0,1,6.226-15.95c1.628,0,2.97,1.1,3.63,3.168a.17.17,0,0,0,.176.154c.22,0,.352-.066.352-.176v-.066c-.11-1.1-.22-2.486-.242-3.388a3.708,3.708,0,0,1-.726.066,4.8,4.8,0,0,1-1.386-.2,5.858,5.858,0,0,0-1.8-.264c-2.706,0-4.554,1.65-4.554,3.872,0,1.87.88,3.058,3.278,4.268ZM21.868-8.91c.572.836.77.968,1.034.968.4,0,.748-.44.748-1.32,0-.4-.2-.66-.814-.924a5.9,5.9,0,0,0-2.486-.484c-2.574,0-4.686,2.134-4.686,5.236,0,3.08,2.046,5.082,4.642,5.082a4.175,4.175,0,0,0,3.784-2.2.313.313,0,0,0,.044-.132c0-.132-.22-.286-.4-.286-.044,0-.088.022-.154.11a3.186,3.186,0,0,1-2.97,1.474c-1.54,0-3.1-1.628-3.1-4.158,0-2.816,1.188-4.444,2.75-4.444a1.793,1.793,0,0,1,1.474.88Zm6.864-.242c.264,0,.418.11.594.462a3.983,3.983,0,0,1,.2,1.782v3.08c0,1.628-.066,2.024-.22,2.244-.154.242-.308.33-1.166.4-.154.022-.2.066-.2.242,0,.2.044.242.2.242.66-.022,1.584-.044,2.244-.044S31.9-.726,32.56-.7c.11,0,.176-.044.176-.242,0-.176-.044-.22-.176-.242-.968-.066-1.188-.2-1.3-.4-.132-.242-.154-.462-.154-2.244V-6.38a2.709,2.709,0,0,1,.638-1.848c.44-.594.748-.814,1.078-.814a1.228,1.228,0,0,1,.572.2,1.283,1.283,0,0,0,.616.2c.44,0,1.078-.7,1.078-1.386,0-.33-.484-.616-1.188-.616-.88,0-1.8.726-2.794,2.332,0-.836.022-1.43.044-2.068,0-.11-.11-.2-.264-.2a17.167,17.167,0,0,1-2.882.9c-.22.066-.264.11-.264.308,0,.22.044.264.2.264ZM43.494-10.67a4.934,4.934,0,0,0-4.708,5.236A4.743,4.743,0,0,0,43.494-.352c2.684,0,4.73-2.178,4.73-5.214A4.766,4.766,0,0,0,43.494-10.67Zm0,.66c1.65,0,2.882,1.3,2.882,4.51,0,2.992-1.232,4.488-2.882,4.488-1.694,0-2.838-1.364-2.838-4.488C40.656-8.514,41.844-10.01,43.494-10.01Zm10.34,6.138a5.267,5.267,0,0,1-.22,2.266c-.11.22-.264.33-1.166.4-.132.022-.176.066-.176.264s.044.242.176.242c.7-.022,1.562-.044,2.288-.044.638,0,1.43.022,2.09.044.154,0,.2-.044.2-.242s-.044-.242-.2-.264c-.924-.088-1.122-.176-1.254-.4S55.4-2.09,55.4-3.872v-7.876c0-2.09.022-3.718.088-5.236,0-.11-.088-.176-.22-.176a27.767,27.767,0,0,1-2.992.88c-.2.044-.242.088-.242.308s.044.264.176.264l.77-.044a.66.66,0,0,1,.682.44,5.126,5.126,0,0,1,.176,1.8Zm8.1,0a5.267,5.267,0,0,1-.22,2.266c-.11.22-.264.33-1.166.4-.132.022-.176.066-.176.264s.044.242.176.242c.7-.022,1.562-.044,2.288-.044.638,0,1.43.022,2.09.044.154,0,.2-.044.2-.242s-.044-.242-.2-.264C64-1.3,63.8-1.386,63.668-1.606s-.176-.484-.176-2.266v-7.876c0-2.09.022-3.718.088-5.236,0-.11-.088-.176-.22-.176a27.767,27.767,0,0,1-2.992.88c-.2.044-.242.088-.242.308s.044.264.176.264l.77-.044a.66.66,0,0,1,.682.44,5.126,5.126,0,0,1,.176,1.8Z" transform="translate(-1.122 17.16)" fill="#9b9277"/>
</svg>
