<svg xmlns="http://www.w3.org/2000/svg" width="275.08" height="91.08" viewBox="0 0 275.08 91.08">
  <path id="パス_301" data-name="パス 301" d="M-139.76-20.36h7.84c.36,0,.52-.12.52-.36s-.08-.44-.76-1c-1.64-1.32-1.88-1.44-2.08-1.44-.24,0-.44.12-1.84,1.8h-3.68v-7a46.522,46.522,0,0,0,5.04-1.68c1.36.28,1.84.2,1.84-.24,0-.36-.2-.72-2.68-2.48a10.961,10.961,0,0,1-2.76,1.8,49.192,49.192,0,0,1-11.12,3.56c-.24.04-.16.56.08.56a58.621,58.621,0,0,0,7.24-1v6.48h-5.12a12.437,12.437,0,0,1-2.92-.28l.4,1.52a11.4,11.4,0,0,1,2.52-.24h4.6A44.564,44.564,0,0,1-150.6-5.32c-.16.2.2.56.36.4A31.869,31.869,0,0,0-141.96-16c-.16,13.04-.4,17-.4,17.96,0,.68.24.96,1.04.96,1.12,0,1.6-.4,1.6-1.2s-.04-3.4-.04-12.8V-17a9.965,9.965,0,0,1,4.04,4.44c.48.96.8,1.28,1.32,1.28a1.3,1.3,0,0,0,1.24-1.44c0-2.04-1.92-3.76-6.6-5.08Zm22,16.72c.2.72.36,1.44.52,2.2.44,2.12.76,2.56,1.64,2.56.8,0,1.36-.8,1.36-2.04,0-3.16-2.72-8.8-8-13.64-.2-.16-.6.12-.44.32A31.426,31.426,0,0,1-118-4.48a117.6,117.6,0,0,1-14,1.84,120.128,120.128,0,0,0,8.88-26.84c1.12-.32,1.4-.56,1.4-1,0-.52-.96-.92-4.24-1.64a28.258,28.258,0,0,1-.52,4.6,158.73,158.73,0,0,1-6.76,24.96,8.446,8.446,0,0,1-1.04.08c-.8.04-1.52.04-2.48,0,1.04,3.48,1.28,4,1.64,4,.4,0,.56-.2.84-1.32A110.394,110.394,0,0,0-117.76-3.64Zm29.2-21.64a19.452,19.452,0,0,1,2.16,0c6.12.32,10.56,4.28,10.56,10.36,0,7.8-7.64,11.48-14.32,12.64-.56.12-.68.32-.68.64,0,.24.24.48.68.44,8.2-.44,16.96-4.64,16.96-13.04,0-7.24-5.64-12.48-13.68-12.48a16.6,16.6,0,0,0-11.6,4.32,13.537,13.537,0,0,0-4.36,9.92,9.764,9.764,0,0,0,1.4,5.28,4.12,4.12,0,0,0,3.2,2.08c1.32,0,2.68-1.12,3.96-2.68a40.112,40.112,0,0,0,5.76-10.6,14.42,14.42,0,0,0,.76-3.92A5.587,5.587,0,0,0-88.56-25.28Zm-1.24.16a2.47,2.47,0,0,1,.48,1.68,8.171,8.171,0,0,1-.56,2.88A37.1,37.1,0,0,1-95.4-10.08c-1.24,1.64-2.08,2.32-2.8,2.32a2.407,2.407,0,0,1-1.88-1.36,8.151,8.151,0,0,1-.96-4.04,11.162,11.162,0,0,1,3.24-7.92A13.677,13.677,0,0,1-89.8-25.12Zm42.32,16.2a16.665,16.665,0,0,0,2.6.2,8.136,8.136,0,0,0,1.8-.16,1.048,1.048,0,0,0,.92-1.08c0-.76-.84-1.04-1.88-1a20.579,20.579,0,0,1-3-.08c.84-4.96,2.04-10.48,3-14.36a2.437,2.437,0,0,1,.76-1.52,1.1,1.1,0,0,0,.52-1A2.993,2.993,0,0,0-44-30.08a4.792,4.792,0,0,0-2.88-1.32c-.72,0-1.56.4-1.56.76,0,.2.08.28.68.4,1.48.28,1.8,1,1.8,2.44,0,.48-.12,1.12-.2,1.88-.28,1.88-.56,3.32-.92,5.16-.24-.68-1-1-1.96-1.08a7.612,7.612,0,0,1-2.76-.8,6.663,6.663,0,0,1-2.48-2.04c-.24-.32-.44-.56-.64-.56-.24,0-.32.2-.32.48a3.661,3.661,0,0,0,1.08,2.24,8.287,8.287,0,0,0,3.12,2.16c-1.64,1.36-3.48,3.44-3.48,5.6,0,3.2,2,4.48,5.44,5.6a30.783,30.783,0,0,0-.16,3.24c0,5.32,3.28,7.24,6.84,7.24,4.32,0,8.56-2.84,8.56-7.64,0-4.08-2.88-8.36-6.48-10.84-.24-.16-.4-.32-.6-.32a.536.536,0,0,0-.56.44.967.967,0,0,0,.32.6c3.2,3.2,4.84,6.24,4.84,9.8A6.05,6.05,0,0,1-42.56-.32C-45.8-.32-47.64-2-47.64-5.6-47.64-6.56-47.6-7.76-47.48-8.92Zm-1.2-2.36c-2.44-.44-4.68-1.44-4.68-3.64,0-1.12.72-2.48,2.6-3.8a3.705,3.705,0,0,1,2.28-.84c.72,0,1-.08,1.24-.36C-47.76-17.12-48.16-14.68-48.68-11.28Zm48.12-14a19.452,19.452,0,0,1,2.16,0c6.12.32,10.56,4.28,10.56,10.36,0,7.8-7.64,11.48-14.32,12.64-.56.12-.68.32-.68.64,0,.24.24.48.68.44C6.04-1.64,14.8-5.84,14.8-14.24c0-7.24-5.64-12.48-13.68-12.48a16.6,16.6,0,0,0-11.6,4.32,13.537,13.537,0,0,0-4.36,9.92,9.764,9.764,0,0,0,1.4,5.28,4.12,4.12,0,0,0,3.2,2.08c1.32,0,2.68-1.12,3.96-2.68A40.113,40.113,0,0,0-.52-18.4a14.42,14.42,0,0,0,.76-3.92A5.587,5.587,0,0,0-.56-25.28Zm-1.24.16a2.47,2.47,0,0,1,.48,1.68,8.171,8.171,0,0,1-.56,2.88A37.1,37.1,0,0,1-7.4-10.08c-1.24,1.64-2.08,2.32-2.8,2.32a2.407,2.407,0,0,1-1.88-1.36,8.151,8.151,0,0,1-.96-4.04A11.162,11.162,0,0,1-9.8-21.08,13.676,13.676,0,0,1-1.8-25.12ZM42.6-9.68H38.36a15.692,15.692,0,0,1-2.68-.2l.4,1.4a12.128,12.128,0,0,1,2.32-.2H61.44c.4,0,.52-.12.52-.36s-.08-.48-.8-1.08c-1.56-1.28-1.88-1.48-2.12-1.48-.2,0-.48.2-1.92,1.92H53.2v-4.56h6.6c.4,0,.52-.12.52-.36,0-.2-.16-.44-.76-.96-1.48-1.28-1.72-1.48-1.96-1.48s-.48.24-1.84,1.8H53.2V-17.2c.92-.4,1.12-.68,1.12-.92,0-.36-.4-.6-3.56-.88a26.277,26.277,0,0,1,.16,3.76H44.88V-17.2c.92-.4,1.12-.68,1.12-.92,0-.36-.4-.6-3.56-.88a26.277,26.277,0,0,1,.16,3.76H39.72a13.707,13.707,0,0,1-2.8-.24L37.28-14a13.1,13.1,0,0,1,2.36-.24H42.6Zm2.28,0v-4.56h6.04v4.56ZM57.8-26.96H52.08a19.1,19.1,0,0,0-2.56-1.28,18.658,18.658,0,0,1,.2,3.04c0,1.16-.08,1.72-.08,2.24,0,2.44.56,2.92,6.08,2.92a22.969,22.969,0,0,0,4.76-.4c.84-.2,1.48-.56,1.48-1.16a.72.72,0,0,0-.52-.76c-.32-.12-.44-.2-.44-.64,0-.36.04-1,.08-1.68,0-.2-.32-.24-.4-.08a4.966,4.966,0,0,1-1.32,2.28c-.48.4-1.36.64-3.76.64-3.64,0-3.76-.16-3.76-1.72v-2.4H57.8v.16c0,.56.24.76.88.76.88,0,1.36-.24,1.36-.92,0-.4-.08-1.36-.08-3.04v-.88c.84-.6.96-.76.96-1,0-.2-.04-.44-.64-.92-1.08-.92-1.28-1-1.48-1-.24,0-.36.12-1.36,1.24H52.12a19.094,19.094,0,0,1-3.32-.24l.4,1.52a11.457,11.457,0,0,1,2.96-.28H57.8Zm-13.2,0H39.04a25.679,25.679,0,0,0-2.56-1.32,20.468,20.468,0,0,1,.2,3.2c0,1.2-.04,1.72-.04,2.28,0,2.12.56,2.76,4.72,2.76a25.325,25.325,0,0,0,5.6-.36c.72-.24,1.16-.64,1.16-1.2a.7.7,0,0,0-.44-.76.588.588,0,0,1-.44-.64c0-.28.04-.96.04-1.44,0-.2-.32-.24-.4-.08a5.2,5.2,0,0,1-1.16,2.16c-.4.4-1.12.52-4.04.52-2.72,0-2.92-.28-2.92-1.52v-2.6H44.6c0,.56.24.72.88.72.88,0,1.32-.24,1.32-.96,0-.4-.08-1-.08-2.88v-.8c.88-.6,1-.72,1-1,0-.2-.08-.44-.64-.92-1.04-.92-1.24-1-1.44-1s-.36.12-1.4,1.24H39.12a18.647,18.647,0,0,1-3.28-.24l.4,1.52a11.319,11.319,0,0,1,2.92-.28H44.6ZM36.76-1.88A8.3,8.3,0,0,1,33.2-5.32v-9.6c.96-.6,1.04-.8,1.04-1s-.08-.44-.68-.92c-1.16-1-1.36-1.12-1.56-1.12s-.36.12-1.48,1.36H28.68a18.647,18.647,0,0,1-3.28-.24l.4,1.48a12.906,12.906,0,0,1,2.88-.24H30.8V-5.2a16.2,16.2,0,0,1-3.16,2.52,12.309,12.309,0,0,1-2.32,1.12c1.64,2.96,1.96,3.48,2.44,3.48.28,0,.52-.44.44-1.72a34.374,34.374,0,0,0,4.16-5.52A11.061,11.061,0,0,0,35.8-.6C37.68.88,40.92,1.84,49.4,1.84c3.76,0,7-.12,11.28-.48.56-.04.68-.16.76-.88.12-.76.28-1,1.2-1.48.2-.12.2-.56-.04-.52A120.591,120.591,0,0,1,48-.48c-5.6,0-8.52-.44-10.24-1a23.868,23.868,0,0,0,6.72-4.04c1.36.04,1.72-.08,1.72-.6,0-.32-.84-.84-3.12-1.76a10.312,10.312,0,0,1-1.56,2.2A23.268,23.268,0,0,1,37-1.76ZM50.84-7.16A12.662,12.662,0,0,1,55.8-2.88c.56.84.84,1.04,1.32,1.04a1.163,1.163,0,0,0,1.12-1.28c0-1.84-2.52-3.56-7.2-4.48C50.8-7.64,50.64-7.28,50.84-7.16ZM27.24-31.64a11.686,11.686,0,0,1,3.36,5.4c.28,1.08.6,1.48,1.24,1.48.88,0,1.48-.64,1.48-1.84,0-1.8-2-3.96-5.76-5.36C27.32-32.04,27.08-31.8,27.24-31.64ZM95.72-21.32a27.5,27.5,0,0,0,6.24,9.84,2.466,2.466,0,0,0,1.44.72,1.025,1.025,0,0,0,1.04-1,3.577,3.577,0,0,0-1.48-2.76,24.218,24.218,0,0,1-6.12-7.84A9.19,9.19,0,0,1,96-25.64a5.907,5.907,0,0,1-.04-.84A1.481,1.481,0,0,0,94.4-28c-.76,0-.92.44-.92.92a5.1,5.1,0,0,0,.32.92,15.516,15.516,0,0,1,.68,5.76,31.769,31.769,0,0,1-1.8,11.92c-1.36,3.56-4.72,6.32-8.52,6.32a6.7,6.7,0,0,1-5.28-2A8.532,8.532,0,0,1,77-9.84c0-5.24,2.88-10.96,6.4-14.52a6.207,6.207,0,0,1,2.4-1.44c.44-.16.84-.48.84-.92a1.142,1.142,0,0,0-.72-1.08,2.22,2.22,0,0,0-1.16-.32,1.528,1.528,0,0,0-1,.4,4.331,4.331,0,0,1-1.2.72,17.153,17.153,0,0,1-5.12,1.28,3.588,3.588,0,0,1-2.8-1.2c-.24-.24-.32-.36-.64-.36-.24,0-.4.2-.4.48,0,.68.88,1.64,1.56,2.16a4.8,4.8,0,0,0,3,.72,10.882,10.882,0,0,0,2.68-.4c-3,4.4-5.44,9.36-5.44,14.52a10.359,10.359,0,0,0,2.08,6.92C79.32-.6,81.48.28,84.64.28c4.6,0,8.04-3.32,9.68-7.64,1.28-3.4,1.36-6.64,1.36-10.08,0-1.32-.08-2.6-.12-3.84Zm6.16-10.88a.4.4,0,0,0-.4.4.514.514,0,0,0,.16.4,10.058,10.058,0,0,1,3.28,3.2c.56.92.84,1.08,1.32,1.08a1,1,0,0,0,.92-1.08,3.728,3.728,0,0,0-1.8-2.56,10.233,10.233,0,0,0-2.84-1.32A2.773,2.773,0,0,0,101.88-32.2Zm-3.36,2.48a.444.444,0,0,0-.44.44.546.546,0,0,0,.24.4,11.53,11.53,0,0,1,2.96,3.24c.52,1,.76,1.32,1.32,1.32.6,0,1-.44,1-1.16a4.128,4.128,0,0,0-1.72-2.6,9.729,9.729,0,0,0-2.96-1.6A1.361,1.361,0,0,0,98.52-29.72ZM114.4-6.12a.536.536,0,0,0,.32.52,14.61,14.61,0,0,1,6.16,6.96c.48,1.08,1.04,1.44,1.84,1.44a1.835,1.835,0,0,0,1.72-2c0-1.24-.76-2.72-2.64-4.24a15.761,15.761,0,0,0-6.56-3C114.84-6.52,114.4-6.4,114.4-6.12ZM-95.76,34.64h7.84c.36,0,.52-.12.52-.36s-.08-.44-.76-1c-1.64-1.32-1.88-1.44-2.08-1.44-.24,0-.44.12-1.84,1.8h-3.68v-7a46.523,46.523,0,0,0,5.04-1.68c1.36.28,1.84.2,1.84-.24,0-.36-.2-.72-2.68-2.48a10.961,10.961,0,0,1-2.76,1.8,49.193,49.193,0,0,1-11.12,3.56c-.24.04-.16.56.08.56a58.62,58.62,0,0,0,7.24-1v6.48h-5.12a12.437,12.437,0,0,1-2.92-.28l.4,1.52a11.4,11.4,0,0,1,2.52-.24h4.6a44.564,44.564,0,0,1-7.96,15.04c-.16.2.2.56.36.4A31.869,31.869,0,0,0-97.96,39c-.16,13.04-.4,17-.4,17.96,0,.68.24.96,1.04.96,1.12,0,1.6-.4,1.6-1.2s-.04-3.4-.04-12.8V38a9.965,9.965,0,0,1,4.04,4.44c.48.96.8,1.28,1.32,1.28a1.3,1.3,0,0,0,1.24-1.44c0-2.04-1.92-3.76-6.6-5.08Zm22,16.72c.2.72.36,1.44.52,2.2.44,2.12.76,2.56,1.64,2.56.8,0,1.36-.8,1.36-2.04,0-3.16-2.72-8.8-8-13.64-.2-.16-.6.12-.44.32A31.426,31.426,0,0,1-74,50.52a117.6,117.6,0,0,1-14,1.84,120.128,120.128,0,0,0,8.88-26.84c1.12-.32,1.4-.56,1.4-1,0-.52-.96-.92-4.24-1.64a28.258,28.258,0,0,1-.52,4.6,158.732,158.732,0,0,1-6.76,24.96,8.446,8.446,0,0,1-1.04.08c-.8.04-1.52.04-2.48,0,1.04,3.48,1.28,4,1.64,4,.4,0,.56-.2.84-1.32A110.394,110.394,0,0,0-73.76,51.36Zm29.2-21.64a19.452,19.452,0,0,1,2.16,0c6.12.32,10.56,4.28,10.56,10.36,0,7.8-7.64,11.48-14.32,12.64-.56.12-.68.32-.68.64,0,.24.24.48.68.44,8.2-.44,16.96-4.64,16.96-13.04,0-7.24-5.64-12.48-13.68-12.48a16.6,16.6,0,0,0-11.6,4.32,13.537,13.537,0,0,0-4.36,9.92,9.764,9.764,0,0,0,1.4,5.28,4.12,4.12,0,0,0,3.2,2.08c1.32,0,2.68-1.12,3.96-2.68a40.113,40.113,0,0,0,5.76-10.6,14.42,14.42,0,0,0,.76-3.92A5.587,5.587,0,0,0-44.56,29.72Zm-1.24.16a2.47,2.47,0,0,1,.48,1.68,8.171,8.171,0,0,1-.56,2.88A37.1,37.1,0,0,1-51.4,44.92c-1.24,1.64-2.08,2.32-2.8,2.32a2.407,2.407,0,0,1-1.88-1.36,8.151,8.151,0,0,1-.96-4.04,11.162,11.162,0,0,1,3.24-7.92A13.677,13.677,0,0,1-45.8,29.88ZM4.44,42.56a23.89,23.89,0,0,0,5.72,6.4,22.515,22.515,0,0,0,5.16,2.96,4.621,4.621,0,0,0,1.36.44c.24,0,.4-.12.56-.52.48-1.16.76-1.32,1.64-1.56.24-.08.28-.44.04-.48a23.328,23.328,0,0,1-7.24-2.2,18.054,18.054,0,0,1-6.16-5.04H17.4c.4,0,.52-.16.52-.4,0-.2-.16-.44-.96-1.08-1.72-1.36-2.08-1.56-2.32-1.56-.2,0-.44.2-2.08,2.04H7.52V27.72h8.72c.36,0,.52-.16.52-.4,0-.2-.12-.4-.8-1-1.64-1.4-1.96-1.56-2.16-1.56-.24,0-.48.16-2.08,1.96H7.52V23.56c1.16-.44,1.36-.72,1.36-.96,0-.44-.48-.72-3.92-1.08a47.136,47.136,0,0,1,.16,5.2H-6.36V23.56C-5.24,23.12-5,22.84-5,22.6c0-.44-.48-.72-3.92-1.08.12,1.32.16,3,.16,5.2h-4.8a15.812,15.812,0,0,1-3-.28l.36,1.52a13.053,13.053,0,0,1,2.68-.24h4.76V41.56h-6.12a16.528,16.528,0,0,1-3.04-.28l.36,1.52a13.426,13.426,0,0,1,2.72-.24H-8.2A25.9,25.9,0,0,1-18.72,52.4c-.2.12.08.6.32.52A25.265,25.265,0,0,0-5.36,42.56Zm.68-1H-6.36V37.44H5.12Zm0-9v3.88H-6.36V32.56Zm-11.48-1V27.72H5.12v3.84ZM-2.08,55.8H-13.04A15.407,15.407,0,0,1-16,55.52l.4,1.52A14.971,14.971,0,0,1-13,56.8H15.16c.44,0,.56-.12.56-.4,0-.24-.12-.4-.88-1.04-1.64-1.36-1.92-1.52-2.16-1.52s-.4.16-2.04,1.96H.32V50.2H7.96c.4,0,.52-.12.52-.4,0-.24-.08-.44-.72-.96-1.56-1.2-1.8-1.4-2.04-1.4-.2,0-.48.2-1.8,1.76H.32V45.92c1.08-.4,1.32-.72,1.32-.96,0-.44-.44-.68-3.92-1a34.053,34.053,0,0,1,.2,4.32v.92H-6.92a12.88,12.88,0,0,1-2.96-.32l.4,1.56a12.685,12.685,0,0,1,2.64-.24h4.76ZM50.44,27.52a34.371,34.371,0,0,0,3.04-3.32c1.2-.04,1.64-.24,1.64-.56,0-.36-.68-.72-3.52-1.68a9.729,9.729,0,0,1-.48,1.72,24.464,24.464,0,0,1-1.92,3.84H42.88a35.362,35.362,0,0,0,1.92-3.4c1.12-.12,1.56-.36,1.56-.76,0-.32-.6-.72-3.4-1.72a15.592,15.592,0,0,1-.72,2.4,36.868,36.868,0,0,1-6.68,10.92c-.16.2.16.52.36.36a26.226,26.226,0,0,0,3.92-3.68V34.2c0,4.24-.08,7.2-.08,9.76,0,.64.24.88,1,.88.92,0,1.36-.24,1.36-1v-.8H60.84c.4,0,.56-.12.56-.36s-.12-.44-.84-1.04c-1.68-1.32-1.92-1.4-2.12-1.4s-.44.08-1.84,1.8H51.12V38h7.92c.4,0,.52-.16.52-.44,0-.2-.08-.4-.72-.92-1.44-1.2-1.64-1.28-1.88-1.28-.2,0-.4.12-1.64,1.64h-4.2V33.24h7.84c.4,0,.52-.12.52-.36s-.12-.44-.76-.96c-1.36-1.16-1.6-1.28-1.84-1.28-.2,0-.44.12-1.68,1.6H51.12V28.52h9.2c.4,0,.52-.12.52-.4,0-.2-.12-.4-.8-1-1.44-1.24-1.76-1.4-2-1.4s-.44.16-1.84,1.8ZM42.12,42.04V38h6.72v4.04Zm0-5.04V33.24h6.72V37Zm0-4.76V28.72l.12-.2h6.6v3.72Zm2.68,16.4V46.6c1.12-.44,1.32-.64,1.32-.96,0-.52-.48-.68-3.96-1.08a30.879,30.879,0,0,1,.2,4.08H29.2a17.485,17.485,0,0,1-3.16-.28l.4,1.52a16.543,16.543,0,0,1,2.8-.24H42.36v.92c0,4.52-.16,6.2-.16,6.72,0,.72.24,1,1.12,1,1.12,0,1.64-.36,1.64-1.16,0-.56-.16-2.64-.16-7.48H61.6c.4,0,.52-.12.52-.36s-.12-.44-1-1.16c-1.8-1.48-2-1.56-2.2-1.56s-.44.08-2.08,2.08ZM29.2,23a9.044,9.044,0,0,1,3.4,3.68c.36.64.68.88,1.08.88a1.327,1.327,0,0,0,1.24-1.44c0-1.56-2.36-3.12-5.52-3.48C29.2,22.6,29.04,22.88,29.2,23Zm-2.56,6A10.325,10.325,0,0,1,30,32.72c.36.64.64.88,1.08.88.68,0,1.24-.48,1.24-1.44,0-1.52-2-2.92-5.48-3.6A.252.252,0,0,0,26.64,29Zm10.12-.48c-2.08,3.6-3.48,5.8-4.84,7.76-.8,1.12-1.44,1.44-2.12,1.44a12.823,12.823,0,0,1-2.72-.44c-.24-.04-.36.44-.12.52,2.72,1.04,3.4,1.56,3.4,3.2,0,1.36-.48,2.16-.48,3.24s.56,1.72,1.48,1.72a1.768,1.768,0,0,0,1.72-2c0-1.16-.72-2.68-.72-3.76a3.388,3.388,0,0,1,.44-1.76c1.52-3.12,2.76-5.8,4.44-9.64C37.36,28.6,36.88,28.32,36.76,28.52ZM75.68,47.44a5.18,5.18,0,1,0,5.16,5.16A5.207,5.207,0,0,0,75.68,47.44Zm0,1.36a3.82,3.82,0,1,1-3.84,3.8A3.824,3.824,0,0,1,75.68,48.8Z" transform="translate(150.64 32.8)" fill="#fff"/>
</svg>
