<svg xmlns="http://www.w3.org/2000/svg" width="363.48" height="91.52" viewBox="0 0 363.48 91.52">
  <path id="パス_300" data-name="パス 300" d="M-183.76-20.36h7.84c.36,0,.52-.12.52-.36s-.08-.44-.76-1c-1.64-1.32-1.88-1.44-2.08-1.44-.24,0-.44.12-1.84,1.8h-3.68v-7a46.522,46.522,0,0,0,5.04-1.68c1.36.28,1.84.2,1.84-.24,0-.36-.2-.72-2.68-2.48a10.961,10.961,0,0,1-2.76,1.8,49.192,49.192,0,0,1-11.12,3.56c-.24.04-.16.56.08.56a58.621,58.621,0,0,0,7.24-1v6.48h-5.12a12.437,12.437,0,0,1-2.92-.28l.4,1.52a11.4,11.4,0,0,1,2.52-.24h4.6A44.564,44.564,0,0,1-194.6-5.32c-.16.2.2.56.36.4A31.869,31.869,0,0,0-185.96-16c-.16,13.04-.4,17-.4,17.96,0,.68.24.96,1.04.96,1.12,0,1.6-.4,1.6-1.2s-.04-3.4-.04-12.8V-17a9.965,9.965,0,0,1,4.04,4.44c.48.96.8,1.28,1.32,1.28a1.3,1.3,0,0,0,1.24-1.44c0-2.04-1.92-3.76-6.6-5.08Zm22,16.72c.2.72.36,1.44.52,2.2.44,2.12.76,2.56,1.64,2.56.8,0,1.36-.8,1.36-2.04,0-3.16-2.72-8.8-8-13.64-.2-.16-.6.12-.44.32A31.426,31.426,0,0,1-162-4.48a117.6,117.6,0,0,1-14,1.84,120.128,120.128,0,0,0,8.88-26.84c1.12-.32,1.4-.56,1.4-1,0-.52-.96-.92-4.24-1.64a28.258,28.258,0,0,1-.52,4.6,158.729,158.729,0,0,1-6.76,24.96,8.446,8.446,0,0,1-1.04.08c-.8.04-1.52.04-2.48,0,1.04,3.48,1.28,4,1.64,4,.4,0,.56-.2.84-1.32A110.394,110.394,0,0,0-161.76-3.64Zm29.2-21.64a19.452,19.452,0,0,1,2.16,0c6.12.32,10.56,4.28,10.56,10.36,0,7.8-7.64,11.48-14.32,12.64-.56.12-.68.32-.68.64,0,.24.24.48.68.44,8.2-.44,16.96-4.64,16.96-13.04,0-7.24-5.64-12.48-13.68-12.48a16.6,16.6,0,0,0-11.6,4.32,13.537,13.537,0,0,0-4.36,9.92,9.764,9.764,0,0,0,1.4,5.28,4.12,4.12,0,0,0,3.2,2.08c1.32,0,2.68-1.12,3.96-2.68a40.112,40.112,0,0,0,5.76-10.6,14.42,14.42,0,0,0,.76-3.92A5.587,5.587,0,0,0-132.56-25.28Zm-1.24.16a2.47,2.47,0,0,1,.48,1.68,8.171,8.171,0,0,1-.56,2.88,37.1,37.1,0,0,1-5.52,10.48c-1.24,1.64-2.08,2.32-2.8,2.32a2.407,2.407,0,0,1-1.88-1.36,8.151,8.151,0,0,1-.96-4.04,11.162,11.162,0,0,1,3.24-7.92A13.677,13.677,0,0,1-133.8-25.12Zm57.72,11.8v-2.72c1.08-.44,1.28-.68,1.28-.96,0-.48-.68-.68-3.88-1a25.318,25.318,0,0,1,.2,4.68H-90.44a14.332,14.332,0,0,1-2.88-.28l.36,1.52a15.253,15.253,0,0,1,2.56-.24h11.92V-1c0,.56-.24.76-.72.76a47.181,47.181,0,0,1-5.12-.32c-.24-.04-.28.52-.04.56,3.36.72,4.24,1.2,4.4,2.36.04.44.2.48.56.48a4.516,4.516,0,0,0,2.28-.72,2.632,2.632,0,0,0,1.2-2.48c0-1.32-.16-3.4-.16-9v-2.96h6.12c.4,0,.52-.12.52-.4,0-.2-.12-.44-.76-1-1.4-1.24-1.76-1.44-1.96-1.44s-.44.2-1.84,1.84ZM-96.6-6.12V-4.4c0,.64.28.84,1,.84,1.04,0,1.52-.28,1.52-1.08,0-1.08-.2-4.92-.2-15.6V-27.8c.88-.56,1-.8,1-1.04,0-.2-.08-.44-.64-.88-1.16-.92-1.4-1.04-1.6-1.04s-.36.12-1.44,1.28h-4.84a24.176,24.176,0,0,0-2.88-1.44c.2,2.4.24,5.04.24,12.36,0,11.4-.16,14.12-.16,15.36,0,.68.24.84,1.04.84.96,0,1.44-.24,1.44-1V-6.12Zm0-1h-5.52V-17.6h5.52Zm0-11.48h-5.52v-9.88h5.52ZM-84-19.92h-6.48a11.343,11.343,0,0,1-2.76-.28l.4,1.52a13.885,13.885,0,0,1,2.4-.24h20.36c.4,0,.52-.12.52-.36s-.12-.44-.8-1.04c-1.64-1.36-1.88-1.52-2.12-1.52s-.44.16-1.92,1.92h-7.16v-6h9.8c.36,0,.52-.16.52-.4,0-.2-.12-.4-.8-.96-1.6-1.32-1.88-1.44-2.08-1.44-.24,0-.48.12-1.88,1.8h-5.56V-31c1.16-.44,1.36-.72,1.36-1.04,0-.44-.48-.68-3.96-1.08a38.735,38.735,0,0,1,.16,4.6v1.6h-4.92a12.824,12.824,0,0,1-2.72-.28l.36,1.52a11.035,11.035,0,0,1,2.4-.24H-84Zm-5.36,10.2a9.8,9.8,0,0,1,2.8,4.84c.32,1.24.72,1.48,1.36,1.48.8,0,1.32-.76,1.32-1.76,0-1.68-1.52-3.64-5.2-4.96C-89.32-10.2-89.52-9.88-89.36-9.72Zm49.88,6.4v1.24c0,.56.28.8,1,.8.96,0,1.44-.28,1.44-1.04,0-.6-.12-2.96-.12-8.16v-3.16c.88-.52,1-.76,1-.96s-.08-.44-.68-.92c-1.08-.92-1.32-1.04-1.52-1.04s-.36.12-1.4,1.24h-9.12a25.776,25.776,0,0,0-2.8-1.36,68.054,68.054,0,0,1,.2,7.2c0,5.24-.12,7.28-.12,7.92s.28.84,1.04.84c.96,0,1.4-.24,1.4-1.04V-3.32Zm0-1h-9.68V-9.08h9.68Zm0-5.76h-9.68v-4.24h9.68ZM-49-20.2v.64c0,.56.24.76.96.76.96,0,1.48-.28,1.48-.92,0-.56-.12-2.52-.12-7.28v-2.88c.88-.56,1.04-.76,1.04-1.04,0-.2-.04-.36-.64-.88-1.16-1-1.4-1.08-1.6-1.08s-.36.08-1.48,1.32h-8.32a12.292,12.292,0,0,0-2.92-1.4c.2,2.64.24,5.72.24,15.36,0,11.72-.2,17.44-.2,19.76,0,.68.28.96,1.04.96,1.08,0,1.6-.4,1.6-1.12,0-2-.04-5.4-.04-16.64V-20.2Zm0-1h-8.96v-4.32H-49Zm0-5.32h-8.96v-4.04H-49Zm18.84,6.32V-.72c0,.44-.2.64-.68.64-.8,0-2.32-.08-4.4-.24-.24,0-.28.52-.04.56,2.96.56,3.68,1.16,3.8,2.24.04.48.16.52.56.52a3.878,3.878,0,0,0,2.08-.64A2.583,2.583,0,0,0-27.6.08c0-1.24-.16-2.4-.16-19.36V-29.8c.96-.56,1.08-.76,1.08-1.04,0-.2-.08-.4-.68-.92-1.24-1-1.4-1.08-1.64-1.08-.2,0-.32.08-1.48,1.28h-8.6a16.992,16.992,0,0,0-2.84-1.4,53.893,53.893,0,0,1,.2,5.88c0,4.64-.12,6.52-.12,7.44,0,.64.28.84,1,.84,1,0,1.4-.28,1.4-.96v-.44Zm0-1h-9.28v-4.32h9.28Zm0-5.32h-9.28v-4.04h9.28ZM-7-16.68c1.44-2.04,2.68-4.16,3.96-6.4A49.4,49.4,0,0,0,3.84-25.2c1-.4,1.28-.64,1.28-1.24,0-.52-.52-1-1.32-1a4.485,4.485,0,0,0-2.04.72A18.961,18.961,0,0,1-1.92-25.2c.32-.6.68-1.28.92-1.72A3.066,3.066,0,0,1,.04-28.2a.96.96,0,0,0,.48-.88c0-.8-1.08-1.48-1.76-1.8a5.58,5.58,0,0,0-2.36-.64,3.232,3.232,0,0,0-1.48.36.8.8,0,0,0-.44.6c0,.16.16.2.44.2,1.72,0,2.48.44,2.48,1.08a5.716,5.716,0,0,1-.28,1.48,25.061,25.061,0,0,1-1.2,3.04,24.811,24.811,0,0,1-4.96.64,4.026,4.026,0,0,1-3.36-1.16.96.96,0,0,0-.64-.36c-.2,0-.36.28-.36.52a1.357,1.357,0,0,0,.2.56A4.419,4.419,0,0,0-8.88-22.4a32.985,32.985,0,0,0,3.84-.32,43.541,43.541,0,0,1-2.88,4.8,41.789,41.789,0,0,1-4.04,4.84c-.88.92-1.16,1.32-1.16,1.96a1.17,1.17,0,0,0,1.08,1.24,1.507,1.507,0,0,0,1-.6,26.966,26.966,0,0,1,3.6-4.28c1.56-1.48,3.32-2.64,5.08-2.64,1.24,0,2,.72,1.96,3.48v1.68C-4.16-9.96-7.36-7.8-7.36-4.12-7.36-1.24-5.4.76.96.76,4.2.76,6.56.68,8.52.52c1.76-.16,2.32-.56,2.32-1.28,0-.8-1-1.6-2.44-1.6a6.349,6.349,0,0,0-1.52.24,18.5,18.5,0,0,1-2.2.4,57.4,57.4,0,0,1-6.04.32C-4.6-1.4-6-2.56-6-4.36c0-2.88,3.28-4.72,5.56-6-.04,2.24-.12,3.76-.12,5A1.109,1.109,0,0,0,.56-4.28c.52,0,1.08-.44,1.08-1.52,0-2.28-.04-4.08-.04-5.76,1.2-.68,2.44-1.4,3.52-2,2.84-1.52,5.36-2.72,7.28-3.52a4.109,4.109,0,0,1,1.2-.32.812.812,0,0,0,.8-.84c0-.76-.6-1.24-1.64-1.88a6.018,6.018,0,0,0-2.96-.96c-.84,0-1.6.28-1.6.64,0,.2.12.2.36.24a3.2,3.2,0,0,1,1.4.48c.24.16.36.32.36.52,0,.24-.08.44-.44.68C7.56-16.96,4.56-15.16,1.6-13.4c0-.52-.04-1.16-.08-1.64C1.4-17.4.04-18.6-2.04-18.6a8.818,8.818,0,0,0-4.88,2Zm49.36,6.24H29.8a14.64,14.64,0,0,1-3.2-.28l.36,1.52a18.238,18.238,0,0,1,2.88-.24H40.56A39.215,39.215,0,0,1,25.88.88c-.24.08-.04.64.2.56A36.5,36.5,0,0,0,42.56-8.04l-.16,4.4c-.12,2.92-.2,5.04-.2,5.68,0,.68.36.96,1.08.96,1.12,0,1.64-.36,1.64-1.16s-.12-3.6-.36-10.88a31.624,31.624,0,0,0,7.12,6.56A30.2,30.2,0,0,0,58.28.68,4.351,4.351,0,0,0,59.64,1a.739.739,0,0,0,.68-.44c.56-1.4.84-1.64,1.96-1.96.2-.04.24-.36.04-.4a31.175,31.175,0,0,1-9.8-2.64,26.477,26.477,0,0,1-7.28-5h15.6c.36,0,.52-.12.52-.36s-.16-.44-.96-1.12c-1.76-1.44-1.96-1.56-2.2-1.56-.2,0-.4.12-2.12,2.04H44.72v-2.32c1.12-.4,1.36-.64,1.36-.96,0-.4-.56-.72-3.92-1a23.326,23.326,0,0,1,.2,3.84ZM40.2-28.28a22.094,22.094,0,0,0-2.76-1.36c.16,1.88.2,3.2.2,6.8,0,5.6-.16,7.44-.16,8.16,0,.6.28.8.96.8.96,0,1.44-.28,1.44-1v-1.04h7.84v.96c0,.64.28.8,1.04.8.88,0,1.36-.24,1.36-.96,0-.6-.12-2.8-.12-8.12v-3.32c.88-.56,1-.72,1-.96s-.08-.4-.64-.92c-1.08-.92-1.28-1.04-1.48-1.04s-.36.12-1.4,1.2H43.2A21.207,21.207,0,0,0,45-31.12c1.12-.2,1.44-.4,1.44-.8s-.28-.6-3.68-1.48a12.939,12.939,0,0,1-.2,2.4c-.12.84-.28,1.72-.52,2.72Zm7.52,11.36H39.88v-4.8h7.84Zm0-5.8H39.88v-4.56h7.84Zm3.8,1.68a16.16,16.16,0,0,1,6.16,5.28c.68.92,1.16,1.24,1.68,1.24a1.236,1.236,0,0,0,1.16-1.36c0-2.08-2.88-4.24-8.8-5.6C51.48-21.52,51.32-21.16,51.52-21.04ZM27.44-29.92A13.826,13.826,0,0,1,32-24.72c.56,1.12.88,1.4,1.4,1.4.8,0,1.36-.48,1.36-1.64,0-1.92-2.52-4-7.04-5.44C27.48-30.48,27.24-30.08,27.44-29.92ZM51.8-22.88a32.554,32.554,0,0,0,7.48-5.36c1.28.2,1.64,0,1.64-.36,0-.32-.4-.8-3-2.52a22.077,22.077,0,0,1-1.72,2.68,32.172,32.172,0,0,1-4.72,5.04C51.28-23.24,51.6-22.76,51.8-22.88ZM36.44-20.92a55.32,55.32,0,0,1-7.84,3.6,13.591,13.591,0,0,1-2.04.52c1.24,2.92,1.64,3.44,1.88,3.44.4,0,.6-.28.64-1.48a35.213,35.213,0,0,0,7.6-5.6C36.84-20.6,36.64-21.04,36.44-20.92ZM85.96.04c5.92,0,12.2-3.64,15.88-8.4a1.15,1.15,0,0,0,.28-.6.4.4,0,0,0-.4-.4.9.9,0,0,0-.6.28c-4.16,3.92-9.72,6.96-15,6.96a4.45,4.45,0,0,1-3.16-.84c-.76-.64-1.12-1.8-1.12-3.72,0-1.88.16-5.92.36-9.36.16-2.6.36-5.28.68-7.88.08-.96.28-1.24.52-1.48a1.532,1.532,0,0,0,.56-1.16c0-.8-.56-1.48-1.64-2.28a5.076,5.076,0,0,0-2.8-1.24,2.3,2.3,0,0,0-.96.16c-.36.2-.4.28-.4.48,0,.24.12.32.56.44,1.52.44,1.84,1.48,1.8,2.96-.08,3.44-.16,6.68-.32,9.88-.16,3.56-.32,7.72-.32,9.96C79.88-1.44,82.36.04,85.96.04Zm41.12-22.56a38.654,38.654,0,0,0,6.72-2.04,1.134,1.134,0,0,0,.76-1c0-.68-.64-.96-1.32-.96a6.286,6.286,0,0,0-2.24.84,22.7,22.7,0,0,1-3.8,1.44c.08-.88.12-1.72.24-2.52a1.554,1.554,0,0,1,.56-1.2.947.947,0,0,0,.44-.76c0-1.2-2.56-2.64-3.88-2.64-.8,0-1.72.32-1.72.8,0,.28.2.36.56.36,1.32.04,2,.68,2,1.8,0,1.8,0,2.92-.04,4.52a22.755,22.755,0,0,1-4.72.64,3.34,3.34,0,0,1-3.12-1.28.685.685,0,0,0-.52-.28.463.463,0,0,0-.4.4.894.894,0,0,0,.12.4c1.04,2.08,2.44,2.36,4.2,2.36a30.313,30.313,0,0,0,4.4-.48c-.04,2.2-.08,3.8-.16,5.52a3.407,3.407,0,0,0-2.2-.72,4.164,4.164,0,0,0-4,4.52,3.9,3.9,0,0,0,4.24,4.2,11.266,11.266,0,0,0-1.44,4.68c0,1.68,1.08,2.88,2.84,3.68,1.72.8,4.32.92,7.4.92a17.4,17.4,0,0,0,8.52-1.92,3.5,3.5,0,0,0,2.04-2.96,5.768,5.768,0,0,0-.32-2.12c-1.4-4.56-2.44-9.36-2.44-12.8,0-2.08.52-2.56,1.4-2.56a3.637,3.637,0,0,1,2.48,1.36,5.405,5.405,0,0,1,1.68,2.84.768.768,0,0,1-.44.72,14.057,14.057,0,0,1-2.44,1.16c-.28.12-.36.2-.36.4a.361.361,0,0,0,.44.36,23.293,23.293,0,0,1,2.64-.28,1.3,1.3,0,0,1,.92.2,1.524,1.524,0,0,0,.88.28c.6,0,1-.52,1-1.64a7.12,7.12,0,0,0-2.2-4.36,6.312,6.312,0,0,0-4.28-2.04c-1.8,0-2.92,1.08-2.92,3.84,0,2.56.44,5.8,1.36,12.08a7.991,7.991,0,0,1,.08,1.36A2.758,2.758,0,0,1,138.52-3a19.028,19.028,0,0,1-7.92,1.6,17.247,17.247,0,0,1-5.24-.64c-1.36-.52-2.08-1.28-2.08-2.48,0-1.16,1-3.2,1.84-4.76a5.047,5.047,0,0,0,1.64-4.2,6.541,6.541,0,0,0-.08-.88C126.84-16.88,126.92-19.8,127.08-22.52Zm-4.04,6.28c1.2,0,2.04.96,2.04,2.76,0,1.88-.72,3.08-2.28,3.08a2.422,2.422,0,0,1-2.4-2.56C120.4-15,121.76-16.24,123.04-16.24ZM158.4-6.12a.536.536,0,0,0,.32.52,14.61,14.61,0,0,1,6.16,6.96c.48,1.08,1.04,1.44,1.84,1.44a1.835,1.835,0,0,0,1.72-2c0-1.24-.76-2.72-2.64-4.24a15.761,15.761,0,0,0-6.56-3C158.84-6.52,158.4-6.4,158.4-6.12ZM-183.76,34.64h7.84c.36,0,.52-.12.52-.36s-.08-.44-.76-1c-1.64-1.32-1.88-1.44-2.08-1.44-.24,0-.44.12-1.84,1.8h-3.68v-7a46.522,46.522,0,0,0,5.04-1.68c1.36.28,1.84.2,1.84-.24,0-.36-.2-.72-2.68-2.48a10.961,10.961,0,0,1-2.76,1.8,49.192,49.192,0,0,1-11.12,3.56c-.24.04-.16.56.08.56a58.621,58.621,0,0,0,7.24-1v6.48h-5.12a12.437,12.437,0,0,1-2.92-.28l.4,1.52a11.4,11.4,0,0,1,2.52-.24h4.6a44.564,44.564,0,0,1-7.96,15.04c-.16.2.2.56.36.4A31.869,31.869,0,0,0-185.96,39c-.16,13.04-.4,17-.4,17.96,0,.68.24.96,1.04.96,1.12,0,1.6-.4,1.6-1.2s-.04-3.4-.04-12.8V38a9.965,9.965,0,0,1,4.04,4.44c.48.96.8,1.28,1.32,1.28a1.3,1.3,0,0,0,1.24-1.44c0-2.04-1.92-3.76-6.6-5.08Zm22,16.72c.2.72.36,1.44.52,2.2.44,2.12.76,2.56,1.64,2.56.8,0,1.36-.8,1.36-2.04,0-3.16-2.72-8.8-8-13.64-.2-.16-.6.12-.44.32A31.426,31.426,0,0,1-162,50.52a117.6,117.6,0,0,1-14,1.84,120.128,120.128,0,0,0,8.88-26.84c1.12-.32,1.4-.56,1.4-1,0-.52-.96-.92-4.24-1.64a28.258,28.258,0,0,1-.52,4.6,158.729,158.729,0,0,1-6.76,24.96,8.446,8.446,0,0,1-1.04.08c-.8.04-1.52.04-2.48,0,1.04,3.48,1.28,4,1.64,4,.4,0,.56-.2.84-1.32A110.394,110.394,0,0,0-161.76,51.36Zm29.2-21.64a19.452,19.452,0,0,1,2.16,0c6.12.32,10.56,4.28,10.56,10.36,0,7.8-7.64,11.48-14.32,12.64-.56.12-.68.32-.68.64,0,.24.24.48.68.44,8.2-.44,16.96-4.64,16.96-13.04,0-7.24-5.64-12.48-13.68-12.48a16.6,16.6,0,0,0-11.6,4.32,13.537,13.537,0,0,0-4.36,9.92,9.764,9.764,0,0,0,1.4,5.28,4.12,4.12,0,0,0,3.2,2.08c1.32,0,2.68-1.12,3.96-2.68a40.112,40.112,0,0,0,5.76-10.6,14.42,14.42,0,0,0,.76-3.92A5.587,5.587,0,0,0-132.56,29.72Zm-1.24.16a2.47,2.47,0,0,1,.48,1.68,8.171,8.171,0,0,1-.56,2.88,37.1,37.1,0,0,1-5.52,10.48c-1.24,1.64-2.08,2.32-2.8,2.32a2.407,2.407,0,0,1-1.88-1.36,8.151,8.151,0,0,1-.96-4.04,11.162,11.162,0,0,1,3.24-7.92A13.677,13.677,0,0,1-133.8,29.88Zm40.56-6.44a17.227,17.227,0,0,1,6.4,5.36c1,1.36,1.32,1.52,1.84,1.52a1.481,1.481,0,0,0,1.4-1.64c0-2.32-4.24-4.92-9.48-5.68A.244.244,0,0,0-93.24,23.44Zm15.72,13.92a20.172,20.172,0,0,1,3.64,8.6c.32,2,.72,2.44,1.6,2.44,1,0,1.56-.76,1.56-2.2,0-2.68-2.44-6.6-6.44-9.16C-77.36,36.92-77.68,37.16-77.52,37.36Zm-23.2.36c-.36,3.56-1.6,6.28-3.76,8a1.947,1.947,0,0,0-1.04,1.68,1.473,1.473,0,0,0,1.48,1.56c2.36,0,4.08-3.44,4.08-8.16a21.188,21.188,0,0,0-.24-3.08C-100.24,37.48-100.68,37.48-100.72,37.72Zm8.12-4.44c1.24-.48,1.44-.8,1.44-1.16,0-.52-.36-.72-4.24-1.16a97.46,97.46,0,0,1,.24,9.92c0,7.68-.12,10.16-.12,10.92,0,3.48,1.04,4.44,7.64,4.44,4.6,0,6.96-.28,8.2-.68,1.12-.36,1.92-1.08,1.92-1.92A.8.8,0,0,0-78,52.8a.98.98,0,0,1-.72-1.08c0-.8.08-2.36.2-4.64,0-.24-.48-.28-.52-.04-1.2,4.6-1.72,5.68-2.6,6.16-1,.56-2,.64-5.48.64-5.04,0-5.48-.28-5.48-2.36Zm55.76.28V24.12c1.12-.52,1.28-.76,1.28-1,0-.48-.48-.68-3.84-1.12.2,1.72.2,3.64.2,11v1.44l-5.24,1.92V28.44c1.12-.48,1.32-.72,1.32-1.04,0-.44-.6-.72-3.92-1.08A107.264,107.264,0,0,1-46.8,37.2l-2.4.88a17.711,17.711,0,0,1-3,.8l.92,1.24A15.573,15.573,0,0,1-48.8,39l2-.72c0,8.12-.08,11.32-.08,14.28,0,3.36,1.16,4.28,8.96,4.28,6.64,0,8.76-.2,10.44-.72,1.24-.4,1.72-.92,1.72-1.64a.913.913,0,0,0-.68-1c-.48-.16-.64-.4-.64-.96,0-.8.08-2.52.16-3.72,0-.24-.48-.32-.52-.08-.84,3.32-1.64,4.52-2.28,5.04-.68.52-2.12.72-8.04.72-6.24,0-6.68-.56-6.68-2.36V37.4l5.24-1.92c0,9.56-.16,12.96-.16,13.96,0,.64.28.96,1.04.96,1.08,0,1.6-.36,1.6-1.2,0-1.08-.12-4.56-.12-14.6l5.8-2.12a79.218,79.218,0,0,1-.68,10.96c-.2,1.12-.48,1.52-1.12,1.52a25.059,25.059,0,0,1-3.12-.24c-.24-.04-.32.44-.08.52,2.08.76,2.48,1.12,2.6,2.2.08.44.16.48.68.48a3.149,3.149,0,0,0,2.16-.96,5.755,5.755,0,0,0,1.16-2.8,72.778,72.778,0,0,0,.76-11.12c.76-.48.96-.68.96-1,0-.28-.16-.48-.56-.8-1.28-1.04-1.6-1.16-1.84-1.16s-.48.2-1.24,1.48ZM-56.72,48.2c-.88.28-1.72.52-2.6.76a20.082,20.082,0,0,1-2.72.52c1.12,3.16,1.56,3.6,1.96,3.6.36,0,.56-.32.68-1.56a51.916,51.916,0,0,0,10.44-5.68c.2-.12.04-.6-.2-.52-1.8.8-3.52,1.48-5.2,2.08V34.72h5.48c.36,0,.48-.16.48-.36,0-.24-.08-.44-.68-1.04-1.32-1.32-1.64-1.36-1.84-1.36-.24,0-.44.16-1.6,1.76h-1.84v-9C-53.2,24.2-53,24-53,23.68c0-.44-.48-.72-3.88-1.08.16,1.6.16,3.72.16,7.92v3.2h-2.8a12.46,12.46,0,0,1-2.68-.28l.4,1.52a9.734,9.734,0,0,1,2.32-.24h2.76Zm58.04-.8C.84,43.44.68,38.44.6,34.32a3.074,3.074,0,0,0,1.88.52,23.522,23.522,0,0,0,3.68-.72c1.16-.36,2.36-.68,3.4-1.08.64-.24.96-.48.96-1.16,0-.72-.72-1.08-1.84-1.08a3.241,3.241,0,0,0-2.12.72,10.345,10.345,0,0,1-2.6,1.12,10.447,10.447,0,0,1-2.52.56c-.68,0-.8-.08-.8-.52,0-.48,0-1.64.12-3.44a2.46,2.46,0,0,1,.48-1.4A1.567,1.567,0,0,0,1.6,26.8c0-.52-.48-.96-1.44-1.52a6.357,6.357,0,0,0-3.04-.92c-.72,0-1.92.56-1.92,1.08,0,.2.12.32.52.32a2.867,2.867,0,0,1,2.2.88c.44.4.52.96.6,2.76.12,6.12.24,11.12.64,17.64a21.793,21.793,0,0,0-3.4-.32c-3.92,0-7.36,1.36-7.36,4.28,0,2.72,2.76,4.12,6.2,4.12,5.28,0,6.84-2.6,6.76-5.64a28.929,28.929,0,0,1,8.36,4.64,3.009,3.009,0,0,0,1.48.76,1.258,1.258,0,0,0,1.36-1.36,2.539,2.539,0,0,0-1.4-1.76A39.148,39.148,0,0,0,1.32,47.4Zm-2.2,1.56a3.848,3.848,0,0,1-1.08,3.2A5.441,5.441,0,0,1-5.88,53.4c-2.4,0-4.48-.68-4.48-2.4,0-1.68,2.88-2.6,5.24-2.6A18.154,18.154,0,0,1-.88,48.96Zm51-15.8a.77.77,0,0,0,.4.6c3.48,1.96,6.28,6.36,6.28,8.96a.635.635,0,0,1-.6.72c-1.12.16-1.96.24-3.04.36q-.6.06-.6.36c0,.28.12.48.52.52,2.6.32,3.36.68,3.92,1.48a1.208,1.208,0,0,0,1.04.52c1,0,1.52-1.12,1.52-2.64,0-4.64-3.88-9.12-8.6-11.08C50.52,32.76,50.12,32.92,50.12,33.16ZM37.72,52.4a1.044,1.044,0,0,0,1.16-1.04,3.116,3.116,0,0,0-.24-1.24,2.48,2.48,0,0,1-.16-.92,5.153,5.153,0,0,1,.4-1.48,45.405,45.405,0,0,1,3.16-6.8,1.912,1.912,0,0,0,.24-.72.436.436,0,0,0-.44-.4.753.753,0,0,0-.68.44c-1.84,2.92-3.12,5.04-4.36,7.28-.24.44-.48.64-.8.64-.52,0-1.28-.72-1.96-2.16-.88-1.88-1.08-3.92-1.08-6.84a18.657,18.657,0,0,1,.44-4.72,5.085,5.085,0,0,0,.36-1.72c0-.88-.6-1.84-1.88-2.92a4.726,4.726,0,0,0-2.4-1.28c-.32,0-.56.12-.56.36,0,.12.12.28.36.52a4.425,4.425,0,0,1,1.76,3.84c0,1-.04,2.16-.04,3.28,0,6,.68,10.92,4.04,14.28A4.989,4.989,0,0,0,37.72,52.4Zm37.8-25.04a11.909,11.909,0,0,0-.2-1.56c-.04-.24-.56-.16-.56.08-.04,2.28-.76,3.6-2.64,4.56-.88.44-1.24.96-1.24,1.64a1.344,1.344,0,0,0,1.4,1.4c1.88,0,3.28-1.92,3.32-5.12h7.12c-.64,6.68-3.4,9.84-10.8,12-.24.08-.08.6.16.56C80.84,39.6,84.76,36,85.2,28.36h5.08v4.4c0,1.8-.08,2.44-.08,3.12,0,2.36.92,2.96,6.8,2.96a20.964,20.964,0,0,0,5.8-.52c1-.32,1.72-.92,1.72-1.56,0-.44-.16-.8-.56-.88-.56-.16-.68-.28-.68-.76,0-.52.04-1.52.04-2.24a.225.225,0,0,0-.44-.04c-.88,2.76-1.12,3.12-1.8,3.44a10.142,10.142,0,0,1-4.04.48c-4.04,0-4.4-.24-4.4-1.6v-6.8h7.68A21.966,21.966,0,0,1,98.84,32c-.12.2.2.4.4.24q1.68-1.38,2.76-2.4a1.486,1.486,0,0,1,1.32-.6c1.2,0,1.56-.2,1.56-.72,0-.2-.04-.4-.84-1.12-1.68-1.56-1.88-1.6-2.12-1.6-.2,0-.4.12-1.72,1.56H88.92V24.04c1.16-.52,1.4-.8,1.4-1.08,0-.44-.44-.72-4.08-1.12a20.942,20.942,0,0,1,.2,2.76v2.76ZM86.16,54.68H74.24a21.91,21.91,0,0,1-3.52-.28l.4,1.52a16.158,16.158,0,0,1,3.12-.24H104.8c.4,0,.56-.12.56-.36s-.12-.48-1.04-1.2c-1.88-1.6-2.16-1.76-2.36-1.76s-.48.16-2.24,2.32H88.76v-10H101.6c.4,0,.56-.16.56-.36,0-.24-.08-.48-.96-1.16-1.84-1.48-2.12-1.6-2.32-1.6s-.48.12-2.24,2.12H77.8a13.933,13.933,0,0,1-3.12-.28l.4,1.52a13.248,13.248,0,0,1,2.8-.24h8.28Zm50.36-3v1.24c0,.56.28.8,1,.8.96,0,1.44-.28,1.44-1.04,0-.6-.12-2.96-.12-8.16V41.36c.88-.52,1-.76,1-.96s-.08-.44-.68-.92c-1.08-.92-1.32-1.04-1.52-1.04s-.36.12-1.4,1.24h-9.12a25.776,25.776,0,0,0-2.8-1.36,68.055,68.055,0,0,1,.2,7.2c0,5.24-.12,7.28-.12,7.92s.28.84,1.04.84c.96,0,1.4-.24,1.4-1.04V51.68Zm0-1h-9.68V45.92h9.68Zm0-5.76h-9.68V40.68h9.68ZM127,34.8v.64c0,.56.24.76.96.76.96,0,1.48-.28,1.48-.92,0-.56-.12-2.52-.12-7.28V25.12c.88-.56,1.04-.76,1.04-1.04,0-.2-.04-.36-.64-.88-1.16-1-1.4-1.08-1.6-1.08s-.36.08-1.48,1.32h-8.32a12.292,12.292,0,0,0-2.92-1.4c.2,2.64.24,5.72.24,15.36,0,11.72-.2,17.44-.2,19.76,0,.68.28.96,1.04.96,1.08,0,1.6-.4,1.6-1.12,0-2-.04-5.4-.04-16.64V34.8Zm0-1h-8.96V29.48H127Zm0-5.32h-8.96V24.44H127Zm18.84,6.32V54.28c0,.44-.2.64-.68.64-.8,0-2.32-.08-4.4-.24-.24,0-.28.52-.04.56,2.96.56,3.68,1.16,3.8,2.24.04.48.16.52.56.52a3.878,3.878,0,0,0,2.08-.64,2.583,2.583,0,0,0,1.24-2.28c0-1.24-.16-2.4-.16-19.36V25.2c.96-.56,1.08-.76,1.08-1.04,0-.2-.08-.4-.68-.92-1.24-1-1.4-1.08-1.64-1.08-.2,0-.32.08-1.48,1.28h-8.6a16.991,16.991,0,0,0-2.84-1.4,53.891,53.891,0,0,1,.2,5.88c0,4.64-.12,6.52-.12,7.44,0,.64.28.84,1,.84,1,0,1.4-.28,1.4-.96V34.8Zm0-1h-9.28V29.48h9.28Zm0-5.32h-9.28V24.44h9.28Zm17.84,18.96a5.18,5.18,0,1,0,5.16,5.16A5.207,5.207,0,0,0,163.68,47.44Zm0,1.36a3.82,3.82,0,1,1-3.84,3.8A3.824,3.824,0,0,1,163.68,48.8Z" transform="translate(194.64 33.4)" fill="#ededeb"/>
</svg>
