<svg xmlns="http://www.w3.org/2000/svg" width="474.675" height="22.825" viewBox="0 0 474.675 22.825">
  <path id="パス_286" data-name="パス 286" d="M-238.6-12.725h4.9c.225,0,.325-.075.325-.225s-.05-.275-.475-.625c-1.025-.825-1.175-.9-1.3-.9-.15,0-.275.075-1.15,1.125h-2.3v-4.375a29.076,29.076,0,0,0,3.15-1.05c.85.175,1.15.125,1.15-.15,0-.225-.125-.45-1.675-1.55A6.85,6.85,0,0,1-237.7-19.35a30.745,30.745,0,0,1-6.95,2.225c-.15.025-.1.35.05.35a36.638,36.638,0,0,0,4.525-.625v4.05h-3.2a7.773,7.773,0,0,1-1.825-.175l.25.95a7.122,7.122,0,0,1,1.575-.15h2.875a27.852,27.852,0,0,1-4.975,9.4c-.1.125.125.35.225.25A19.918,19.918,0,0,0-239.975-10c-.1,8.15-.25,10.625-.25,11.225,0,.425.15.6.65.6.7,0,1-.25,1-.75s-.025-2.125-.025-8v-3.7a6.228,6.228,0,0,1,2.525,2.775c.3.6.5.8.825.8a.815.815,0,0,0,.775-.9c0-1.275-1.2-2.35-4.125-3.175Zm13.75,10.45c.125.45.225.9.325,1.375C-224.25.425-224.05.7-223.5.7c.5,0,.85-.5.85-1.275,0-1.975-1.7-5.5-5-8.525-.125-.1-.375.075-.275.2A19.641,19.641,0,0,1-225-2.8a73.5,73.5,0,0,1-8.75,1.15,75.08,75.08,0,0,0,5.55-16.775c.7-.2.875-.35.875-.625,0-.325-.6-.575-2.65-1.025A17.661,17.661,0,0,1-230.3-17.2a99.207,99.207,0,0,1-4.225,15.6,5.279,5.279,0,0,1-.65.05c-.5.025-.95.025-1.55,0,.65,2.175.8,2.5,1.025,2.5.25,0,.35-.125.525-.825A69,69,0,0,0-224.85-2.275ZM-206.6-15.8a12.157,12.157,0,0,1,1.35,0c3.825.2,6.6,2.675,6.6,6.475,0,4.875-4.775,7.175-8.95,7.9-.35.075-.425.2-.425.4,0,.15.15.3.425.275,5.125-.275,10.6-2.9,10.6-8.15,0-4.525-3.525-7.8-8.55-7.8A10.375,10.375,0,0,0-212.8-14a8.461,8.461,0,0,0-2.725,6.2,6.1,6.1,0,0,0,.875,3.3,2.575,2.575,0,0,0,2,1.3,3.72,3.72,0,0,0,2.475-1.675,25.07,25.07,0,0,0,3.6-6.625,9.013,9.013,0,0,0,.475-2.45A3.492,3.492,0,0,0-206.6-15.8Zm-.775.1a1.544,1.544,0,0,1,.3,1.05,5.107,5.107,0,0,1-.35,1.8,23.187,23.187,0,0,1-3.45,6.55c-.775,1.025-1.3,1.45-1.75,1.45A1.5,1.5,0,0,1-213.8-5.7a5.094,5.094,0,0,1-.6-2.525,6.976,6.976,0,0,1,2.025-4.95A8.548,8.548,0,0,1-207.375-15.7ZM-171.3-8.325v-1.7c.675-.275.8-.425.8-.6,0-.3-.425-.425-2.425-.625a15.823,15.823,0,0,1,.125,2.925h-7.475a8.957,8.957,0,0,1-1.8-.175l.225.95a9.533,9.533,0,0,1,1.6-.15h7.45V-.625c0,.35-.15.475-.45.475a29.488,29.488,0,0,1-3.2-.2c-.15-.025-.175.325-.025.35,2.1.45,2.65.75,2.75,1.475.025.275.125.3.35.3a2.822,2.822,0,0,0,1.425-.45,1.645,1.645,0,0,0,.75-1.55c0-.825-.1-2.125-.1-5.625V-7.7h3.825c.25,0,.325-.075.325-.25,0-.125-.075-.275-.475-.625-.875-.775-1.1-.9-1.225-.9s-.275.125-1.15,1.15Zm-12.825,4.5V-2.75c0,.4.175.525.625.525.65,0,.95-.175.95-.675,0-.675-.125-3.075-.125-9.75v-4.725c.55-.35.625-.5.625-.65,0-.125-.05-.275-.4-.55-.725-.575-.875-.65-1-.65s-.225.075-.9.8h-3.025a15.11,15.11,0,0,0-1.8-.9c.125,1.5.15,3.15.15,7.725,0,7.125-.1,8.825-.1,9.6,0,.425.15.525.65.525.6,0,.9-.15.9-.625V-3.825Zm0-.625h-3.45V-11h3.45Zm0-7.175h-3.45V-17.8h3.45Zm7.875-.825h-4.05a7.09,7.09,0,0,1-1.725-.175l.25.95a8.678,8.678,0,0,1,1.5-.15h12.725c.25,0,.325-.075.325-.225s-.075-.275-.5-.65c-1.025-.85-1.175-.95-1.325-.95s-.275.1-1.2,1.2h-4.475V-16.2h6.125c.225,0,.325-.1.325-.25,0-.125-.075-.25-.5-.6-1-.825-1.175-.9-1.3-.9-.15,0-.3.075-1.175,1.125h-3.475v-2.55c.725-.275.85-.45.85-.65,0-.275-.3-.425-2.475-.675a24.209,24.209,0,0,1,.1,2.875v1h-3.075a8.015,8.015,0,0,1-1.7-.175l.225.95a6.9,6.9,0,0,1,1.5-.15h3.05Zm-3.35,6.375a6.124,6.124,0,0,1,1.75,3.025c.2.775.45.925.85.925.5,0,.825-.475.825-1.1,0-1.05-.95-2.275-3.25-3.1C-179.575-6.375-179.7-6.175-179.6-6.075Zm31.175,4V-1.3c0,.35.175.5.625.5.6,0,.9-.175.9-.65,0-.375-.075-1.85-.075-5.1V-8.525c.55-.325.625-.475.625-.6s-.05-.275-.425-.575c-.675-.575-.825-.65-.95-.65s-.225.075-.875.775h-5.7a16.109,16.109,0,0,0-1.75-.85,42.534,42.534,0,0,1,.125,4.5c0,3.275-.075,4.55-.075,4.95s.175.525.65.525c.6,0,.875-.15.875-.65v-.975Zm0-.625h-6.05V-5.675h6.05Zm0-3.6h-6.05V-8.95h6.05Zm-5.95-6.325v.4c0,.35.15.475.6.475.6,0,.925-.175.925-.575,0-.35-.075-1.575-.075-4.55v-1.8c.55-.35.65-.475.65-.65,0-.125-.025-.225-.4-.55-.725-.625-.875-.675-1-.675s-.225.05-.925.825h-5.2a7.682,7.682,0,0,0-1.825-.875c.125,1.65.15,3.575.15,9.6,0,7.325-.125,10.9-.125,12.35,0,.425.175.6.65.6.675,0,1-.25,1-.7,0-1.25-.025-3.375-.025-10.4v-3.475Zm0-.625h-5.6v-2.7h5.6Zm0-3.325h-5.6V-19.1h5.6Zm11.775,3.95V-.45c0,.275-.125.4-.425.4-.5,0-1.45-.05-2.75-.15-.15,0-.175.325-.025.35,1.85.35,2.3.725,2.375,1.4.025.3.1.325.35.325a2.424,2.424,0,0,0,1.3-.4A1.615,1.615,0,0,0-141,.05c0-.775-.1-1.5-.1-12.1v-6.575c.6-.35.675-.475.675-.65,0-.125-.05-.25-.425-.575-.775-.625-.875-.675-1.025-.675-.125,0-.2.05-.925.8h-5.375a10.619,10.619,0,0,0-1.775-.875,33.685,33.685,0,0,1,.125,3.675c0,2.9-.075,4.075-.075,4.65,0,.4.175.525.625.525.625,0,.875-.175.875-.6v-.275Zm0-.625h-5.8v-2.7h5.8Zm0-3.325h-5.8V-19.1h5.8Zm14.475,6.15c.9-1.275,1.675-2.6,2.475-4a30.876,30.876,0,0,0,4.3-1.325c.625-.25.8-.4.8-.775,0-.325-.325-.625-.825-.625a2.8,2.8,0,0,0-1.275.45,11.851,11.851,0,0,1-2.3.95c.2-.375.425-.8.575-1.075a1.916,1.916,0,0,1,.65-.8.6.6,0,0,0,.3-.55c0-.5-.675-.925-1.1-1.125A3.487,3.487,0,0,0-126-19.7a2.02,2.02,0,0,0-.925.225.5.5,0,0,0-.275.375c0,.1.1.125.275.125,1.075,0,1.55.275,1.55.675a3.572,3.572,0,0,1-.175.925,15.662,15.662,0,0,1-.75,1.9,15.507,15.507,0,0,1-3.1.4,2.516,2.516,0,0,1-2.1-.725.6.6,0,0,0-.4-.225c-.125,0-.225.175-.225.325a.848.848,0,0,0,.125.35A2.762,2.762,0,0,0-129.3-14a20.616,20.616,0,0,0,2.4-.2,27.213,27.213,0,0,1-1.8,3,26.118,26.118,0,0,1-2.525,3.025c-.55.575-.725.825-.725,1.225a.731.731,0,0,0,.675.775.942.942,0,0,0,.625-.375,16.854,16.854,0,0,1,2.25-2.675,5,5,0,0,1,3.175-1.65c.775,0,1.25.45,1.225,2.175v1.05c-2.35,1.425-4.35,2.775-4.35,5.075,0,1.8,1.225,3.05,5.2,3.05,2.025,0,3.5-.05,4.725-.15,1.1-.1,1.45-.35,1.45-.8,0-.5-.625-1-1.525-1a3.968,3.968,0,0,0-.95.15,11.563,11.563,0,0,1-1.375.25,35.877,35.877,0,0,1-3.775.2c-2.025,0-2.9-.725-2.9-1.85,0-1.8,2.05-2.95,3.475-3.75-.025,1.4-.075,2.35-.075,3.125a.693.693,0,0,0,.7.675c.325,0,.675-.275.675-.95,0-1.425-.025-2.55-.025-3.6.75-.425,1.525-.875,2.2-1.25,1.775-.95,3.35-1.7,4.55-2.2a2.568,2.568,0,0,1,.75-.2.507.507,0,0,0,.5-.525c0-.475-.375-.775-1.025-1.175a3.761,3.761,0,0,0-1.85-.6c-.525,0-1,.175-1,.4,0,.125.075.125.225.15a2,2,0,0,1,.875.3c.15.1.225.2.225.325,0,.15-.05.275-.275.425-1.45.975-3.325,2.1-5.175,3.2,0-.325-.025-.725-.05-1.025a2.085,2.085,0,0,0-2.225-2.225,5.511,5.511,0,0,0-3.05,1.25Zm30.85,3.9h-7.85a9.15,9.15,0,0,1-2-.175l.225.95a11.4,11.4,0,0,1,1.8-.15h6.7A24.51,24.51,0,0,1-107.575.55c-.15.05-.025.4.125.35a22.815,22.815,0,0,0,10.3-5.925l-.1,2.75c-.075,1.825-.125,3.15-.125,3.55,0,.425.225.6.675.6.7,0,1.025-.225,1.025-.725s-.075-2.25-.225-6.8a19.765,19.765,0,0,0,4.45,4.1A18.877,18.877,0,0,0-87.325.425a2.719,2.719,0,0,0,.85.2A.462.462,0,0,0-86.05.35c.35-.875.525-1.025,1.225-1.225.125-.025.15-.225.025-.25a19.485,19.485,0,0,1-6.125-1.65A16.548,16.548,0,0,1-95.475-5.9h9.75c.225,0,.325-.075.325-.225s-.1-.275-.6-.7c-1.1-.9-1.225-.975-1.375-.975-.125,0-.25.075-1.325,1.275h-7.1v-1.45c.7-.25.85-.4.85-.6,0-.25-.35-.45-2.45-.625a14.579,14.579,0,0,1,.125,2.4Zm-1.35-11.15a13.809,13.809,0,0,0-1.725-.85c.1,1.175.125,2,.125,4.25,0,3.5-.1,4.65-.1,5.1,0,.375.175.5.6.5.6,0,.9-.175.9-.625v-.65h4.9v.6c0,.4.175.5.65.5.55,0,.85-.15.85-.6,0-.375-.075-1.75-.075-5.075V-16.6c.55-.35.625-.45.625-.6s-.05-.25-.4-.575c-.675-.575-.8-.65-.925-.65s-.225.075-.875.75H-96.75a13.254,13.254,0,0,0,1.125-1.775c.7-.125.9-.25.9-.5s-.175-.375-2.3-.925a8.087,8.087,0,0,1-.125,1.5c-.075.525-.175,1.075-.325,1.7Zm4.7,7.1h-4.9v-3h4.9Zm0-3.625h-4.9v-2.85h4.9Zm2.375,1.05a10.1,10.1,0,0,1,3.85,3.3c.425.575.725.775,1.05.775a.772.772,0,0,0,.725-.85c0-1.3-1.8-2.65-5.5-3.5C-91.575-13.45-91.675-13.225-91.55-13.15ZM-106.6-18.7a8.642,8.642,0,0,1,2.85,3.25c.35.7.55.875.875.875.5,0,.85-.3.85-1.025,0-1.2-1.575-2.5-4.4-3.4C-106.575-19.05-106.725-18.8-106.6-18.7Zm15.225,4.4A20.346,20.346,0,0,0-86.7-17.65c.8.125,1.025,0,1.025-.225,0-.2-.25-.5-1.875-1.575a13.8,13.8,0,0,1-1.075,1.675,20.107,20.107,0,0,1-2.95,3.15C-91.7-14.525-91.5-14.225-91.375-14.3Zm-9.6,1.225a34.576,34.576,0,0,1-4.9,2.25,8.494,8.494,0,0,1-1.275.325c.775,1.825,1.025,2.15,1.175,2.15.25,0,.375-.175.4-.925a22.008,22.008,0,0,0,4.75-3.5C-100.725-12.875-100.85-13.15-100.975-13.075Zm30.95,13.1A13.409,13.409,0,0,0-60.1-5.225a.719.719,0,0,0,.175-.375.251.251,0,0,0-.25-.25.565.565,0,0,0-.375.175c-2.6,2.45-6.075,4.35-9.375,4.35A2.781,2.781,0,0,1-71.9-1.85a2.9,2.9,0,0,1-.7-2.325c0-1.175.1-3.7.225-5.85.1-1.625.225-3.3.425-4.925.05-.6.175-.775.325-.925a.957.957,0,0,0,.35-.725c0-.5-.35-.925-1.025-1.425a3.172,3.172,0,0,0-1.75-.775,1.437,1.437,0,0,0-.6.1c-.225.125-.25.175-.25.3,0,.15.075.2.35.275.95.275,1.15.925,1.125,1.85-.05,2.15-.1,4.175-.2,6.175-.1,2.225-.2,4.825-.2,6.225C-73.825-.9-72.275.025-70.025.025Zm25.7-14.1a24.159,24.159,0,0,0,4.2-1.275.709.709,0,0,0,.475-.625c0-.425-.4-.6-.825-.6a3.928,3.928,0,0,0-1.4.525,14.185,14.185,0,0,1-2.375.9c.05-.55.075-1.075.15-1.575a.971.971,0,0,1,.35-.75.592.592,0,0,0,.275-.475c0-.75-1.6-1.65-2.425-1.65-.5,0-1.075.2-1.075.5,0,.175.125.225.35.225.825.025,1.25.425,1.25,1.125,0,1.125,0,1.825-.025,2.825a14.222,14.222,0,0,1-2.95.4,2.087,2.087,0,0,1-1.95-.8.428.428,0,0,0-.325-.175.289.289,0,0,0-.25.25A.559.559,0,0,0-50.8-15a2.48,2.48,0,0,0,2.625,1.475,18.946,18.946,0,0,0,2.75-.3c-.025,1.375-.05,2.375-.1,3.45a2.129,2.129,0,0,0-1.375-.45A2.6,2.6,0,0,0-49.4-8a2.435,2.435,0,0,0,2.65,2.625,7.041,7.041,0,0,0-.9,2.925,2.55,2.55,0,0,0,1.775,2.3A11.972,11.972,0,0,0-41.25.425a10.877,10.877,0,0,0,5.325-1.2,2.189,2.189,0,0,0,1.275-1.85,3.605,3.605,0,0,0-.2-1.325,30.3,30.3,0,0,1-1.525-8c0-1.3.325-1.6.875-1.6a2.273,2.273,0,0,1,1.55.85,3.378,3.378,0,0,1,1.05,1.775.48.48,0,0,1-.275.45A8.786,8.786,0,0,1-34.7-9.75c-.175.075-.225.125-.225.25a.226.226,0,0,0,.275.225A14.558,14.558,0,0,1-33-9.45a.814.814,0,0,1,.575.125.952.952,0,0,0,.55.175c.375,0,.625-.325.625-1.025A4.45,4.45,0,0,0-32.625-12.9,3.945,3.945,0,0,0-35.3-14.175c-1.125,0-1.825.675-1.825,2.4a58.484,58.484,0,0,0,.85,7.55,4.994,4.994,0,0,1,.05.85,1.724,1.724,0,0,1-.95,1.5,11.893,11.893,0,0,1-4.95,1,10.779,10.779,0,0,1-3.275-.4c-.85-.325-1.3-.8-1.3-1.55A8.48,8.48,0,0,1-45.55-5.8a3.154,3.154,0,0,0,1.025-2.625,4.088,4.088,0,0,0-.05-.55C-44.475-10.55-44.425-12.375-44.325-14.075ZM-46.85-10.15c.75,0,1.275.6,1.275,1.725,0,1.175-.45,1.925-1.425,1.925a1.513,1.513,0,0,1-1.5-1.6A1.867,1.867,0,0,1-46.85-10.15Zm22.1,6.325a.335.335,0,0,0,.2.325A9.131,9.131,0,0,1-20.7.85c.3.675.65.9,1.15.9A1.147,1.147,0,0,0-18.475.5a3.648,3.648,0,0,0-1.65-2.65,9.85,9.85,0,0,0-4.1-1.875C-24.475-4.075-24.75-4-24.75-3.825Zm33.65-8.9h4.9c.225,0,.325-.075.325-.225s-.05-.275-.475-.625c-1.025-.825-1.175-.9-1.3-.9-.15,0-.275.075-1.15,1.125H8.9v-4.375a29.077,29.077,0,0,0,3.15-1.05c.85.175,1.15.125,1.15-.15,0-.225-.125-.45-1.675-1.55A6.85,6.85,0,0,1,9.8-19.35a30.745,30.745,0,0,1-6.95,2.225c-.15.025-.1.35.05.35A36.638,36.638,0,0,0,7.425-17.4v4.05h-3.2A7.773,7.773,0,0,1,2.4-13.525l.25.95a7.122,7.122,0,0,1,1.575-.15H7.1a27.852,27.852,0,0,1-4.975,9.4c-.1.125.125.35.225.25A19.918,19.918,0,0,0,7.525-10c-.1,8.15-.25,10.625-.25,11.225,0,.425.15.6.65.6.7,0,1-.25,1-.75S8.9-1.05,8.9-6.925v-3.7A6.228,6.228,0,0,1,11.425-7.85c.3.6.5.8.825.8a.815.815,0,0,0,.775-.9c0-1.275-1.2-2.35-4.125-3.175ZM22.65-2.275c.125.45.225.9.325,1.375C23.25.425,23.45.7,24,.7c.5,0,.85-.5.85-1.275,0-1.975-1.7-5.5-5-8.525-.125-.1-.375.075-.275.2A19.641,19.641,0,0,1,22.5-2.8a73.5,73.5,0,0,1-8.75,1.15A75.08,75.08,0,0,0,19.3-18.425c.7-.2.875-.35.875-.625,0-.325-.6-.575-2.65-1.025A17.661,17.661,0,0,1,17.2-17.2,99.207,99.207,0,0,1,12.975-1.6a5.279,5.279,0,0,1-.65.05c-.5.025-.95.025-1.55,0,.65,2.175.8,2.5,1.025,2.5.25,0,.35-.125.525-.825A69,69,0,0,0,22.65-2.275ZM40.9-15.8a12.157,12.157,0,0,1,1.35,0c3.825.2,6.6,2.675,6.6,6.475,0,4.875-4.775,7.175-8.95,7.9-.35.075-.425.2-.425.4,0,.15.15.3.425.275,5.125-.275,10.6-2.9,10.6-8.15,0-4.525-3.525-7.8-8.55-7.8A10.375,10.375,0,0,0,34.7-14a8.461,8.461,0,0,0-2.725,6.2,6.1,6.1,0,0,0,.875,3.3,2.575,2.575,0,0,0,2,1.3,3.72,3.72,0,0,0,2.475-1.675,25.07,25.07,0,0,0,3.6-6.625,9.013,9.013,0,0,0,.475-2.45A3.492,3.492,0,0,0,40.9-15.8Zm-.775.1a1.544,1.544,0,0,1,.3,1.05,5.107,5.107,0,0,1-.35,1.8,23.187,23.187,0,0,1-3.45,6.55c-.775,1.025-1.3,1.45-1.75,1.45A1.5,1.5,0,0,1,33.7-5.7a5.094,5.094,0,0,1-.6-2.525,6.976,6.976,0,0,1,2.025-4.95A8.548,8.548,0,0,1,40.125-15.7Zm25.35-4.025a10.767,10.767,0,0,1,4,3.35c.625.85.825.95,1.15.95A.926.926,0,0,0,71.5-16.45c0-1.45-2.65-3.075-5.925-3.55A.152.152,0,0,0,65.475-19.725Zm9.825,8.7A12.607,12.607,0,0,1,77.575-5.65c.2,1.25.45,1.525,1,1.525.625,0,.975-.475.975-1.375,0-1.675-1.525-4.125-4.025-5.725C75.4-11.3,75.2-11.15,75.3-11.025ZM60.8-10.8a7,7,0,0,1-2.35,5,1.217,1.217,0,0,0-.65,1.05.92.92,0,0,0,.925.975c1.475,0,2.55-2.15,2.55-5.1a13.243,13.243,0,0,0-.15-1.925C61.1-10.95,60.825-10.95,60.8-10.8Zm5.075-2.775c.775-.3.9-.5.9-.725,0-.325-.225-.45-2.65-.725a60.913,60.913,0,0,1,.15,6.2c0,4.8-.075,6.35-.075,6.825,0,2.175.65,2.775,4.775,2.775A19.046,19.046,0,0,0,74.1.35c.7-.225,1.2-.675,1.2-1.2a.5.5,0,0,0-.3-.525.613.613,0,0,1-.45-.675c0-.5.05-1.475.125-2.9,0-.15-.3-.175-.325-.025-.75,2.875-1.075,3.55-1.625,3.85-.625.35-1.25.4-3.425.4-3.15,0-3.425-.175-3.425-1.475Zm34.85.175v-5.9c.7-.325.8-.475.8-.625,0-.3-.3-.425-2.4-.7.125,1.075.125,2.275.125,6.875v.9l-3.275,1.2V-16.6c.7-.3.825-.45.825-.65,0-.275-.375-.45-2.45-.675a67.04,67.04,0,0,1,.15,6.8l-1.5.55a11.069,11.069,0,0,1-1.875.5L91.7-9.3a9.733,9.733,0,0,1,1.55-.7l1.25-.45c0,5.075-.05,7.075-.05,8.925,0,2.1.725,2.675,5.6,2.675,4.15,0,5.475-.125,6.525-.45.775-.25,1.075-.575,1.075-1.025a.571.571,0,0,0-.425-.625c-.3-.1-.4-.25-.4-.6,0-.5.05-1.575.1-2.325,0-.15-.3-.2-.325-.05-.525,2.075-1.025,2.825-1.425,3.15-.425.325-1.325.45-5.025.45-3.9,0-4.175-.35-4.175-1.475V-11l3.275-1.2c0,5.975-.1,8.1-.1,8.725,0,.4.175.6.65.6.675,0,1-.225,1-.75,0-.675-.075-2.85-.075-9.125l3.625-1.325a49.511,49.511,0,0,1-.425,6.85c-.125.7-.3.95-.7.95a15.661,15.661,0,0,1-1.95-.15c-.15-.025-.2.275-.05.325,1.3.475,1.55.7,1.625,1.375.05.275.1.3.425.3a1.968,1.968,0,0,0,1.35-.6,3.6,3.6,0,0,0,.725-1.75,45.485,45.485,0,0,0,.475-6.95c.475-.3.6-.425.6-.625,0-.175-.1-.3-.35-.5-.8-.65-1-.725-1.15-.725s-.3.125-.775.925ZM88.3-4.25c-.55.175-1.075.325-1.625.475a12.552,12.552,0,0,1-1.7.325c.7,1.975.975,2.25,1.225,2.25.225,0,.35-.2.425-.975a32.448,32.448,0,0,0,6.525-3.55c.125-.075.025-.375-.125-.325-1.125.5-2.2.925-3.25,1.3v-7.925H93.2c.225,0,.3-.1.3-.225,0-.15-.05-.275-.425-.65-.825-.825-1.025-.85-1.15-.85-.15,0-.275.1-1,1.1h-1.15v-5.625c.725-.325.85-.45.85-.65,0-.275-.3-.45-2.425-.675.1,1,.1,2.325.1,4.95v2H86.55a7.787,7.787,0,0,1-1.675-.175l.25.95a6.084,6.084,0,0,1,1.45-.15H88.3Zm36.275-.5c-.3-2.475-.4-5.6-.45-8.175a1.922,1.922,0,0,0,1.175.325,14.7,14.7,0,0,0,2.3-.45c.725-.225,1.475-.425,2.125-.675.4-.15.6-.3.6-.725,0-.45-.45-.675-1.15-.675a2.025,2.025,0,0,0-1.325.45,6.465,6.465,0,0,1-1.625.7,6.529,6.529,0,0,1-1.575.35c-.425,0-.5-.05-.5-.325,0-.3,0-1.025.075-2.15a1.538,1.538,0,0,1,.3-.875.979.979,0,0,0,.225-.65c0-.325-.3-.6-.9-.95a3.973,3.973,0,0,0-1.9-.575c-.45,0-1.2.35-1.2.675,0,.125.075.2.325.2a1.792,1.792,0,0,1,1.375.55c.275.25.325.6.375,1.725.075,3.825.15,6.95.4,11.025a13.621,13.621,0,0,0-2.125-.2c-2.45,0-4.6.85-4.6,2.675,0,1.7,1.725,2.575,3.875,2.575,3.3,0,4.275-1.625,4.225-3.525a18.081,18.081,0,0,1,5.225,2.9,1.88,1.88,0,0,0,.925.475.786.786,0,0,0,.85-.85,1.587,1.587,0,0,0-.875-1.1A24.468,24.468,0,0,0,124.575-4.75Zm-1.375.975a2.4,2.4,0,0,1-.675,2,3.4,3.4,0,0,1-2.45.775c-1.5,0-2.8-.425-2.8-1.5,0-1.05,1.8-1.625,3.275-1.625A11.346,11.346,0,0,1,123.2-3.775Zm31.875-9.875a.482.482,0,0,0,.25.375c2.175,1.225,3.925,3.975,3.925,5.6a.4.4,0,0,1-.375.45c-.7.1-1.225.15-1.9.225q-.375.037-.375.225c0,.175.075.3.325.325,1.625.2,2.1.425,2.45.925a.755.755,0,0,0,.65.325c.625,0,.95-.7.95-1.65,0-2.9-2.425-5.7-5.375-6.925C155.325-13.9,155.075-13.8,155.075-13.65Zm-7.75,12.025a.652.652,0,0,0,.725-.65,1.947,1.947,0,0,0-.15-.775,1.55,1.55,0,0,1-.1-.575,3.221,3.221,0,0,1,.25-.925,28.379,28.379,0,0,1,1.975-4.25,1.2,1.2,0,0,0,.15-.45.273.273,0,0,0-.275-.25.471.471,0,0,0-.425.275c-1.15,1.825-1.95,3.15-2.725,4.55-.15.275-.3.4-.5.4-.325,0-.8-.45-1.225-1.35A9.719,9.719,0,0,1,144.35-9.9a11.661,11.661,0,0,1,.275-2.95,3.178,3.178,0,0,0,.225-1.075,2.627,2.627,0,0,0-1.175-1.825,2.953,2.953,0,0,0-1.5-.8c-.2,0-.35.075-.35.225,0,.075.075.175.225.325a2.766,2.766,0,0,1,1.1,2.4c0,.625-.025,1.35-.025,2.05,0,3.75.425,6.825,2.525,8.925A3.118,3.118,0,0,0,147.325-1.625Zm23.625-15.65a7.443,7.443,0,0,0-.125-.975c-.025-.15-.35-.1-.35.05a2.828,2.828,0,0,1-1.65,2.85c-.55.275-.775.6-.775,1.025a.84.84,0,0,0,.875.875c1.175,0,2.05-1.2,2.075-3.2h4.45c-.4,4.175-2.125,6.15-6.75,7.5-.15.05-.05.375.1.35,5.475-.825,7.925-3.075,8.2-7.85h3.175v2.75c0,1.125-.05,1.525-.05,1.95,0,1.475.575,1.85,4.25,1.85A13.1,13.1,0,0,0,188-10.425c.625-.2,1.075-.575,1.075-.975,0-.275-.1-.5-.35-.55-.35-.1-.425-.175-.425-.475,0-.325.025-.95.025-1.4a.141.141,0,0,0-.275-.025c-.55,1.725-.7,1.95-1.125,2.15a6.339,6.339,0,0,1-2.525.3c-2.525,0-2.75-.15-2.75-1v-4.25h4.8a13.728,13.728,0,0,1-.925,2.275c-.075.125.125.25.25.15q1.05-.862,1.725-1.5a.929.929,0,0,1,.825-.375c.75,0,.975-.125.975-.45,0-.125-.025-.25-.525-.7-1.05-.975-1.175-1-1.325-1-.125,0-.25.075-1.075.975h-7.05V-19.35c.725-.325.875-.5.875-.675,0-.275-.275-.45-2.55-.7A13.088,13.088,0,0,1,177.775-19v1.725ZM177.6-.2h-7.45a13.693,13.693,0,0,1-2.2-.175l.25.95a10.1,10.1,0,0,1,1.95-.15h19.1c.25,0,.35-.075.35-.225s-.075-.3-.65-.75c-1.175-1-1.35-1.1-1.475-1.1s-.3.1-1.4,1.45h-6.85V-6.45h8.025c.25,0,.35-.1.35-.225,0-.15-.05-.3-.6-.725-1.15-.925-1.325-1-1.45-1s-.3.075-1.4,1.325H172.375a8.708,8.708,0,0,1-1.95-.175l.25.95a8.28,8.28,0,0,1,1.75-.15H177.6Zm31.475-1.875V-1.3c0,.35.175.5.625.5.6,0,.9-.175.9-.65,0-.375-.075-1.85-.075-5.1V-8.525c.55-.325.625-.475.625-.6s-.05-.275-.425-.575c-.675-.575-.825-.65-.95-.65s-.225.075-.875.775h-5.7a16.109,16.109,0,0,0-1.75-.85,42.534,42.534,0,0,1,.125,4.5c0,3.275-.075,4.55-.075,4.95s.175.525.65.525c.6,0,.875-.15.875-.65v-.975Zm0-.625h-6.05V-5.675h6.05Zm0-3.6h-6.05V-8.95h6.05Zm-5.95-6.325v.4c0,.35.15.475.6.475.6,0,.925-.175.925-.575,0-.35-.075-1.575-.075-4.55v-1.8c.55-.35.65-.475.65-.65,0-.125-.025-.225-.4-.55-.725-.625-.875-.675-1-.675s-.225.05-.925.825h-5.2a7.682,7.682,0,0,0-1.825-.875c.125,1.65.15,3.575.15,9.6,0,7.325-.125,10.9-.125,12.35,0,.425.175.6.65.6.675,0,1-.25,1-.7,0-1.25-.025-3.375-.025-10.4v-3.475Zm0-.625h-5.6v-2.7h5.6Zm0-3.325h-5.6V-19.1h5.6Zm11.775,3.95V-.45c0,.275-.125.4-.425.4-.5,0-1.45-.05-2.75-.15-.15,0-.175.325-.025.35,1.85.35,2.3.725,2.375,1.4.025.3.1.325.35.325a2.424,2.424,0,0,0,1.3-.4A1.615,1.615,0,0,0,216.5.05c0-.775-.1-1.5-.1-12.1v-6.575c.6-.35.675-.475.675-.65,0-.125-.05-.25-.425-.575-.775-.625-.875-.675-1.025-.675-.125,0-.2.05-.925.8h-5.375a10.619,10.619,0,0,0-1.775-.875,33.685,33.685,0,0,1,.125,3.675c0,2.9-.075,4.075-.075,4.65,0,.4.175.525.625.525.625,0,.875-.175.875-.6v-.275Zm0-.625h-5.8v-2.7h5.8Zm0-3.325h-5.8V-19.1h5.8Zm11.15,11.85A3.254,3.254,0,0,0,222.8-1.5a3.276,3.276,0,0,0,3.25,3.25,3.254,3.254,0,0,0,3.225-3.25A3.233,3.233,0,0,0,226.05-4.725Zm0,.85A2.39,2.39,0,0,1,228.425-1.5,2.4,2.4,0,0,1,226.05.9a2.4,2.4,0,0,1-2.4-2.4A2.4,2.4,0,0,1,226.05-3.875Z" transform="translate(245.4 20.875)" fill="#fff"/>
</svg>
