<svg id="グループ_38" data-name="グループ 38" xmlns="http://www.w3.org/2000/svg" width="223.901" height="75.282" viewBox="0 0 223.901 75.282">
  <path id="パス_109" data-name="パス 109" d="M118.9,54.019c1.511,6.38,6.043,13.807,12.673,15.7.168.033.252.1.252.132,0,.262-2.8.556-3.553,1.439a.421.421,0,0,1-.28.164c-.727,0-7.749-5.758-9.4-16.718-.924,6.968-4.729,14.721-12.366,17.34a3.132,3.132,0,0,1-.867.229c-.113,0-.14-.033-.14-.066,0-.132.363-.426.811-.622,6.378-2.977,10.015-10.96,10.8-17.6h-1.315c-1.538,0-5.092.066-7.582.36h-.028c-.532,0-1.4-1.276-1.4-1.7a85.982,85.982,0,0,0,9.12.524h1.287c.057-.589.085-1.146.085-1.7,0-5.463-.085-6.379-.28-7.688a.411.411,0,0,1-.028-.163c0-.033.028-.033.056-.033,1.035,0,3.525.687,3.525,1.407,0,.327-.336.59-.755.785-.56.262-.644.1-.644,2,0,1.308-.028,2.518-.056,3.828,0,.523-.028,1.047-.056,1.571h6.686a.566.566,0,0,0,.476-.294c.168-.327,1.175-2.061,1.567-2.061.084,0,.14.032.2.032.9.36,2.518,2.159,2.518,2.748,0,.2-.14.393-.616.393Z" transform="translate(-105.037 -43.43)" fill="#fff"/>
  <path id="パス_112" data-name="パス 112" d="M146.746,72.433a.258.258,0,0,1-.27-.251c0-.277.458-.641.73-.812,6.529-4.224,9.454-14.287,9.454-22.385v-.13a26.8,26.8,0,0,0-.25-3.7.466.466,0,0,1-.03-.193.25.25,0,0,1,.242-.251c.228,0,3.793.543,3.793,1.69a.882.882,0,0,1-.418.683v.56c0,8.867,4.422,19.634,11.823,22.3.165.064.347.135.347.338,0,.25-.277.3-1.02.444a4.955,4.955,0,0,0-2.491.918.608.608,0,0,1-.45.231c-1.008,0-9.054-7.553-9.054-22.629,0-.541.019-1.078.042-1.637-.144.175-.185.514-.2,1.509-.217,17.93-11.078,23.314-12.243,23.314M156.77,45.093a26.041,26.041,0,0,1,.26,3.763v.13c0,8.2-2.976,18.4-9.625,22.7a2.573,2.573,0,0,0-.345.26c1.86-.782,11.352-5.71,11.558-22.829h0c.027-1.565.126-1.739.669-2.017l.283-.144.007.307,0,.093c-.026.655-.052,1.275-.052,1.9,0,15.04,8.02,22.125,8.694,22.259a.256.256,0,0,0,.156-.1,5.031,5.031,0,0,1,2.706-1.042c.172-.033.368-.07.519-.1-4.542-1.682-7.349-5.9-8.906-9.15a32.282,32.282,0,0,1-3.064-13.465v-.751l.079-.055c.155-.109.34-.274.34-.438,0-.618-2.518-1.22-3.274-1.308" transform="translate(-115.129 -43.697)" fill="#fff"/>
  <path id="パス_114" data-name="パス 114" d="M192.812,72.466c-.535,0-.576-.242-.576-.316,0-.1,0-.417,1.388-.863,8.551-2.7,9.215-9.789,9.215-11.9,0-4.37-2.5-9.074-7.984-9.074-.205,0-.415.014-.617.031a7.6,7.6,0,0,1,.886,4.2c0,7.118-4.868,14.647-7.487,14.647-1.095,0-1.666-1.187-2.327-2.564-.261-.542-.53-1.1-.854-1.648a5.907,5.907,0,0,1-.7-3.072,15.17,15.17,0,0,1,2.839-8.4,10.468,10.468,0,0,1,8.62-4.64c4.725,0,9.81,3.335,9.81,10.655,0,9.845-9.522,12.944-12.216,12.944m-.113-.376a.965.965,0,0,0,.113.006c2.612,0,11.845-3.011,11.845-12.574,0-4.953-2.953-10.284-9.439-10.284-7.14,0-11.089,7.493-11.089,12.672a5.56,5.56,0,0,0,.643,2.88c.335.562.608,1.131.872,1.681.631,1.315,1.131,2.354,1.992,2.354,2.237,0,7.117-7.167,7.117-14.276,0-2.063-.393-3.676-1.025-4.208l-.337-.283.437-.044c.316-.031.673-.067,1.026-.067,5.74,0,8.354,4.9,8.354,9.444,0,2.172-.683,9.475-9.473,12.25a4.055,4.055,0,0,0-1.037.45m-4.782-5.677c-1.521,0-2.759-2.357-2.759-5.256,0-5.469,3.683-9.65,7.149-10.808l.059-.009a.431.431,0,0,0,.157-.02,1.081,1.081,0,0,1,.346-.045c.883,0,1.277.955,1.277,3.1,0,6-4.116,13.042-6.228,13.042m4.479-15.7c-3.335,1.13-6.868,5.167-6.868,10.447,0,2.922,1.236,4.886,2.389,4.886,1.7,0,5.858-6.764,5.858-12.672,0-2.727-.659-2.727-.906-2.727a.711.711,0,0,0-.227.026.7.7,0,0,1-.245.04" transform="translate(-124.25 -44.712)" fill="#fff"/>
  <path id="パス_116" data-name="パス 116" d="M118.477,139.883c-.785,0-1.439-1.258-2-3.846l-.025-.115a7.532,7.532,0,0,1-.126-.853c-.036-.32-.072-.651-.147-1.023-.313-1.4-.76-3.271-1.366-5.713-1.41.587-2.845,1.229-4.381,1.96a8.056,8.056,0,0,0-1,.584,2.539,2.539,0,0,1-1.589.565,8.343,8.343,0,0,1-2.935-.661,2.341,2.341,0,0,1-1.212-1.858.46.46,0,0,1,.521-.506,1.991,1.991,0,0,1,.733.154,5.889,5.889,0,0,0,1.8.27c1.2,0,3.274-.624,7.631-2.294-.363-1.4-.748-2.849-1.11-4.189-3.743,1.488-4.169,1.561-4.92,1.561a2.335,2.335,0,0,1-2.575-2.026c0-.379.251-.435.4-.435a.917.917,0,0,1,.278.054l.076.023c1.408.644,4.555-.46,6.189-1.131-.059-.208-.122-.409-.185-.606-.057-.181-.113-.36-.163-.537-.923-3.129-1.23-4.032-2.146-4.032a.88.88,0,0,0-.279.028l-.054.008a.509.509,0,0,0-.1.014.893.893,0,0,1-.171.021c-.451,0-.612-.262-.612-.506a1.643,1.643,0,0,1,1.73-1.354c.987,0,3.3.749,3.3,2.2a4.679,4.679,0,0,1-.063.663l-.017.148a4.921,4.921,0,0,0-.042.566,6.539,6.539,0,0,0,.252,1.583l.238,1.083c.357-.159.681-.306.959-.432l.4-.181a3.067,3.067,0,0,0,.715-.467A2.743,2.743,0,0,1,118,117.89h.381c1.572,0,2.424.166,2.424,1.036,0,.506-.43,1.107-1.387,1.314a34.751,34.751,0,0,0-4.535,1.524c.264,1.234.582,2.673.968,4.185.56-.222,1.119-.438,1.663-.649.77-.3,1.51-.584,2.185-.86a3.719,3.719,0,0,0,1.188-.694,1.878,1.878,0,0,1,1.541-.451h.181c2.824,0,3.391.531,3.391,1.389a1.373,1.373,0,0,1-1.479,1.248c-2.362.036-3.918.138-8.212,1.8a75.076,75.076,0,0,0,2.4,7.482,8.8,8.8,0,0,1,.587,3.035c0,1.477-.576,1.636-.823,1.636m-3.405-12.065.052.212c.634,2.549,1.1,4.493,1.422,5.938.08.392.119.747.153,1.06a7.23,7.23,0,0,0,.119.81l.026.119c.695,3.2,1.373,3.55,1.633,3.55s.446-.506.446-1.26a8.4,8.4,0,0,0-.562-2.9,76.465,76.465,0,0,1-2.453-7.684l-.044-.163.157-.062c4.475-1.744,6.066-1.849,8.495-1.885.73-.032,1.114-.463,1.114-.871s0-1.013-3.015-1.013h-.181c-.868,0-1.012.121-1.3.363a4.052,4.052,0,0,1-1.29.754c-.675.276-1.418.563-2.189.863-.608.235-1.234.478-1.859.727l-.2.079-.054-.206c-.428-1.659-.775-3.238-1.058-4.565l-.034-.157.15-.057a36.375,36.375,0,0,1,4.742-1.6c.751-.162,1.088-.591,1.088-.945s-.154-.659-2.048-.659h-.363a2.357,2.357,0,0,0-1.3.633,3.428,3.428,0,0,1-.8.518l-.4.178c-.334.151-.731.331-1.173.527l-.211.094-.335-1.528a6.952,6.952,0,0,1-.263-1.67,5.213,5.213,0,0,1,.045-.608l.017-.153a4.4,4.4,0,0,0,.059-.615c0-1.2-2.172-1.825-2.924-1.825a1.278,1.278,0,0,0-1.354.989c0,.029,0,.116.236.116a.517.517,0,0,0,.1-.014,1.016,1.016,0,0,1,.142-.02,1.269,1.269,0,0,1,.361-.036c1.238,0,1.583,1.171,2.506,4.3.051.176.107.351.162.529.081.253.162.512.233.782l.042.159-.151.063a16.71,16.71,0,0,1-5.39,1.428,2.925,2.925,0,0,1-1.228-.23l-.055-.014a.647.647,0,0,0-.167-.039c-.02-.018-.023.006-.023.059a1.962,1.962,0,0,0,2.2,1.649c.641,0,.933,0,4.976-1.611l.2-.079.055.2c.393,1.448.816,3.038,1.209,4.558l.042.163-.157.06c-4.57,1.757-6.643,2.379-7.923,2.379a6.342,6.342,0,0,1-1.929-.292,1.68,1.68,0,0,0-.608-.132c-.14,0-.145.015-.145.129a1.99,1.99,0,0,0,1.02,1.53,8.139,8.139,0,0,0,2.75.613,2.157,2.157,0,0,0,1.382-.5,8.271,8.271,0,0,1,1.043-.609c1.616-.769,3.121-1.441,4.6-2.054Z" transform="translate(-14.087 -110.813)" fill="#fff"/>
  <path id="パス_117" data-name="パス 117" d="M146.4,128.926c1.239-.53,2.447-1.06,3.413-1.378a2.022,2.022,0,0,0,.906-.6.953.953,0,0,1,.725-.353c.574,0,2.81.848,2.81,1.767,0,.459-.514.847-.906,1.165a1.553,1.553,0,0,0-.453.424c-1.963,2.79-4.38,4.626-4.743,4.626-.06,0-.091-.07-.091-.106a2.041,2.041,0,0,1,.483-.918,18.5,18.5,0,0,0,2.6-4.874c0-.106-.06-.141-.181-.141-.786,0-4.019,1.7-4.29,1.836A58.721,58.721,0,0,0,149,138.922a6.135,6.135,0,0,1,.363,1.907c0,.847-.332,1.484-.755,1.484-.846,0-1.36-2.4-1.45-2.791-.06-.353-.06-.812-.151-1.307-.363-1.871-.967-4.627-1.571-7.171-.635.354-1.269.742-1.873,1.1a3.33,3.33,0,0,1-1.722.67c-.816,0-2.688-.6-2.688-1.837,0-.317.151-.423.393-.423a1.429,1.429,0,0,1,.574.177,1.25,1.25,0,0,0,.574.106c.967,0,1.6-.212,4.35-1.343-.846-3.461-1.148-4.132-1.782-4.132-.091,0-.152.036-.242.036-.06,0-.151.035-.242.035-.241,0-.513-.07-.513-.353a1.3,1.3,0,0,1,1.359-1.06c.634,0,2.447.283,2.447,1.449a4.1,4.1,0,0,1-.06.565,2.912,2.912,0,0,0-.03.494,6.563,6.563,0,0,0,.181,1.237Z" transform="translate(-22.76 -113.395)" fill="#fff"/>
  <path id="パス_120" data-name="パス 120" d="M171.891,138.646c-1.03,0-3.783-1.707-3.783-3.509,0-.013.006-1.283.52-1.283.205,0,.338.177.556.472l.048.063a1.569,1.569,0,0,0,1.33.7c3.494,0,13.865-11.208,17.493-16.136.547-.747.662-.747.755-.747h.085l.1.117.03.106c0,.834-4.875,10.858-15.211,18.623a3.429,3.429,0,0,0-.706.764c-.317.426-.616.829-1.22.829m-3.248-4.4a2.716,2.716,0,0,0-.159.886c0,1.54,2.53,3.133,3.407,3.133.4,0,.6-.245.919-.677a3.724,3.724,0,0,1,.783-.841A48.879,48.879,0,0,0,188.4,119.113c-.014.02-.031.041-.047.063-3.479,4.728-14.023,16.29-17.795,16.29a1.946,1.946,0,0,1-1.632-.853l-.047-.063a2.848,2.848,0,0,0-.24-.3m4.577-9.31a1.807,1.807,0,0,1-1.286-.7l0,0a13.676,13.676,0,0,0-5.013-3.38c-.336-.132-.5-.281-.5-.454,0-.437,1.693-.471,2.212-.471,4.053,0,5.868,1.673,5.868,3.332,0,.771-.334,1.672-1.276,1.672m-1.01-.952a1.485,1.485,0,0,0,1.01.576c.857,0,.9-1.079.9-1.3,0-1.471-1.7-2.955-5.491-2.955a8.04,8.04,0,0,0-1.687.148c.034.016.076.034.125.054a14,14,0,0,1,5.145,3.473" transform="translate(-29.431 -111.977)" fill="#fff"/>
  <path id="パス_122" data-name="パス 122" d="M195.794,135.146c-.381,0-.461-.141-.461-.258,0-.21.225-.386.729-.566,4.872-1.8,10.027-8.368,10.027-10.879,0-1.11-.541-1.3-1.144-1.4a.524.524,0,0,1-.487-.539c0-.61.7-1.036,1.335-1.036,1.317,0,3,1.809,3,3.227a4.438,4.438,0,0,1-.792,2.223c-.051.085-.1.164-.14.237-4.566,8.183-11.994,9-12.065,9m10-14.306c-.485,0-.959.327-.959.66,0,.075.013.144.171.168a1.55,1.55,0,0,1,1.459,1.775c0,2.668-5.179,9.353-10.274,11.232-.082.03-.152.057-.209.083a17.158,17.158,0,0,0,11.551-8.793c.044-.077.093-.158.145-.246a4.07,4.07,0,0,0,.738-2.029,3.322,3.322,0,0,0-2.622-2.85m13.776,11.727c-.394,0-1.125-.242-1.6-1.865h0a27,27,0,0,0-5.578-9.215c-.632-.691-.713-.94-.713-1.081a.238.238,0,0,1,.249-.259c1.05,0,8.98,5.966,8.98,10.361,0,1.352-.672,2.06-1.336,2.06m-1.239-1.97c.3,1.013.749,1.594,1.239,1.594.466,0,.96-.59.96-1.684,0-4-6.9-9.262-8.381-9.917a5.233,5.233,0,0,0,.521.642c2,2.212,4.689,5.991,5.661,9.364m.06-9.049a1.245,1.245,0,0,1-.929-.525l0-.005a10.672,10.672,0,0,0-2.638-2.359c-.06-.035-.121-.067-.176-.1-.19-.1-.368-.193-.368-.384,0-.458,1.5-.47,1.517-.47,1.805,0,3.633.865,3.633,2.519,0,.752-.445,1.319-1.034,1.319m-.641-.767a.922.922,0,0,0,.641.391c.369,0,.658-.414.658-.943,0-1.407-1.638-2.143-3.256-2.143a3.75,3.75,0,0,0-1.011.125l.036.019c.06.031.126.066.194.106a11.052,11.052,0,0,1,2.739,2.445m3.511-1.494a1.243,1.243,0,0,1-.929-.525l0-.005a10.531,10.531,0,0,0-2.608-2.359c-.06-.035-.122-.068-.18-.1-.246-.134-.4-.215-.4-.379,0-.129,0-.471,1.517-.471,1.776,0,3.663.883,3.663,2.519a1.2,1.2,0,0,1-1.064,1.319m-.641-.768a.923.923,0,0,0,.641.392c.38,0,.688-.423.688-.943,0-1.391-1.693-2.142-3.287-2.142a4.521,4.521,0,0,0-1.028.094l.085.047c.061.033.127.069.193.107a10.916,10.916,0,0,1,2.708,2.444" transform="translate(-36.505 -111.303)" fill="#fff"/>
  <path id="パス_124" data-name="パス 124" d="M234.475,139.2c-.272,0-.369-.14-.369-.259,0-.078,0-.317,1.044-.806,9.325-4.41,15.33-15.644,15.33-16.89,0-.318-.129-.447-.446-.447a21.049,21.049,0,0,0-4.9,1.887c-.233.113-.434.215-.615.306a3.425,3.425,0,0,1-1.554.526c-1.363,0-3.451-1.407-3.451-2.625,0-.711.316-.965.61-.965a.585.585,0,0,1,.541.409c.1.254.607.4,1.393.4a12.705,12.705,0,0,0,1.934-.174c.533-.083,1.844-.367,3-.618.8-.173,1.536-.333,1.919-.405a2.185,2.185,0,0,0,.9-.547,1.71,1.71,0,0,1,1.072-.551c.678,0,3.391.961,3.391,2.484a1.152,1.152,0,0,1-.492.888l-.094.071a3.624,3.624,0,0,0-1.277,1.492,40.427,40.427,0,0,1-3.446,5.564c2.324.7,8.33,4.217,8.33,7.173,0,.907-.5,1.565-1.184,1.565-.545,0-1.076-.423-1.5-1.193a23.068,23.068,0,0,0-5.808-6.545,3.521,3.521,0,0,1-.376-.3c-6.115,7.788-12.942,9.556-13.952,9.556m15.56-18.779a.749.749,0,0,1,.822.824c0,1.277-6.089,12.758-15.546,17.23a5.576,5.576,0,0,0-.567.3c1.357-.271,7.609-1.916,13.51-9.522l.239-.316a39.956,39.956,0,0,0,3.579-5.731,3.979,3.979,0,0,1,1.385-1.623l.088-.067a.782.782,0,0,0,.349-.592c0-1.186-2.405-2.107-3.015-2.107a1.413,1.413,0,0,0-.828.46,2.485,2.485,0,0,1-1.066.63c-.384.073-1.117.232-1.913.405-1.162.252-2.479.537-3.022.622a13.156,13.156,0,0,1-1.993.178c-.991,0-1.578-.218-1.746-.65-.11-.32-.422-.2-.422.427,0,.992,1.906,2.249,3.074,2.249a3.135,3.135,0,0,0,1.384-.486c.182-.092.387-.2.62-.308,1.259-.627,4.16-1.926,5.066-1.926m-1.525,8.793.1.09a3.566,3.566,0,0,0,.409.333,23.509,23.509,0,0,1,5.921,6.672c.35.642.763,1,1.165,1,.468,0,.808-.5.808-1.189,0-2.732-6.276-6.412-8.313-6.881Z" transform="translate(-45.991 -112.034)" fill="#fff"/>
  <path id="パス_126" data-name="パス 126" d="M277.775,146.618c-.536,0-1.033-.421-1.36-1.154h0a12.189,12.189,0,0,0-3.552-4.32c-.1-.093-.191-.171-.274-.242-.251-.217-.389-.336-.389-.493,0-.06.028-.255.394-.255,1.357,0,6.618,1.428,6.618,4.608a1.711,1.711,0,0,1-1.436,1.857m-1.023-1.306c.267.594.639.935,1.023.935.577,0,1.066-.68,1.066-1.486,0-2.781-4.694-4.148-6.117-4.233l.106.091c.086.074.181.156.276.244a12.506,12.506,0,0,1,3.646,4.448" transform="translate(-55.31 -117.335)" fill="#fff"/>
  <path id="パス_128" data-name="パス 128" d="M112.744,203.936c-1.616,0-2.37-4.4-2.37-7.374a32.12,32.12,0,0,1,1.033-7.281c.169-.748.329-1.456.465-2.162l.106-.544a15.036,15.036,0,0,0,.38-2.914,8.133,8.133,0,0,0-1.38-4.4c-.046-.076-.1-.147-.14-.212a.854.854,0,0,1-.2-.423c0-.221.208-.354.558-.354,1.116,0,3.374,3.077,3.374,5.595a7.863,7.863,0,0,1-.672,2.758c-.143.39-.3.816-.458,1.3a22.6,22.6,0,0,0-1.542,6.828,6.32,6.32,0,0,0,.233,1.846,2.589,2.589,0,0,0,.154-.364c.023-.066,2.452-6.638,3.191-6.638.138,0,.3.092.3.353a1.864,1.864,0,0,1-.187.676,31.8,31.8,0,0,0-2.342,9.57,4.407,4.407,0,0,0,.219,1.514,3.073,3.073,0,0,1,.183.971c0,.743-.371,1.261-.9,1.261m-1.719-25.277c.028.045.079.119.119.178s.1.147.149.227a8.479,8.479,0,0,1,1.435,4.6,15.331,15.331,0,0,1-.386,2.985l-.106.543c-.137.711-.3,1.421-.466,2.173a31.746,31.746,0,0,0-1.024,7.2c0,3.665.952,7,2,7,.313,0,.533-.366.533-.89a2.669,2.669,0,0,0-.162-.847,4.772,4.772,0,0,1-.239-1.638,32.19,32.19,0,0,1,2.369-9.71,2.253,2.253,0,0,0,.147-.436,48.465,48.465,0,0,0-2.759,6.31c-.179.5-.325.7-.52.7-.581,0-.588-2.28-.588-2.3a22.843,22.843,0,0,1,1.561-6.945c.159-.486.317-.915.462-1.308a7.481,7.481,0,0,0,.65-2.63c0-2.379-2.156-5.224-3-5.224a.667.667,0,0,0-.167.019m11.4,24.773a4.091,4.091,0,0,1-4.035-3.713c0-2.025,2.365-3.612,5.386-3.612a9.051,9.051,0,0,1,1.682.161v-1.453c-.026-1.4-.054-4.305-.084-7.7a5.739,5.739,0,0,1-1.224.12,4.84,4.84,0,0,1-4.869-3.309.275.275,0,0,1,.3-.286,2.222,2.222,0,0,1,.733.217c.219.094.506.236.809.386a13.688,13.688,0,0,0,1.277.583,5.906,5.906,0,0,0,1.922.326,9.041,9.041,0,0,0,1.05-.11v-1.822c0-3.168-.144-3.215-.748-3.413-.384-.12-.8-.252-.8-.652a1.666,1.666,0,0,1,1.392-1.227,3.179,3.179,0,0,1,2.225,2.671,4.05,4.05,0,0,1-.042.528c.15.069.33.154.52.244.507.24,1.082.512,1.326.6,1,.308,1.616.563,1.616,1.484,0,1.271-1.3,2.357-3.879,3.224v1.345c0,3.057.121,5.5.172,6.406.009.245.021.492.033.744.024.51.05,1.038.053,1.554,2.141.788,4.482,2.758,4.482,4.3,0,.82-.434,1.462-.99,1.462-.273,0-.692-.174-1.14-1.005a7.516,7.516,0,0,0-2.485-2.771c-.493,2.75-2.425,4.716-4.679,4.716m1.351-6.954c-2.812,0-5.016,1.424-5.016,3.242a3.7,3.7,0,0,0,3.665,3.342c2.108,0,3.981-2.011,4.356-4.678l.039-.277.239.144a7.841,7.841,0,0,1,2.857,3.063c.393.729.7.807.812.807.329,0,.619-.51.619-1.091,0-1.25-2.159-3.226-4.358-3.991l-.125-.042v-.132c0-.55-.027-1.118-.053-1.667-.013-.252-.024-.5-.033-.745-.051-.907-.173-3.357-.173-6.424v-1.612l.128-.042c3.1-1.02,3.752-2.148,3.752-2.914,0-.587-.242-.788-1.363-1.133-.233-.084-.7-.3-1.158-.518.8.572,1.139.909,1.139,1.415s-.228,1.216-2.2,1.823l-.239.074v-.251a32.6,32.6,0,0,1,.318-3.416l.011-.1h0l.025-.2a4.3,4.3,0,0,0,.048-.55,2.9,2.9,0,0,0-1.854-2.3c-.515,0-1.009.7-1.022.858,0,.1.129.166.531.293.882.288,1.02.567,1.02,3.771v2.141l-.157.023a10.176,10.176,0,0,1-1.263.138,6.261,6.261,0,0,1-2.044-.346,13.571,13.571,0,0,1-1.32-.6c-.3-.147-.576-.286-.789-.377a3.141,3.141,0,0,0-.5-.173,4.615,4.615,0,0,0,4.476,2.84,5.366,5.366,0,0,0,1.361-.161l.229-.058,0,.237c.031,3.487.059,6.492.086,7.926v1.912l-.224-.048a8.782,8.782,0,0,0-1.829-.2m3.537-14.672c-.193,1.595-.252,2.425-.27,2.808,1.69-.574,1.69-1.182,1.69-1.388,0-.407-.42-.726-1.421-1.419m-5.376,19.813c-.987,0-2.657-.407-2.657-1.933,0-1.171,1.411-2.435,3.691-2.435a8.806,8.806,0,0,1,2.583.445l.155.048-.027.16c-.386,2.257-1.856,3.715-3.745,3.715m1.034-4c-1.986,0-3.321,1.068-3.321,2.065,0,1.233,1.437,1.562,2.286,1.562,1.654,0,2.956-1.269,3.349-3.246a8.256,8.256,0,0,0-2.315-.381" transform="translate(-106.297 -130.043)" fill="#fff"/>
  <path id="パス_130" data-name="パス 130" d="M158.346,203.775c-5.612,0-6.449-6.347-6.449-10.129,0-1.86.168-3.762.332-5.6.162-1.819.329-3.7.329-5.518,0-1.44-.091-3.026-.766-3.884-.3-.391-.412-.6-.412-.786s.131-.387.5-.387c.131,0,3.2.042,3.2,3.746a8.174,8.174,0,0,1-.088,1.135c-.082.66-.216,1.5-.37,2.473a64.306,64.306,0,0,0-1.008,9.426c0,4.69,1.65,6.97,5.044,6.97,2.64,0,5.692-1.559,8.373-4.279.19-.194.457-.425.649-.425a.232.232,0,0,1,.242.253c0,.763-4.4,7.005-9.58,7.005m-6.465-25.935a.252.252,0,0,0-.137.024,1.658,1.658,0,0,0,.341.551c.742.945.843,2.608.843,4.112,0,1.834-.168,3.723-.33,5.55s-.331,3.725-.331,5.569c0,8.065,3.305,9.759,6.078,9.759,4.5,0,8.307-4.929,9.071-6.317-.036.033-.076.071-.119.114-2.75,2.789-5.9,4.388-8.637,4.388-3.593,0-5.414-2.469-5.414-7.341a64.54,64.54,0,0,1,1.011-9.484c.154-.97.287-1.806.369-2.464a7.857,7.857,0,0,0,.085-1.086c0-3.337-2.716-3.376-2.832-3.376m9.941,8.366a1.213,1.213,0,0,1-.985-.616,10.175,10.175,0,0,0-2.537-2.506l-.079-.046c-.242-.139-.434-.25-.434-.444v-.09l.07-.056a1.95,1.95,0,0,1,1.149-.241c1.905,0,3.834.905,3.834,2.637,0,.764-.447,1.362-1.019,1.362m-3.52-3.549.1.061.091.052a10.575,10.575,0,0,1,2.644,2.607.923.923,0,0,0,.681.459c.358,0,.649-.445.649-.992,0-1.472-1.786-2.267-3.464-2.267a2.682,2.682,0,0,0-.7.079m7,2.037a1.232,1.232,0,0,1-.956-.616,10.142,10.142,0,0,0-2.508-2.5l-.133-.075c-.23-.127-.41-.228-.41-.416,0-.337.764-.387,1.22-.387,2.49,0,3.834,1.359,3.834,2.638,0,.775-.45,1.36-1.047,1.36m-3.5-3.564.079.045.15.084a10.535,10.535,0,0,1,2.616,2.607.887.887,0,0,0,.652.458c.386,0,.676-.426.676-.99,0-1.1-1.214-2.268-3.463-2.268a4.264,4.264,0,0,0-.709.063" transform="translate(-116.329 -129.93)" fill="#fff"/>
  <path id="パス_132" data-name="パス 132" d="M187.264,204.051a3.715,3.715,0,0,1-3.806-3.611c0-2.651,3.565-3.613,5.961-3.613a7.031,7.031,0,0,1,1.221.094c-.005-.461-.025-.94-.046-1.443-.014-.333-.028-.67-.039-1.014-.053-.924-.082-1.895-.086-2.884a13.31,13.31,0,0,1-3.206.412c-3.75,0-4.753-2.3-4.753-2.6a.34.34,0,0,1,.386-.353,2.3,2.3,0,0,1,.764.215,8.622,8.622,0,0,0,3.345.658,13.592,13.592,0,0,0,3.464-.493c0-1.408.045-2.89.131-4.524-.166.012-.332.012-.492.012-3.719,0-4.524-2.788-4.524-3.478,0-.261.162-.353.3-.353a1.207,1.207,0,0,1,.568.279l.082.054a6.337,6.337,0,0,0,3.517,1.413,4.84,4.84,0,0,0,.617-.056l.067-.01c.031-.491.085-.958.137-1.412.026-.24.258-2.345.258-3.51,0-1.113-.184-1.19-.627-1.372-.352-.146-.782-.325-.782-.678a1.747,1.747,0,0,1,1.392-1.092c.944,0,2.139,1.657,2.139,2.672a5.08,5.08,0,0,1-.178,1.134c-.046.2-.1.41-.141.648a18.984,18.984,0,0,0-.521,2.972l.016-.01.094.16-.1-.153.1.153-.078-.172a3.113,3.113,0,0,1,1.629-.719.853.853,0,0,1,.932.958c0,1.267-2.258,2.073-2.825,2.255-.072,1.028-.1,2.119-.1,3.421v.835c1.479-.61,2.015-1.138,2.015-1.439,0-.357-.885-1.174-1.176-1.443a.351.351,0,0,1-.146-.3.266.266,0,0,1,.3-.253.5.5,0,0,1,.315.107,7.823,7.823,0,0,0,2.367.867c.729.039,1.181.445,1.181,1.059,0,1.794-4,3.338-4.79,3.622.039.775.1,1.543.162,2.29.031.377.061.753.09,1.129.03.358.072.728.115,1.1.071.627.143,1.274.168,1.908,3.026,1.224,4.284,3.5,4.284,4.461,0,.776-.449,1.361-1.046,1.361-.273,0-.8-.126-1.255-.97a7.964,7.964,0,0,0-2.141-2.4,5.868,5.868,0,0,1-5.253,4.109m2.155-6.853c-2.247,0-5.59.863-5.59,3.242a3.386,3.386,0,0,0,3.435,3.241,5.472,5.472,0,0,0,4.963-4.091l.064-.265.222.156a8.369,8.369,0,0,1,2.468,2.681c.273.5.6.779.931.779.385,0,.676-.426.676-.991,0-.858-1.257-3.028-4.163-4.16l-.114-.045,0-.123c-.018-.659-.1-1.34-.171-2-.043-.377-.085-.751-.116-1.115s-.058-.752-.089-1.128c-.064-.793-.131-1.613-.17-2.439l-.006-.139.131-.045c1.525-.516,4.673-2.007,4.673-3.318,0-.41-.3-.661-.83-.689a7.385,7.385,0,0,1-2.268-.785c.617.6,1,1.07,1,1.441,0,.6-.841,1.238-2.5,1.886l-.252.1v-1.381c0-1.364.036-2.5.116-3.574l.009-.128.124-.036c.746-.218,2.682-.989,2.682-1.938,0-.412-.168-.588-.562-.588a2.839,2.839,0,0,0-1.422.656l-.709.418.051-.377a19.973,19.973,0,0,1,.59-3.413c.033-.2.084-.417.13-.618a4.772,4.772,0,0,0,.17-1.05c0-.882-1.091-2.3-1.769-2.3a1.511,1.511,0,0,0-1.025.751c0,.076.415.247.55.3.569.235.862.416.862,1.717,0,1.185-.233,3.309-.26,3.548-.057.5-.115,1-.143,1.534l-.008.141-.373.076a5.124,5.124,0,0,1-.666.059,6.655,6.655,0,0,1-3.726-1.478l-.08-.054c-.081-.054-.2-.135-.284-.181.056.755.866,3.056,4.148,3.056a4.431,4.431,0,0,0,.662-.033l.225-.033-.013.227c-.1,1.766-.144,3.356-.144,4.86v.14l-.134.039a13.759,13.759,0,0,1-3.7.545,9,9,0,0,1-3.488-.686,2.028,2.028,0,0,0-.621-.187c.031.322,1.037,2.217,4.367,2.217a12.741,12.741,0,0,0,3.338-.464l.238-.069v.247c0,1.066.029,2.114.086,3.113.011.346.024.683.039,1.014.025.59.048,1.146.048,1.685v.231l-.225-.05a6.318,6.318,0,0,0-1.368-.13m-2.442,4.972c-1.552,0-2.513-.986-2.513-1.9,0-2.073,3.571-2.133,3.978-2.133a6.965,6.965,0,0,1,2.39.447l.154.055-.036.16a4.206,4.206,0,0,1-3.972,3.369m1.465-3.661c-.147,0-3.607.02-3.607,1.763,0,.616.681,1.528,2.142,1.528a3.822,3.822,0,0,0,3.571-2.921,6.521,6.521,0,0,0-2.107-.37" transform="translate(-123.945 -129.251)" fill="#fff"/>
  <path id="パス_134" data-name="パス 134" d="M220.644,204.407c-2.53,0-5.238-1.6-5.238-3.992a3.083,3.083,0,0,1,3.219-2.98,3.831,3.831,0,0,1,3.636,3.992,3.9,3.9,0,0,1-.1.906,6.532,6.532,0,0,0,5.107-6.49c0-2.679-1.758-5.527-5.017-5.527-1.971,0-4.763.9-6.865,5.206-.122.253-.285.643-.449,1.035a14.276,14.276,0,0,1-.586,1.3,1.993,1.993,0,0,1-1.555,1.149,1.191,1.191,0,0,1-1.1-1.33c0-.716.4-1.605,2.667-4.731,1.3-1.788,7.183-11.253,7.708-12.23a2.088,2.088,0,0,0,.3-.837c0-.311-.211-.469-.627-.469-.609,0-1.144.7-1.709,1.447-.714.937-1.522,2-2.745,2a2.164,2.164,0,0,1-2.226-2.342c0-.221,0-.806.463-.806a1.312,1.312,0,0,1,.526.166l.166.076a1.958,1.958,0,0,0,.75.133,1.668,1.668,0,0,0,1.171-.466c1.122-1.07,2.82-2.344,4.534-2.344a3.115,3.115,0,0,1,3,2.417,3.039,3.039,0,0,1-1.32,2.065c-2.052,1.809-5.119,6.5-6.193,8.249a8.816,8.816,0,0,1,4.71-1.416c4.984,0,6.841,4.4,6.841,7.177a8.756,8.756,0,0,1-9.052,8.638m-2.019-6.558a2.675,2.675,0,0,0-2.806,2.567c0,2.141,2.495,3.578,4.825,3.578a8.347,8.347,0,0,0,8.638-8.225c0-2.615-1.745-6.763-6.427-6.763a8.47,8.47,0,0,0-4.973,1.685.418.418,0,0,1-.283.115h-.206l-.032-.206c0-.32,4.213-6.957,6.7-9.149.728-.648,1.18-1.169,1.18-1.756a2.75,2.75,0,0,0-2.582-2c-1.66,0-3.373,1.4-4.248,2.23a2.073,2.073,0,0,1-1.456.581,2.371,2.371,0,0,1-.908-.165l-.183-.082a1.151,1.151,0,0,0-.351-.128s-.05.068-.05.393a1.756,1.756,0,0,0,1.813,1.929c1.017,0,1.729-.934,2.416-1.837.63-.828,1.225-1.61,2.038-1.61.965,0,1.04.675,1.04.882a2.491,2.491,0,0,1-.344,1.03c-.529.985-6.433,10.486-7.739,12.281-2.394,3.3-2.589,3.983-2.589,4.487,0,.54.284.918.69.918s.839-.346,1.2-.949c.121-.2.344-.735.558-1.251.168-.4.334-.8.459-1.056,2.2-4.495,5.147-5.438,7.236-5.438,3.528,0,5.43,3.06,5.43,5.94a6.95,6.95,0,0,1-5.633,6.945l-.493.145.114-.368a3.69,3.69,0,0,0,.184-1.138,3.432,3.432,0,0,0-3.222-3.579m1.573,5.109-.15-.014c-1.75-.166-3.521-1.1-3.521-2.566a1.608,1.608,0,0,1,1.713-1.705,2.557,2.557,0,0,1,2.289,2.755,3.384,3.384,0,0,1-.272,1.391Zm-1.958-3.872a1.188,1.188,0,0,0-1.3,1.292c0,1.179,1.481,1.955,2.993,2.137a3.014,3.014,0,0,0,.183-1.088,2.15,2.15,0,0,0-1.876-2.342" transform="translate(-131.083 -129.882)" fill="#fff"/>
  <path id="パス_135" data-name="パス 135" d="M242.973,207.411a3.627,3.627,0,1,1,3.639,3.788,3.713,3.713,0,0,1-3.639-3.788m3.608-2.655a2.645,2.645,0,0,0-2.551,2.688,2.568,2.568,0,1,0,5.133,0,2.671,2.671,0,0,0-2.582-2.688" transform="translate(-138.736 -136.323)" fill="#fff"/>
  <path id="パス_110" data-name="パス 110" d="M105.3,72.433c-.31,0-.325-.209-.325-.252,0-.308.6-.652.921-.791,6.242-2.914,9.839-10.722,10.664-17.247h-1.105c-1.684,0-5.17.076-7.56.359h-.049c-.668,0-1.585-1.4-1.585-1.887V52.4l.21.029a87.169,87.169,0,0,0,9.1.522h1.119c.045-.526.068-1.024.068-1.517,0-5.527-.089-6.4-.276-7.64a.616.616,0,0,1-.033-.212.218.218,0,0,1,.241-.218c.925,0,3.711.642,3.711,1.592,0,.364-.291.686-.863.954-.054.026-.1.047-.152.067-.34.147-.384.166-.384,1.761,0,1.224-.024,2.364-.05,3.574l-.006.258c0,.459-.021.925-.045,1.382h6.49a.381.381,0,0,0,.311-.194c.011-.021,1.147-2.161,1.731-2.161a.61.61,0,0,1,.163.023l.1.021c.885.356,2.633,2.191,2.633,2.921,0,.135-.057.578-.8.578h-10.45c2.144,8.74,7.8,14,12.488,15.34.236.045.387.163.387.309,0,.244-.3.32-1.091.525a5.906,5.906,0,0,0-2.506,1.035.6.6,0,0,1-.42.23c-.758,0-7.414-5.255-9.391-15.746-1.143,6.446-4.9,13.815-12.315,16.358a3.24,3.24,0,0,1-.926.239m10.155-18.659h1.524l-.025.206c-.787,6.668-4.463,14.741-10.905,17.748a2.61,2.61,0,0,0-.513.294,5.13,5.13,0,0,0,.567-.178c7.7-2.639,11.374-10.61,12.246-17.19l.172-1.3.194,1.3c1.6,10.654,8.462,16.5,9.219,16.56a.3.3,0,0,0,.137-.1,5.934,5.934,0,0,1,2.7-1.153c.19-.048.406-.1.573-.154-6.647-1.985-11.151-9.346-12.68-15.8l-.054-.228h10.921c.2,0,.431-.036.431-.208A5.872,5.872,0,0,0,127.584,51a.769.769,0,0,1-.082-.017.3.3,0,0,0-.072-.013,6.949,6.949,0,0,0-1.4,1.961.749.749,0,0,1-.64.395h-6.882l.011-.195c.027-.514.057-1.043.057-1.561l0-.262c.026-1.206.051-2.346.051-3.565,0-1.686.051-1.862.609-2.1.042-.018.091-.039.141-.063.418-.2.649-.415.649-.617,0-.469-2-1.156-3.182-1.217.188,1.261.279,2.142.279,7.694,0,.556-.028,1.119-.085,1.72l-.017.167h-1.456a88.009,88.009,0,0,1-8.878-.49c.191.469.823,1.3,1.157,1.3,2.413-.283,5.917-.36,7.61-.36" transform="translate(-104.977 -43.37)" fill="#fff"/>
  <path id="パス_111" data-name="パス 111" d="M158.864,49.178c-.224,18.55-11.526,23.131-12.058,23.131-.056,0-.084-.032-.084-.066,0-.13.279-.425.644-.655,6.575-4.253,9.539-14.3,9.539-22.541v-.131a26.831,26.831,0,0,0-.252-3.729.413.413,0,0,1-.028-.164.066.066,0,0,1,.056-.066c.336,0,3.609.589,3.609,1.5q0,.3-.419.589v.655c0,8.539,4.14,19.662,11.946,22.477.168.065.224.1.224.163,0,.263-2.714.327-3.469,1.243a.419.419,0,0,1-.307.164c-.644,0-8.869-7.132-8.869-22.443,0-.655.028-1.309.056-2-.447.23-.56.263-.588,1.865" transform="translate(-115.189 -43.757)" fill="#fff"/>
  <path id="パス_113" data-name="パス 113" d="M195,54.609c0,7.165-4.9,14.461-7.3,14.461-1.37,0-1.874-2.193-3.021-4.122A5.76,5.76,0,0,1,184,61.97c0-4.973,3.721-12.857,11.275-12.857,6.35,0,9.624,5.137,9.624,10.469,0,9.946-9.736,12.759-12.031,12.759-.252,0-.391-.066-.391-.13,0-.164.447-.426,1.259-.688,7.357-2.323,9.344-8.015,9.344-12.072,0-4.843-2.854-9.259-8.169-9.259-.335,0-.671.033-1.007.066.7.589,1.091,2.257,1.091,4.351m-.979-1.178c0-2.355-.475-2.911-1.091-2.911a.91.91,0,0,0-.279.033.59.59,0,0,1-.224.033c-4.309,1.439-7.023,6.347-7.023,10.632,0,2.88,1.231,5.071,2.574,5.071,1.874,0,6.043-6.837,6.043-12.857" transform="translate(-124.31 -44.772)" fill="#fff"/>
  <path id="パス_115" data-name="パス 115" d="M114.338,120.011c.634-.282,1.178-.53,1.57-.706.755-.318,1.118-1.06,2.175-1.165h.363c1.783,0,2.236.246,2.236.847,0,.46-.423.954-1.239,1.13a36.091,36.091,0,0,0-4.713,1.59c.332,1.555.665,3.038,1.057,4.557,1.419-.565,2.839-1.1,4.048-1.59,1.692-.671,1.027-1.131,2.659-1.131h.181c2.84,0,3.2.53,3.2,1.2,0,.53-.483,1.025-1.3,1.06-2.416.036-3.988.142-8.429,1.873a77,77,0,0,0,2.447,7.664,8.557,8.557,0,0,1,.574,2.967c0,.918-.242,1.448-.634,1.448-1.088,0-1.752-3.426-1.843-3.815-.12-.53-.12-1.13-.271-1.872-.363-1.624-.876-3.744-1.42-5.933-1.45.6-2.961,1.271-4.593,2.048-1.239.6-1.45,1.13-2.507,1.13a8.263,8.263,0,0,1-2.84-.635,2.173,2.173,0,0,1-1.118-1.7c0-.247.121-.317.332-.317a1.8,1.8,0,0,1,.665.141,6.114,6.114,0,0,0,1.873.283c1.269,0,3.444-.671,7.855-2.367-.394-1.519-.816-3.109-1.209-4.557-3.988,1.59-4.351,1.625-5.046,1.625a2.151,2.151,0,0,1-2.386-1.837c0-.176.06-.247.212-.247a1.188,1.188,0,0,1,.3.071,2.745,2.745,0,0,0,1.148.212,16.028,16.028,0,0,0,5.317-1.413c-.121-.46-.272-.884-.393-1.307-.906-3.073-1.239-4.168-2.327-4.168a1.082,1.082,0,0,0-.332.035c-.091,0-.181.036-.271.036-.212,0-.424-.07-.424-.317a1.466,1.466,0,0,1,1.541-1.165c.846,0,3.112.671,3.112,2.013a4.527,4.527,0,0,1-.06.636,6.784,6.784,0,0,0-.06.742,8.354,8.354,0,0,0,.332,1.942Z" transform="translate(-14.148 -110.874)" fill="#fff"/>
  <path id="パス_118" data-name="パス 118" d="M148.542,142.44c-.646,0-1.176-.941-1.619-2.877l-.014-.059c-.029-.17-.045-.349-.061-.544-.02-.235-.042-.5-.092-.771-.347-1.8-.922-4.427-1.511-6.918-.361.206-.721.419-1.073.63l-.579.342a3.506,3.506,0,0,1-1.817.7c-.819,0-2.876-.6-2.876-2.026a.538.538,0,0,1,.581-.611,1.683,1.683,0,0,1,.658.2,1.057,1.057,0,0,0,.49.086c.9,0,1.452-.168,4.129-1.267-.8-3.273-1.1-3.832-1.561-3.832a.337.337,0,0,0-.079.013c-.054.012-.113.007-.221.033a.9.9,0,0,1-.184.024c-.439,0-.7-.2-.7-.541a1.5,1.5,0,0,1,1.547-1.248c.684,0,2.635.3,2.635,1.637a3.346,3.346,0,0,1-.05.5l-.013.089a2.811,2.811,0,0,0-.028.467,4.193,4.193,0,0,0,.113.869c.02.1.043.214.065.334l.193.936.177-.076c1.115-.478,2.168-.93,3.04-1.217a1.84,1.84,0,0,0,.829-.553,1.15,1.15,0,0,1,.862-.411c.607,0,3,.855,3,1.955,0,.524-.505.931-.911,1.258l-.066.053a1.432,1.432,0,0,0-.413.379c-1.884,2.679-4.372,4.714-4.9,4.714a.292.292,0,0,1-.279-.295,2.39,2.39,0,0,1,.523-1.033,19.675,19.675,0,0,0,2.555-4.707,17.709,17.709,0,0,0-4.066,1.744,58.924,58.924,0,0,0,2.289,8.382,6.28,6.28,0,0,1,.374,1.972c0,.968-.4,1.672-.943,1.672M145.5,130.7l.057.242c.61,2.566,1.212,5.317,1.572,7.179a7.773,7.773,0,0,1,.1.809c.016.183.029.352.054.5l.012.048c.55,2.4,1.1,2.586,1.253,2.586.274,0,.567-.52.567-1.3a5.971,5.971,0,0,0-.35-1.84,59.94,59.94,0,0,1-2.336-8.578l-.029-.139.127-.065c1.351-.7,3.673-1.858,4.377-1.858.343,0,.37.252.37.33,0,.663-1.707,3.8-2.639,4.991a2.859,2.859,0,0,0-.409.667,17.233,17.233,0,0,0,4.458-4.5,1.723,1.723,0,0,1,.5-.472l.052-.043c.343-.277.771-.622.771-.965,0-.757-2.083-1.579-2.622-1.579a.771.771,0,0,0-.592.3,2.211,2.211,0,0,1-.976.645c-.862.283-1.907.732-3.014,1.207l-.6.258-.289-1.391c-.022-.122-.044-.231-.064-.332a4.551,4.551,0,0,1-.121-.944,3.034,3.034,0,0,1,.033-.525l.011-.085a3.1,3.1,0,0,0,.046-.447c0-1.036-1.811-1.261-2.259-1.261a1.125,1.125,0,0,0-1.171.871c0,.041,0,.165.325.165a.566.566,0,0,0,.1-.016c.068-.015.123-.01.216-.032a.694.694,0,0,1,.163-.023c.812,0,1.131.86,1.965,4.276l.038.157-.15.062c-2.716,1.116-3.395,1.357-4.421,1.357a1.451,1.451,0,0,1-.669-.131,1.242,1.242,0,0,0-.479-.152c-.139,0-.2.023-.2.235,0,1.088,1.752,1.649,2.5,1.649a3.231,3.231,0,0,0,1.626-.644l.579-.343c.428-.253.863-.512,1.3-.757Z" transform="translate(-22.699 -113.334)" fill="#fff"/>
  <path id="パス_119" data-name="パス 119" d="M172.133,124.177a13.775,13.775,0,0,0-5.075-3.425c-.272-.106-.393-.211-.393-.282a4.215,4.215,0,0,1,2.024-.283c4.018,0,5.68,1.625,5.68,3.143,0,.389-.121,1.484-1.088,1.484a1.628,1.628,0,0,1-1.148-.636M188.9,118.49c0,.707-4.652,10.6-15.136,18.473-.816.6-.967,1.555-1.813,1.555-.906,0-3.6-1.626-3.6-3.32,0-.106.06-1.094.333-1.094.121,0,.242.175.452.458a1.759,1.759,0,0,0,1.481.777c3.715,0,14.289-11.655,17.643-16.213.363-.494.543-.67.6-.67Z" transform="translate(-29.492 -112.037)" fill="#fff"/>
  <path id="パス_121" data-name="パス 121" d="M195.855,135.019c-.181,0-.273-.035-.273-.07,0-.106.212-.248.605-.388,5.075-1.871,10.151-8.548,10.151-11.056,0-1.271-.695-1.483-1.3-1.589a.337.337,0,0,1-.332-.354c0-.46.575-.848,1.148-.848a3.5,3.5,0,0,1,2.81,3.038,4.839,4.839,0,0,1-.906,2.367c-4.139,7.416-10.966,8.9-11.9,8.9m22.356-4.309a27,27,0,0,0-5.62-9.289c-.452-.5-.665-.813-.665-.954,0-.035,0-.071.06-.071.876,0,8.792,5.758,8.792,10.173,0,1.166-.544,1.872-1.148,1.872-.514,0-1.058-.494-1.419-1.731m-.545-9.748a10.812,10.812,0,0,0-2.688-2.4c-.242-.141-.453-.212-.453-.317s.574-.282,1.329-.282c1.691,0,3.444.776,3.444,2.33,0,.636-.362,1.131-.846,1.131a1.094,1.094,0,0,1-.786-.459m2.87-2.261a10.752,10.752,0,0,0-2.658-2.4c-.242-.141-.483-.246-.483-.317,0-.282,1.268-.282,1.329-.282,1.662,0,3.475.812,3.475,2.33a1.021,1.021,0,0,1-.876,1.131,1.089,1.089,0,0,1-.786-.459" transform="translate(-36.566 -111.364)" fill="#fff"/>
  <path id="パス_123" data-name="パス 123" d="M234.535,139.07c-.121,0-.181-.035-.181-.071,0-.106.332-.353.937-.635,9.336-4.415,15.438-15.789,15.438-17.061a.564.564,0,0,0-.635-.636,21.189,21.189,0,0,0-4.985,1.908,5.306,5.306,0,0,1-2.085.812c-1.239,0-3.262-1.307-3.262-2.437,0-.565.211-.777.422-.777a.4.4,0,0,1,.363.283c.151.389.785.53,1.57.53a12.973,12.973,0,0,0,1.964-.177c.906-.141,3.988-.847,4.924-1.024.816-.177,1.239-1.094,1.934-1.094.665,0,3.2.953,3.2,2.3a.961.961,0,0,1-.424.741,3.941,3.941,0,0,0-1.419,1.625,39.876,39.876,0,0,1-3.6,5.757c1.994.46,8.459,4.133,8.459,7.064,0,.813-.423,1.378-1,1.378-.423,0-.906-.318-1.329-1.1a23.307,23.307,0,0,0-5.861-6.605,4.843,4.843,0,0,1-.514-.423c-6.465,8.335-13.474,9.642-13.927,9.642" transform="translate(-46.051 -112.095)" fill="#fff"/>
  <path id="パス_125" data-name="パス 125" d="M276.644,145.447a12.426,12.426,0,0,0-3.6-4.388c-.3-.277-.6-.487-.6-.591,0-.035.059-.07.208-.07,1.221,0,6.433,1.393,6.433,4.423a1.522,1.522,0,0,1-1.251,1.671c-.417,0-.863-.313-1.191-1.045" transform="translate(-55.37 -117.395)" fill="#fff"/>
  <path id="パス_127" data-name="パス 127" d="M110.618,196.622c0-3.561.949-6.585,1.495-9.406a18.679,18.679,0,0,0,.488-3.493,8.278,8.278,0,0,0-1.408-4.5c-.144-.234-.316-.437-.316-.537,0-.169.345-.169.374-.169,1.005,0,3.189,3.024,3.189,5.409,0,1.243-.546,2.251-1.121,4a22.7,22.7,0,0,0-1.551,6.887c0,1.041.2,2.116.4,2.116.086,0,.2-.169.344-.572.345-.974,2.529-6.516,3.017-6.516.057,0,.115.033.115.167a1.731,1.731,0,0,1-.172.6,31.926,31.926,0,0,0-2.356,9.642,4.615,4.615,0,0,0,.23,1.578,2.843,2.843,0,0,1,.172.908c0,.672-.316,1.075-.718,1.075-1.322,0-2.185-3.8-2.185-7.189m15-13.337c0-3.326-.172-3.36-.891-3.595-.431-.135-.661-.235-.661-.471a1.516,1.516,0,0,1,1.207-1.041,3.037,3.037,0,0,1,2.039,2.485,5.181,5.181,0,0,1-.057.639c.517.236,1.61.772,1.983.907,1.092.336,1.494.571,1.494,1.31,0,1.781-2.96,2.788-3.879,3.091v1.478c0,2.586.086,4.905.173,6.417.028.772.085,1.612.085,2.419,2.126.739,4.482,2.72,4.482,4.165,0,.672-.344,1.277-.8,1.277-.287,0-.632-.269-.977-.908a7.7,7.7,0,0,0-2.787-2.989c-.4,2.856-2.385,4.837-4.54,4.837a3.9,3.9,0,0,1-3.85-3.527c0-1.982,2.356-3.427,5.2-3.427a8.965,8.965,0,0,1,1.867.2v-1.679c-.028-1.478-.057-4.7-.086-7.929a5.491,5.491,0,0,1-1.408.168,4.716,4.716,0,0,1-4.682-3.124c0-.067.028-.1.115-.1a2.138,2.138,0,0,1,.661.2c.545.234,1.522.772,2.1.974a6.1,6.1,0,0,0,1.983.336,8.728,8.728,0,0,0,1.235-.135Zm-2.586,14.21c-2.1,0-3.5,1.142-3.5,2.251,0,1.343,1.493,1.747,2.471,1.747,1.781,0,3.189-1.377,3.562-3.561a8.657,8.657,0,0,0-2.528-.437m3.879-12.564c2.069-.638,2.069-1.377,2.069-1.645,0-.538-.489-.874-1.752-1.747a33.551,33.551,0,0,0-.316,3.392" transform="translate(-106.357 -130.103)" fill="#fff"/>
  <path id="パス_129" data-name="パス 129" d="M158.406,203.649c-2.529,0-6.264-1.411-6.264-9.944,0-3.7.662-7.457.662-11.119,0-1.713-.144-3.158-.805-4-.258-.336-.373-.538-.373-.672s.115-.2.316-.2c.057,0,3.017,0,3.017,3.561a7.907,7.907,0,0,1-.086,1.108c-.316,2.52-1.379,7.728-1.379,11.926,0,1.949.144,7.155,5.229,7.155,2.558,0,5.689-1.478,8.5-4.334a1.173,1.173,0,0,1,.517-.37c.057,0,.057.034.057.067,0,.571-4.223,6.82-9.4,6.82m.66-21.2c1.724,0,3.65.806,3.65,2.452,0,.672-.374,1.176-.834,1.176a1.053,1.053,0,0,1-.833-.537,10.332,10.332,0,0,0-2.586-2.553c-.23-.135-.431-.236-.431-.336a1.809,1.809,0,0,1,1.034-.2m5.488,1.579A10.266,10.266,0,0,0,162,181.478c-.23-.135-.46-.235-.46-.336,0-.135.69-.2,1.034-.2,2.3,0,3.649,1.21,3.649,2.453,0,.672-.374,1.175-.862,1.175a1.05,1.05,0,0,1-.8-.537" transform="translate(-116.389 -129.99)" fill="#fff"/>
  <path id="パス_131" data-name="パス 131" d="M192.584,182.325a3.023,3.023,0,0,1,1.551-.705c.316,0,.746.1.746.772,0,1.143-2.24,1.949-2.815,2.116-.086,1.176-.115,2.352-.115,3.561v1.109c1.638-.638,2.385-1.243,2.385-1.713,0-.4-.69-1.076-1.236-1.58a.188.188,0,0,1-.086-.167c0-.034.029-.068.115-.068a.312.312,0,0,1,.2.068,7.916,7.916,0,0,0,2.472.906c.631.034,1.005.37,1.005.874,0,1.58-3.707,3.124-4.8,3.493.057,1.21.172,2.386.258,3.561.086,1.008.258,2.083.287,3.125,2.932,1.141,4.281,3.359,4.281,4.332,0,.673-.373,1.176-.862,1.176-.344,0-.747-.235-1.092-.873a8.183,8.183,0,0,0-2.413-2.621,5.683,5.683,0,0,1-5.143,4.233,3.552,3.552,0,0,1-3.62-3.426c0-2.553,3.563-3.427,5.775-3.427a6.469,6.469,0,0,1,1.409.135c0-.84-.058-1.747-.087-2.688q-.086-1.511-.086-3.124a13.067,13.067,0,0,1-3.39.47c-3.678,0-4.568-2.217-4.568-2.419,0-.134.086-.167.2-.167a2.144,2.144,0,0,1,.69.2,8.843,8.843,0,0,0,3.42.673,13.636,13.636,0,0,0,3.648-.538c0-1.645.057-3.292.144-4.871a4.687,4.687,0,0,1-.69.034c-3.534,0-4.338-2.587-4.338-3.292,0-.135.057-.169.115-.169a1.69,1.69,0,0,1,.546.3,6.584,6.584,0,0,0,3.62,1.444,5.7,5.7,0,0,0,.718-.067l.144-.033c.029-.537.086-1.041.144-1.545.087-.773.259-2.52.259-3.527,0-1.243-.259-1.345-.747-1.546-.4-.168-.661-.3-.661-.5a1.649,1.649,0,0,1,1.206-.907c.805,0,1.954,1.546,1.954,2.486a10.46,10.46,0,0,1-.316,1.747,20.233,20.233,0,0,0-.575,3.36Zm-4.08,16.058c-.747,0-3.793.168-3.793,1.948,0,.773.833,1.713,2.327,1.713a4.013,4.013,0,0,0,3.793-3.225,6.864,6.864,0,0,0-2.327-.436" transform="translate(-124.005 -129.311)" fill="#fff"/>
  <path id="パス_133" data-name="パス 133" d="M222.056,202.656a6.782,6.782,0,0,0,5.481-6.745c0-2.923-1.955-5.734-5.224-5.734-2.275,0-5,1.124-7.051,5.322-.289.6-.8,1.949-1.026,2.323-.449.75-.962,1.049-1.379,1.049-.513,0-.9-.45-.9-1.124,0-.6.289-1.386,2.629-4.609,1.282-1.761,7.179-11.241,7.724-12.254a2.412,2.412,0,0,0,.32-.936c0-.187-.063-.675-.833-.675-1.538,0-2.371,3.448-4.455,3.448a1.959,1.959,0,0,1-2.018-2.136c0-.3.032-.6.256-.6a1.908,1.908,0,0,1,.609.224,2.178,2.178,0,0,0,.833.15,1.863,1.863,0,0,0,1.314-.525c.866-.824,2.628-2.286,4.391-2.286a2.922,2.922,0,0,1,2.788,2.211c0,.712-.577,1.311-1.25,1.911-2.6,2.286-6.634,8.881-6.634,8.994h.032c.033,0,.064,0,.16-.075a8.732,8.732,0,0,1,5.1-1.724c4.648,0,6.634,4.01,6.634,6.97a8.534,8.534,0,0,1-8.846,8.431c-2.307,0-5.031-1.425-5.031-3.785a2.877,2.877,0,0,1,3.013-2.773,3.648,3.648,0,0,1,3.429,3.785,3.922,3.922,0,0,1-.193,1.2Zm-1.666-1.162a2.362,2.362,0,0,0-2.083-2.549,1.4,1.4,0,0,0-1.506,1.5c0,1.387,1.763,2.212,3.333,2.36a3.188,3.188,0,0,0,.256-1.311" transform="translate(-131.15 -129.949)" fill="#fff"/>
  <path id="パス_136" data-name="パス 136" d="M246.481,211.474a4.181,4.181,0,1,1,4.013-4.193,4.126,4.126,0,0,1-4.013,4.193m0-7.545a3.3,3.3,0,0,0-3.234,3.351,3.356,3.356,0,0,0,3.234,3.383,3.371,3.371,0,0,0,0-6.734m-.031,6.443a3.013,3.013,0,0,1-2.956-3.06,2.972,2.972,0,1,1,2.956,3.06m0-5.342a2.247,2.247,0,0,0-2.146,2.283,2.2,2.2,0,0,0,2.146,2.249,2.268,2.268,0,0,0,0-4.532" transform="translate(-138.605 -136.192)" fill="#fff"/>
</svg>
