<svg xmlns="http://www.w3.org/2000/svg" width="364.675" height="22.805" viewBox="0 0 364.675 22.805">
  <path id="パス_385" data-name="パス 385" d="M-183.6-12.725h4.9c.225,0,.325-.075.325-.225s-.05-.275-.475-.625c-1.025-.825-1.175-.9-1.3-.9-.15,0-.275.075-1.15,1.125h-2.3v-4.375a29.076,29.076,0,0,0,3.15-1.05c.85.175,1.15.125,1.15-.15,0-.225-.125-.45-1.675-1.55A6.85,6.85,0,0,1-182.7-19.35a30.745,30.745,0,0,1-6.95,2.225c-.15.025-.1.35.05.35a36.638,36.638,0,0,0,4.525-.625v4.05h-3.2a7.773,7.773,0,0,1-1.825-.175l.25.95a7.122,7.122,0,0,1,1.575-.15h2.875a27.852,27.852,0,0,1-4.975,9.4c-.1.125.125.35.225.25A19.918,19.918,0,0,0-184.975-10c-.1,8.15-.25,10.625-.25,11.225,0,.425.15.6.65.6.7,0,1-.25,1-.75s-.025-2.125-.025-8v-3.7a6.228,6.228,0,0,1,2.525,2.775c.3.6.5.8.825.8a.815.815,0,0,0,.775-.9c0-1.275-1.2-2.35-4.125-3.175Zm13.75,10.45c.125.45.225.9.325,1.375C-169.25.425-169.05.7-168.5.7c.5,0,.85-.5.85-1.275,0-1.975-1.7-5.5-5-8.525-.125-.1-.375.075-.275.2A19.641,19.641,0,0,1-170-2.8a73.5,73.5,0,0,1-8.75,1.15,75.08,75.08,0,0,0,5.55-16.775c.7-.2.875-.35.875-.625,0-.325-.6-.575-2.65-1.025A17.661,17.661,0,0,1-175.3-17.2a99.207,99.207,0,0,1-4.225,15.6,5.279,5.279,0,0,1-.65.05c-.5.025-.95.025-1.55,0,.65,2.175.8,2.5,1.025,2.5.25,0,.35-.125.525-.825A69,69,0,0,0-169.85-2.275ZM-151.6-15.8a12.157,12.157,0,0,1,1.35,0c3.825.2,6.6,2.675,6.6,6.475,0,4.875-4.775,7.175-8.95,7.9-.35.075-.425.2-.425.4,0,.15.15.3.425.275,5.125-.275,10.6-2.9,10.6-8.15,0-4.525-3.525-7.8-8.55-7.8A10.375,10.375,0,0,0-157.8-14a8.461,8.461,0,0,0-2.725,6.2,6.1,6.1,0,0,0,.875,3.3,2.575,2.575,0,0,0,2,1.3,3.72,3.72,0,0,0,2.475-1.675,25.07,25.07,0,0,0,3.6-6.625,9.013,9.013,0,0,0,.475-2.45A3.492,3.492,0,0,0-151.6-15.8Zm-.775.1a1.544,1.544,0,0,1,.3,1.05,5.107,5.107,0,0,1-.35,1.8,23.187,23.187,0,0,1-3.45,6.55c-.775,1.025-1.3,1.45-1.75,1.45A1.5,1.5,0,0,1-158.8-5.7a5.094,5.094,0,0,1-.6-2.525,6.976,6.976,0,0,1,2.025-4.95A8.548,8.548,0,0,1-152.375-15.7ZM-125.85-5.65a30.778,30.778,0,0,0-4.875-2.75c-.15-.05-.3.2-.175.275a35.167,35.167,0,0,1,4.35,3.35,22.1,22.1,0,0,1-7.575,5.6c-.125.075,0,.4.15.35a19.269,19.269,0,0,0,8.4-4.975,14.592,14.592,0,0,1,1.95,2.525c.55.875.825,1.175,1.2,1.175a.75.75,0,0,0,.7-.825c0-.975-1.125-2.4-2.975-3.875a21.907,21.907,0,0,0,2.275-3.3c.775,0,1-.1,1-.425,0-.275-.6-.675-2.075-1.3a8.527,8.527,0,0,1-.6,1.375A18.083,18.083,0,0,1-125.85-5.65ZM-129-17.725a15.666,15.666,0,0,0,.75-1.6c.75-.125,1-.25,1-.525,0-.25-.75-.6-2.35-1.025a11.5,11.5,0,0,1-.55,2,22.383,22.383,0,0,1-4.7,7.55c-.1.1.15.35.275.275a18.894,18.894,0,0,0,5.25-6.05h14.4c.25,0,.325-.075.325-.25,0-.15-.075-.275-.625-.725-1.175-.95-1.325-1.025-1.45-1.025-.15,0-.275.075-1.35,1.375Zm-.625,3.775A9.247,9.247,0,0,1-128-14.075h10.65c.25,0,.35-.075.35-.225s-.075-.275-.55-.65c-1.05-.85-1.2-.95-1.325-.95-.15,0-.275.1-1.225,1.2H-128a9.8,9.8,0,0,1-1.875-.15Zm-.85,2.55a14.669,14.669,0,0,1-2.05-.15l.25.925a7.908,7.908,0,0,1,1.825-.15h11.7A19.376,19.376,0,0,0-117.6-3.35a8.962,8.962,0,0,0,2.95,4.1,2.6,2.6,0,0,0,1.375.6.832.832,0,0,0,.825-.825.753.753,0,0,0-.275-.6A.817.817,0,0,1-113-.825c0-.25.125-1.575.3-3.275.025-.15-.225-.2-.275-.05-.775,2.575-1.075,3-1.25,3s-.275-.1-.625-.5a8.94,8.94,0,0,1-1.575-2.85,18.012,18.012,0,0,1-.775-5.8c.55-.35.65-.5.65-.675,0-.125-.05-.275-.425-.6-.75-.65-.9-.7-1.05-.7-.125,0-.2.05-.975.875ZM-99.1-10.025c-.55,5.575-2.875,8.825-8.275,11.475-.125.075.025.425.175.375,6.225-1.975,9.225-5.6,9.8-11.85h6.025a43.9,43.9,0,0,1-.95,7.675c-.3,1.15-.775,1.725-1.4,1.725a20.385,20.385,0,0,1-3.6-.425c-.15-.025-.2.4-.05.425,2.175.525,2.75,1,2.85,1.625.05.325.1.35.4.35A3.257,3.257,0,0,0-92.2.75a4.437,4.437,0,0,0,1.275-2.275,35.97,35.97,0,0,0,1.1-7.95c.55-.35.65-.45.65-.6,0-.125-.025-.25-.4-.6-.825-.75-.975-.825-1.1-.825s-.225.075-.95.85h-9.925a9.4,9.4,0,0,1-2.2-.225l.25,1a9.758,9.758,0,0,1,1.975-.15Zm14.375-1.15A13.816,13.816,0,0,1-89.9-14.25a13.59,13.59,0,0,1-3.45-5.1,1.266,1.266,0,0,1-.125-.425c0-.125.1-.3.1-.4a.22.22,0,0,0-.225-.2c-.2,0-.9.275-.9.425,0,.125.075.2.25.325a1.086,1.086,0,0,1,.3.425,18.981,18.981,0,0,0,3.425,6.275,16.521,16.521,0,0,0,3.4,3.05,2.45,2.45,0,0,0,.975.45c.15,0,.25-.1.325-.375.275-.775.5-1.025,1.05-1.05C-84.625-10.875-84.575-11.125-84.725-11.175Zm-22.825,2.2a19.955,19.955,0,0,0,8.825-9.7c.9-.1,1.075-.25,1.075-.5,0-.275-.475-.575-2.5-1.25a11.9,11.9,0,0,1-.75,2.325,21.833,21.833,0,0,1-6.875,8.8C-107.9-9.2-107.675-8.9-107.55-8.975ZM-61.275-13.3a.251.251,0,0,0-.25.25.321.321,0,0,0,.1.25,6.286,6.286,0,0,1,2.05,2c.35.575.525.675.825.675a.626.626,0,0,0,.575-.675A2.33,2.33,0,0,0-59.1-12.4a6.4,6.4,0,0,0-1.775-.825A1.733,1.733,0,0,0-61.275-13.3Zm-2.1,1.55a.277.277,0,0,0-.275.275.341.341,0,0,0,.15.25A7.206,7.206,0,0,1-61.65-9.2c.325.625.475.825.825.825.375,0,.625-.275.625-.725a2.58,2.58,0,0,0-1.075-1.625,6.081,6.081,0,0,0-1.85-1A.85.85,0,0,0-63.375-11.75ZM-66.75-15a9,9,0,0,0-4.725,7.7A5.928,5.928,0,0,0-69.3-2.525,10.689,10.689,0,0,0-63.05-.45c.775,0,1.15-.275,1.15-.65a.926.926,0,0,0-.6-.9,4.756,4.756,0,0,0-1.9-.425,7.336,7.336,0,0,1-4.35-1.55,4.966,4.966,0,0,1-1.7-4.05c0-2.975,2.6-5.875,5.05-6.725a14.755,14.755,0,0,1,4.85-.825c.525-.025.825-.325.825-.675A.873.873,0,0,0-60.4-17a3.687,3.687,0,0,0-1.425-.325,1.529,1.529,0,0,0-.825.25,5.175,5.175,0,0,1-1.175.4c-3.85.975-7.575,1.95-10.85,2.775a9.246,9.246,0,0,1-1.6.275A1.958,1.958,0,0,1-77.95-14.5c-.15-.15-.225-.225-.325-.225-.15,0-.25.15-.25.475a2.8,2.8,0,0,0,.675,1.425A2.4,2.4,0,0,0-76.2-11.8a1.287,1.287,0,0,0,.85-.275,12.608,12.608,0,0,1,1.85-.85c2.025-.725,4.425-1.475,6.7-2.15Zm24.625,8.95h-2.65a9.807,9.807,0,0,1-1.675-.125l.25.875a7.58,7.58,0,0,1,1.45-.125h14.4c.25,0,.325-.075.325-.225s-.05-.3-.5-.675c-.975-.8-1.175-.925-1.325-.925-.125,0-.3.125-1.2,1.2H-35.5V-8.9h4.125c.25,0,.325-.075.325-.225,0-.125-.1-.275-.475-.6-.925-.8-1.075-.925-1.225-.925s-.3.15-1.15,1.125h-1.6V-10.75c.575-.25.7-.425.7-.575,0-.225-.25-.375-2.225-.55a16.423,16.423,0,0,1,.1,2.35H-40.7V-10.75c.575-.25.7-.425.7-.575,0-.225-.25-.375-2.225-.55a16.423,16.423,0,0,1,.1,2.35h-1.8a8.567,8.567,0,0,1-1.75-.15l.225.925a8.19,8.19,0,0,1,1.475-.15h1.85Zm1.425,0V-8.9h3.775v2.85Zm8.075-10.8H-36.2a11.939,11.939,0,0,0-1.6-.8,11.662,11.662,0,0,1,.125,1.9c0,.725-.05,1.075-.05,1.4,0,1.525.35,1.825,3.8,1.825a14.355,14.355,0,0,0,2.975-.25c.525-.125.925-.35.925-.725a.45.45,0,0,0-.325-.475c-.2-.075-.275-.125-.275-.4,0-.225.025-.625.05-1.05,0-.125-.2-.15-.25-.05a3.1,3.1,0,0,1-.825,1.425c-.3.25-.85.4-2.35.4-2.275,0-2.35-.1-2.35-1.075v-1.5h3.725v.1c0,.35.15.475.55.475.55,0,.85-.15.85-.575,0-.25-.05-.85-.05-1.9v-.55c.525-.375.6-.475.6-.625,0-.125-.025-.275-.4-.575-.675-.575-.8-.625-.925-.625-.15,0-.225.075-.85.775h-3.325a11.934,11.934,0,0,1-2.075-.15l.25.95a7.161,7.161,0,0,1,1.85-.175h3.525Zm-8.25,0H-44.35a16.049,16.049,0,0,0-1.6-.825,12.793,12.793,0,0,1,.125,2c0,.75-.025,1.075-.025,1.425,0,1.325.35,1.725,2.95,1.725a15.828,15.828,0,0,0,3.5-.225c.45-.15.725-.4.725-.75a.438.438,0,0,0-.275-.475.367.367,0,0,1-.275-.4c0-.175.025-.6.025-.9,0-.125-.2-.15-.25-.05a3.251,3.251,0,0,1-.725,1.35c-.25.25-.7.325-2.525.325-1.7,0-1.825-.175-1.825-.95v-1.625h3.65c0,.35.15.45.55.45.55,0,.825-.15.825-.6,0-.25-.05-.625-.05-1.8v-.5c.55-.375.625-.45.625-.625,0-.125-.05-.275-.4-.575-.65-.575-.775-.625-.9-.625s-.225.075-.875.775h-3.2a11.655,11.655,0,0,1-2.05-.15l.25.95a7.074,7.074,0,0,1,1.825-.175h3.4Zm-4.9,15.675A5.186,5.186,0,0,1-48-3.325v-6c.6-.375.65-.5.65-.625s-.05-.275-.425-.575c-.725-.625-.85-.7-.975-.7s-.225.075-.925.85h-1.15a11.655,11.655,0,0,1-2.05-.15l.25.925a8.066,8.066,0,0,1,1.8-.15H-49.5v6.5a10.127,10.127,0,0,1-1.975,1.575,7.693,7.693,0,0,1-1.45.7C-51.9.875-51.7,1.2-51.4,1.2c.175,0,.325-.275.275-1.075a21.484,21.484,0,0,0,2.6-3.45,6.913,6.913,0,0,0,2.15,2.95c1.175.925,3.2,1.525,8.5,1.525,2.35,0,4.375-.075,7.05-.3.35-.025.425-.1.475-.55.075-.475.175-.625.75-.925.125-.075.125-.35-.025-.325A75.37,75.37,0,0,1-38.75-.3a21.91,21.91,0,0,1-6.4-.625,14.918,14.918,0,0,0,4.2-2.525c.85.025,1.075-.05,1.075-.375,0-.2-.525-.525-1.95-1.1A6.445,6.445,0,0,1-42.8-3.55,14.542,14.542,0,0,1-45.625-1.1Zm8.8-3.3a7.913,7.913,0,0,1,3.1,2.675c.35.525.525.65.825.65a.727.727,0,0,0,.7-.8c0-1.15-1.575-2.225-4.5-2.8C-37-4.775-37.1-4.55-36.975-4.475Zm-14.75-15.3a7.3,7.3,0,0,1,2.1,3.375c.175.675.375.925.775.925.55,0,.925-.4.925-1.15,0-1.125-1.25-2.475-3.6-3.35C-51.675-20.025-51.825-19.875-51.725-19.775Zm39.15,13.3a9.108,9.108,0,0,1,2.8-.375A6.87,6.87,0,0,1-6.8-6.125c.9.525,1.4,1.05,1.4,1.425a.421.421,0,0,1-.3.35,20.21,20.21,0,0,1-2.25.7c-.25.075-.3.2-.3.325,0,.15.15.225.4.2.9-.05,1.575-.125,2.15-.15a1.992,1.992,0,0,1,1.05.1,1,1,0,0,0,.65.2c.325,0,.65-.275.65-.95a3.622,3.622,0,0,0-1.925-2.7A7.647,7.647,0,0,0-9.425-7.65,11.705,11.705,0,0,0-13-7.075c-1.9-2.525-2.425-3.1-2.425-4.275,0-1.425,1.9-2.8,2.725-2.8a1.913,1.913,0,0,1,.625.075A1.57,1.57,0,0,0-11.6-14a.6.6,0,0,0,.625-.625,1.321,1.321,0,0,0-.625-1.05,6.417,6.417,0,0,0-1.85-.925c-1.55-.525-2.35-1.425-2.425-2.3-.025-.225-.1-.35-.35-.35-.15,0-.3.15-.3.55a2.66,2.66,0,0,0,.65,1.85A7.89,7.89,0,0,0-13.7-15.1c-2.125,1.875-2.575,2.9-2.575,4.2a4.371,4.371,0,0,0,.7,2.125A24.27,24.27,0,0,0-14.15-6.65a45.446,45.446,0,0,0-7.2,4.025c-.525.35-.725.45-1.025.45a.937.937,0,0,1-.7-.375,1.13,1.13,0,0,1-.2-.9c.025-.2-.05-.275-.2-.275-.075,0-.225.125-.3.25a1.475,1.475,0,0,0-.325.925,2.145,2.145,0,0,0,.5,1.225,2.4,2.4,0,0,0,1.425,1,.951.951,0,0,0,.75-.325c.75-.725,1.3-1.25,2.125-1.95,1.775.675,2.8,1.075,3.575,1.4a8.586,8.586,0,0,1,1.3.6,1.422,1.422,0,0,0,.825.225A2.631,2.631,0,0,0-11-3.225C-11-4.05-11.325-4.9-12.575-6.475Zm-1.15.45a4.486,4.486,0,0,1,1.225,2.8A1.115,1.115,0,0,1-13.65-1.95a13.569,13.569,0,0,1-2.125-.25A20.258,20.258,0,0,1-18.7-3.05,37.905,37.905,0,0,1-13.725-6.025Zm7.55-12.725a.251.251,0,0,0-.25.25.321.321,0,0,0,.1.25,6.286,6.286,0,0,1,2.05,2c.35.575.525.675.825.675a.626.626,0,0,0,.575-.675A2.33,2.33,0,0,0-4-17.85a6.4,6.4,0,0,0-1.775-.825A1.733,1.733,0,0,0-6.175-18.75Zm-2.1,1.55a.277.277,0,0,0-.275.275.341.341,0,0,0,.15.25A7.206,7.206,0,0,1-6.55-14.65c.325.625.475.825.825.825.375,0,.625-.275.625-.725a2.58,2.58,0,0,0-1.075-1.625,6.081,6.081,0,0,0-1.85-1A.85.85,0,0,0-8.275-17.2ZM2.75-3.825a.335.335,0,0,0,.2.325A9.131,9.131,0,0,1,6.8.85c.3.675.65.9,1.15.9A1.147,1.147,0,0,0,9.025.5a3.648,3.648,0,0,0-1.65-2.65,9.85,9.85,0,0,0-4.1-1.875C3.025-4.075,2.75-4,2.75-3.825Zm33.65-8.9h4.9c.225,0,.325-.075.325-.225s-.05-.275-.475-.625c-1.025-.825-1.175-.9-1.3-.9-.15,0-.275.075-1.15,1.125H36.4v-4.375a29.077,29.077,0,0,0,3.15-1.05c.85.175,1.15.125,1.15-.15,0-.225-.125-.45-1.675-1.55A6.85,6.85,0,0,1,37.3-19.35a30.745,30.745,0,0,1-6.95,2.225c-.15.025-.1.35.05.35a36.638,36.638,0,0,0,4.525-.625v4.05h-3.2a7.773,7.773,0,0,1-1.825-.175l.25.95a7.122,7.122,0,0,1,1.575-.15H34.6a27.852,27.852,0,0,1-4.975,9.4c-.1.125.125.35.225.25A19.918,19.918,0,0,0,35.025-10c-.1,8.15-.25,10.625-.25,11.225,0,.425.15.6.65.6.7,0,1-.25,1-.75s-.025-2.125-.025-8v-3.7A6.228,6.228,0,0,1,38.925-7.85c.3.6.5.8.825.8a.815.815,0,0,0,.775-.9c0-1.275-1.2-2.35-4.125-3.175ZM50.15-2.275c.125.45.225.9.325,1.375C50.75.425,50.95.7,51.5.7c.5,0,.85-.5.85-1.275,0-1.975-1.7-5.5-5-8.525-.125-.1-.375.075-.275.2A19.641,19.641,0,0,1,50-2.8a73.5,73.5,0,0,1-8.75,1.15A75.08,75.08,0,0,0,46.8-18.425c.7-.2.875-.35.875-.625,0-.325-.6-.575-2.65-1.025A17.661,17.661,0,0,1,44.7-17.2,99.207,99.207,0,0,1,40.475-1.6a5.279,5.279,0,0,1-.65.05c-.5.025-.95.025-1.55,0,.65,2.175.8,2.5,1.025,2.5.25,0,.35-.125.525-.825A69,69,0,0,0,50.15-2.275ZM66.9-16.15a20.2,20.2,0,0,0-3.25,1.3c-.6.35-.925.675-.925,1.275,0,.325.075.725.075,1.05a6.978,6.978,0,0,1-.15,1.4,35.552,35.552,0,0,0-.625,5.6,2.47,2.47,0,0,0,.325,1.4c.2.35.475.575.675.575.425,0,.6-.15.775-.575A8.552,8.552,0,0,1,65.075-5.75C66.8-7.675,69.4-9.475,71.8-9.475A2.958,2.958,0,0,1,75-6.6c0,1.95-1.05,3.1-3.05,4.25A20.558,20.558,0,0,1,64.925-.2c-.225.025-.375.125-.375.35s.175.35.425.325A21.8,21.8,0,0,0,72.8-1.275c2.3-1.1,3.875-2.675,3.875-4.9,0-2.65-2.35-4.05-4.925-4.05-2.55,0-5.1,1.6-8.15,3.95a.449.449,0,0,1-.225.1c-.05,0-.075-.075-.075-.3a32.634,32.634,0,0,1,.35-4,15.655,15.655,0,0,0,.25-1.85,2,2,0,0,0-.2-.9,1.331,1.331,0,0,1-.15-.6c0-.175.1-.3.475-.475a9.416,9.416,0,0,1,3.475-.825,3.718,3.718,0,0,1,.9.125,2.323,2.323,0,0,0,.725.125.625.625,0,0,0,.675-.7,1.408,1.408,0,0,0-.525-.9,4.441,4.441,0,0,0-1.35-.775,4.728,4.728,0,0,1-2.975-2.375c-.075-.15-.15-.25-.3-.25a.259.259,0,0,0-.225.325,4.008,4.008,0,0,0,.975,2.1,5.194,5.194,0,0,0,1.5,1.225ZM94.975.025a13.409,13.409,0,0,0,9.925-5.25.719.719,0,0,0,.175-.375.251.251,0,0,0-.25-.25.565.565,0,0,0-.375.175c-2.6,2.45-6.075,4.35-9.375,4.35A2.781,2.781,0,0,1,93.1-1.85a2.9,2.9,0,0,1-.7-2.325c0-1.175.1-3.7.225-5.85.1-1.625.225-3.3.425-4.925.05-.6.175-.775.325-.925a.957.957,0,0,0,.35-.725c0-.5-.35-.925-1.025-1.425a3.172,3.172,0,0,0-1.75-.775,1.437,1.437,0,0,0-.6.1c-.225.125-.25.175-.25.3,0,.15.075.2.35.275.95.275,1.15.925,1.125,1.85-.05,2.15-.1,4.175-.2,6.175-.1,2.225-.2,4.825-.2,6.225C91.175-.9,92.725.025,94.975.025Zm32.6-13.675a.482.482,0,0,0,.25.375C130-12.05,131.75-9.3,131.75-7.675a.4.4,0,0,1-.375.45c-.7.1-1.225.15-1.9.225q-.375.037-.375.225c0,.175.075.3.325.325,1.625.2,2.1.425,2.45.925a.755.755,0,0,0,.65.325c.625,0,.95-.7.95-1.65,0-2.9-2.425-5.7-5.375-6.925C127.825-13.9,127.575-13.8,127.575-13.65Zm-7.75,12.025a.652.652,0,0,0,.725-.65,1.948,1.948,0,0,0-.15-.775,1.55,1.55,0,0,1-.1-.575,3.221,3.221,0,0,1,.25-.925,28.377,28.377,0,0,1,1.975-4.25,1.2,1.2,0,0,0,.15-.45.273.273,0,0,0-.275-.25.471.471,0,0,0-.425.275c-1.15,1.825-1.95,3.15-2.725,4.55-.15.275-.3.4-.5.4-.325,0-.8-.45-1.225-1.35A9.719,9.719,0,0,1,116.85-9.9a11.661,11.661,0,0,1,.275-2.95,3.178,3.178,0,0,0,.225-1.075,2.627,2.627,0,0,0-1.175-1.825,2.953,2.953,0,0,0-1.5-.8c-.2,0-.35.075-.35.225,0,.075.075.175.225.325a2.766,2.766,0,0,1,1.1,2.4c0,.625-.025,1.35-.025,2.05,0,3.75.425,6.825,2.525,8.925A3.118,3.118,0,0,0,119.825-1.625Zm24.8-5.35h12.95v.95c0,.45.15.6.65.6.65,0,.975-.175.975-.7-.025-.625-.1-1.8-.1-4.025v-1.8c.575-.375.675-.525.675-.7,0-.125-.05-.3-.4-.6-.775-.65-.925-.7-1.05-.7s-.225.075-.95.875H151a25.075,25.075,0,0,0,3.2-3.7c.85-.225,1.025-.325,1.025-.575,0-.2-.05-.35-.4-.7-.825-.8-1.05-.9-1.2-.9s-.3.1-.925.8h-5.125c.225-.425.45-.85.65-1.3.775-.2,1-.325,1-.55,0-.275-.575-.525-2.35-.975a12.39,12.39,0,0,1-1.15,3.075,19.268,19.268,0,0,1-5.55,6.775c-.125.075.1.4.225.325a19.3,19.3,0,0,0,2.7-1.9v5.225c0,3.925-.05,4.95-.05,5.325,0,2.75.65,3.25,8.7,3.25,5.025,0,7.3-.175,8.65-.525.975-.25,1.6-.65,1.6-1.15,0-.3-.075-.5-.35-.575-.35-.1-.425-.2-.425-.675,0-.275.1-1.45.15-2.175a.158.158,0,0,0-.3-.05c-.775,2.175-1.025,2.725-1.55,3.025-.925.575-2.825.7-7.8.7-6.7,0-7.1-.225-7.1-1.925Zm0-.625v-4.85h5.65V-7.6Zm8.025-9.925a28.587,28.587,0,0,1-2.375,4.45h-5.45c-.25-.175-.5-.325-.75-.475a17.945,17.945,0,0,0,3.15-3.975ZM157.575-7.6H151.75v-4.85h5.825ZM171.05-4.725A3.254,3.254,0,0,0,167.8-1.5a3.276,3.276,0,0,0,3.25,3.25,3.254,3.254,0,0,0,3.225-3.25A3.233,3.233,0,0,0,171.05-4.725Zm0,.85A2.39,2.39,0,0,1,173.425-1.5,2.4,2.4,0,0,1,171.05.9a2.4,2.4,0,0,1-2.4-2.4A2.4,2.4,0,0,1,171.05-3.875Z" transform="translate(190.4 20.975)" fill="#fff"/>
</svg>
