<svg xmlns="http://www.w3.org/2000/svg" width="81.216" height="35.568" viewBox="0 0 81.216 35.568">
  <path id="パス_306" data-name="パス 306" d="M31.872-27.264c-.288-2.64-.528-5.376-.72-7.824a10.83,10.83,0,0,1-1.68.144,13.434,13.434,0,0,1-3.792-.672,21.021,21.021,0,0,0-5.616-.72c-10.032,0-17.136,7.44-17.136,17.76,0,10.512,7.1,17.808,17.04,17.808,6.384,0,10.7-3.12,13.584-8.448a.774.774,0,0,0,.144-.432c0-.288-.528-.624-.912-.624a.591.591,0,0,0-.48.24c-2.784,4.416-6.288,6.576-11.76,6.576C13.1-3.456,7.68-10.032,7.68-18.672,7.68-28.32,13.008-34.7,20.112-34.7a12.15,12.15,0,0,1,6.576,1.968,13.5,13.5,0,0,1,3.984,5.616.522.522,0,0,0,.48.336c.432,0,.72-.144.72-.336ZM65.808-14.448c-1.152,2.448-1.92,4.368-2.88,6.672C61.92-10.128,61.1-12.192,60.1-14.448l-6.576-15.6a42.775,42.775,0,0,1-1.92-5.424c-1.824.048-2.736.048-4.176.048-1.248,0-3.312-.1-5.136-.192-.288,0-.432.1-.432.768,0,.432.1.528.432.576,2.592.24,3.312.576,3.744,1.152.336.48.624,1.584.576,3.744l-.432,19.152c-.1,4.128-.336,5.136-.96,6.24-.384.624-1.1,1.008-3.216,1.2-.336.048-.432.144-.432.624s.1.624.432.624c1.584-.1,3.7-.192,5.376-.192s3.456.1,5.232.192c.384,0,.48-.144.48-.624s-.1-.576-.48-.624c-2.5-.24-3.168-.48-3.6-1.152-.432-.72-.72-2.592-.672-6.288l.144-20.3h.528L56.64-12.96c1.776,4.032,3.072,7.248,4.56,10.992.144.336.24.432.528.432.48,0,.576-.1.72-.432,1.44-3.6,2.784-6.912,4.992-11.9l7.3-16.656h.528L75.408-8.3c0,2.688-.192,3.744-.576,4.368s-1.008.96-3.6,1.152c-.24.048-.336.144-.336.624s.1.624.336.624c1.824-.1,4.176-.192,6.048-.192,1.824,0,4.416.1,6.384.192.336,0,.48-.144.48-.624s-.144-.576-.48-.624c-2.688-.24-3.264-.48-3.744-1.152-.528-.768-.672-1.344-.72-6.288l-.192-18.624c-.048-2.352.192-3.648.576-4.272s1.248-1.008,3.648-1.152c.384-.048.48-.144.48-.624,0-.576-.1-.72-.48-.72-1.44.1-3.552.192-4.944.192-1.44,0-2.4,0-4.032-.048A55.957,55.957,0,0,1,72-29.376Z" transform="translate(-2.928 36.336)" fill="#231815"/>
</svg>
