<svg xmlns="http://www.w3.org/2000/svg" width="309.675" height="22.975" viewBox="0 0 309.675 22.975">
  <path id="パス_287" data-name="パス 287" d="M-156.1-12.725h4.9c.225,0,.325-.075.325-.225s-.05-.275-.475-.625c-1.025-.825-1.175-.9-1.3-.9-.15,0-.275.075-1.15,1.125h-2.3v-4.375a29.076,29.076,0,0,0,3.15-1.05c.85.175,1.15.125,1.15-.15,0-.225-.125-.45-1.675-1.55A6.85,6.85,0,0,1-155.2-19.35a30.745,30.745,0,0,1-6.95,2.225c-.15.025-.1.35.05.35a36.638,36.638,0,0,0,4.525-.625v4.05h-3.2a7.773,7.773,0,0,1-1.825-.175l.25.95a7.122,7.122,0,0,1,1.575-.15h2.875a27.852,27.852,0,0,1-4.975,9.4c-.1.125.125.35.225.25A19.918,19.918,0,0,0-157.475-10c-.1,8.15-.25,10.625-.25,11.225,0,.425.15.6.65.6.7,0,1-.25,1-.75s-.025-2.125-.025-8v-3.7a6.228,6.228,0,0,1,2.525,2.775c.3.6.5.8.825.8a.815.815,0,0,0,.775-.9c0-1.275-1.2-2.35-4.125-3.175Zm13.75,10.45c.125.45.225.9.325,1.375C-141.75.425-141.55.7-141,.7c.5,0,.85-.5.85-1.275,0-1.975-1.7-5.5-5-8.525-.125-.1-.375.075-.275.2A19.641,19.641,0,0,1-142.5-2.8a73.5,73.5,0,0,1-8.75,1.15,75.08,75.08,0,0,0,5.55-16.775c.7-.2.875-.35.875-.625,0-.325-.6-.575-2.65-1.025A17.661,17.661,0,0,1-147.8-17.2a99.207,99.207,0,0,1-4.225,15.6,5.279,5.279,0,0,1-.65.05c-.5.025-.95.025-1.55,0,.65,2.175.8,2.5,1.025,2.5.25,0,.35-.125.525-.825A69,69,0,0,0-142.35-2.275ZM-124.1-15.8a12.157,12.157,0,0,1,1.35,0c3.825.2,6.6,2.675,6.6,6.475,0,4.875-4.775,7.175-8.95,7.9-.35.075-.425.2-.425.4,0,.15.15.3.425.275,5.125-.275,10.6-2.9,10.6-8.15,0-4.525-3.525-7.8-8.55-7.8A10.375,10.375,0,0,0-130.3-14a8.461,8.461,0,0,0-2.725,6.2,6.1,6.1,0,0,0,.875,3.3,2.575,2.575,0,0,0,2,1.3,3.72,3.72,0,0,0,2.475-1.675,25.07,25.07,0,0,0,3.6-6.625,9.013,9.013,0,0,0,.475-2.45A3.492,3.492,0,0,0-124.1-15.8Zm-.775.1a1.544,1.544,0,0,1,.3,1.05,5.107,5.107,0,0,1-.35,1.8,23.187,23.187,0,0,1-3.45,6.55c-.775,1.025-1.3,1.45-1.75,1.45A1.5,1.5,0,0,1-131.3-5.7a5.094,5.094,0,0,1-.6-2.525,6.976,6.976,0,0,1,2.025-4.95A8.548,8.548,0,0,1-124.875-15.7Zm26.45,10.125A10.416,10.416,0,0,0-96.8-5.45a5.085,5.085,0,0,0,1.125-.1.655.655,0,0,0,.575-.675c0-.475-.525-.65-1.175-.625A12.862,12.862,0,0,1-98.15-6.9c.525-3.1,1.275-6.55,1.875-8.975a1.523,1.523,0,0,1,.475-.95.687.687,0,0,0,.325-.625,1.871,1.871,0,0,0-.775-1.35,3,3,0,0,0-1.8-.825c-.45,0-.975.25-.975.475,0,.125.05.175.425.25.925.175,1.125.625,1.125,1.525,0,.3-.075.7-.125,1.175-.175,1.175-.35,2.075-.575,3.225-.15-.425-.625-.625-1.225-.675a4.757,4.757,0,0,1-1.725-.5,4.165,4.165,0,0,1-1.55-1.275c-.15-.2-.275-.35-.4-.35-.15,0-.2.125-.2.3a2.288,2.288,0,0,0,.675,1.4,5.179,5.179,0,0,0,1.95,1.35c-1.025.85-2.175,2.15-2.175,3.5,0,2,1.25,2.8,3.4,3.5a19.24,19.24,0,0,0-.1,2.025c0,3.325,2.05,4.525,4.275,4.525,2.7,0,5.35-1.775,5.35-4.775,0-2.55-1.8-5.225-4.05-6.775-.15-.1-.25-.2-.375-.2a.335.335,0,0,0-.35.275.6.6,0,0,0,.2.375c2,2,3.025,3.9,3.025,6.125A3.781,3.781,0,0,1-95.35-.2c-2.025,0-3.175-1.05-3.175-3.3C-98.525-4.1-98.5-4.85-98.425-5.575Zm-.75-1.475c-1.525-.275-2.925-.9-2.925-2.275a3.129,3.129,0,0,1,1.625-2.375,2.316,2.316,0,0,1,1.425-.525c.45,0,.625-.05.775-.225C-98.6-10.7-98.85-9.175-99.175-7.05ZM-69.1-15.8a12.157,12.157,0,0,1,1.35,0c3.825.2,6.6,2.675,6.6,6.475,0,4.875-4.775,7.175-8.95,7.9-.35.075-.425.2-.425.4,0,.15.15.3.425.275,5.125-.275,10.6-2.9,10.6-8.15,0-4.525-3.525-7.8-8.55-7.8A10.375,10.375,0,0,0-75.3-14a8.461,8.461,0,0,0-2.725,6.2,6.1,6.1,0,0,0,.875,3.3,2.575,2.575,0,0,0,2,1.3,3.72,3.72,0,0,0,2.475-1.675,25.07,25.07,0,0,0,3.6-6.625,9.013,9.013,0,0,0,.475-2.45A3.492,3.492,0,0,0-69.1-15.8Zm-.775.1a1.544,1.544,0,0,1,.3,1.05,5.107,5.107,0,0,1-.35,1.8,23.187,23.187,0,0,1-3.45,6.55c-.775,1.025-1.3,1.45-1.75,1.45A1.5,1.5,0,0,1-76.3-5.7a5.094,5.094,0,0,1-.6-2.525,6.976,6.976,0,0,1,2.025-4.95A8.548,8.548,0,0,1-69.875-15.7Zm27.75,9.65h-2.65a9.807,9.807,0,0,1-1.675-.125l.25.875a7.58,7.58,0,0,1,1.45-.125h14.4c.25,0,.325-.075.325-.225s-.05-.3-.5-.675c-.975-.8-1.175-.925-1.325-.925-.125,0-.3.125-1.2,1.2H-35.5V-8.9h4.125c.25,0,.325-.075.325-.225,0-.125-.1-.275-.475-.6-.925-.8-1.075-.925-1.225-.925s-.3.15-1.15,1.125h-1.6V-10.75c.575-.25.7-.425.7-.575,0-.225-.25-.375-2.225-.55a16.423,16.423,0,0,1,.1,2.35H-40.7V-10.75c.575-.25.7-.425.7-.575,0-.225-.25-.375-2.225-.55a16.423,16.423,0,0,1,.1,2.35h-1.8a8.567,8.567,0,0,1-1.75-.15l.225.925a8.19,8.19,0,0,1,1.475-.15h1.85Zm1.425,0V-8.9h3.775v2.85Zm8.075-10.8H-36.2a11.939,11.939,0,0,0-1.6-.8,11.662,11.662,0,0,1,.125,1.9c0,.725-.05,1.075-.05,1.4,0,1.525.35,1.825,3.8,1.825a14.355,14.355,0,0,0,2.975-.25c.525-.125.925-.35.925-.725a.45.45,0,0,0-.325-.475c-.2-.075-.275-.125-.275-.4,0-.225.025-.625.05-1.05,0-.125-.2-.15-.25-.05a3.1,3.1,0,0,1-.825,1.425c-.3.25-.85.4-2.35.4-2.275,0-2.35-.1-2.35-1.075v-1.5h3.725v.1c0,.35.15.475.55.475.55,0,.85-.15.85-.575,0-.25-.05-.85-.05-1.9v-.55c.525-.375.6-.475.6-.625,0-.125-.025-.275-.4-.575-.675-.575-.8-.625-.925-.625-.15,0-.225.075-.85.775h-3.325a11.934,11.934,0,0,1-2.075-.15l.25.95a7.161,7.161,0,0,1,1.85-.175h3.525Zm-8.25,0H-44.35a16.049,16.049,0,0,0-1.6-.825,12.793,12.793,0,0,1,.125,2c0,.75-.025,1.075-.025,1.425,0,1.325.35,1.725,2.95,1.725a15.828,15.828,0,0,0,3.5-.225c.45-.15.725-.4.725-.75a.438.438,0,0,0-.275-.475.367.367,0,0,1-.275-.4c0-.175.025-.6.025-.9,0-.125-.2-.15-.25-.05a3.251,3.251,0,0,1-.725,1.35c-.25.25-.7.325-2.525.325-1.7,0-1.825-.175-1.825-.95v-1.625h3.65c0,.35.15.45.55.45.55,0,.825-.15.825-.6,0-.25-.05-.625-.05-1.8v-.5c.55-.375.625-.45.625-.625,0-.125-.05-.275-.4-.575-.65-.575-.775-.625-.9-.625s-.225.075-.875.775h-3.2a11.655,11.655,0,0,1-2.05-.15l.25.95a7.074,7.074,0,0,1,1.825-.175h3.4Zm-4.9,15.675A5.186,5.186,0,0,1-48-3.325v-6c.6-.375.65-.5.65-.625s-.05-.275-.425-.575c-.725-.625-.85-.7-.975-.7s-.225.075-.925.85h-1.15a11.655,11.655,0,0,1-2.05-.15l.25.925a8.066,8.066,0,0,1,1.8-.15H-49.5v6.5a10.127,10.127,0,0,1-1.975,1.575,7.693,7.693,0,0,1-1.45.7C-51.9.875-51.7,1.2-51.4,1.2c.175,0,.325-.275.275-1.075a21.484,21.484,0,0,0,2.6-3.45,6.913,6.913,0,0,0,2.15,2.95c1.175.925,3.2,1.525,8.5,1.525,2.35,0,4.375-.075,7.05-.3.35-.025.425-.1.475-.55.075-.475.175-.625.75-.925.125-.075.125-.35-.025-.325A75.37,75.37,0,0,1-38.75-.3a21.91,21.91,0,0,1-6.4-.625,14.918,14.918,0,0,0,4.2-2.525c.85.025,1.075-.05,1.075-.375,0-.2-.525-.525-1.95-1.1A6.445,6.445,0,0,1-42.8-3.55,14.542,14.542,0,0,1-45.625-1.1Zm8.8-3.3a7.913,7.913,0,0,1,3.1,2.675c.35.525.525.65.825.65a.727.727,0,0,0,.7-.8c0-1.15-1.575-2.225-4.5-2.8C-37-4.775-37.1-4.55-36.975-4.475Zm-14.75-15.3a7.3,7.3,0,0,1,2.1,3.375c.175.675.375.925.775.925.55,0,.925-.4.925-1.15,0-1.125-1.25-2.475-3.6-3.35C-51.675-20.025-51.825-19.875-51.725-19.775Zm42.8,6.45a17.185,17.185,0,0,0,3.9,6.15,1.541,1.541,0,0,0,.9.45.64.64,0,0,0,.65-.625A2.236,2.236,0,0,0-4.4-9.075a15.136,15.136,0,0,1-3.825-4.9,5.743,5.743,0,0,1-.525-2.05,3.692,3.692,0,0,1-.025-.525.926.926,0,0,0-.975-.95c-.475,0-.575.275-.575.575a3.19,3.19,0,0,0,.2.575,9.7,9.7,0,0,1,.425,3.6A19.856,19.856,0,0,1-10.825-5.3,5.941,5.941,0,0,1-16.15-1.35a4.189,4.189,0,0,1-3.3-1.25,5.333,5.333,0,0,1-1.175-3.55,13.912,13.912,0,0,1,4-9.075,3.88,3.88,0,0,1,1.5-.9c.275-.1.525-.3.525-.575a.713.713,0,0,0-.45-.675,1.387,1.387,0,0,0-.725-.2.955.955,0,0,0-.625.25,2.707,2.707,0,0,1-.75.45,10.721,10.721,0,0,1-3.2.8,2.242,2.242,0,0,1-1.75-.75c-.15-.15-.2-.225-.4-.225-.15,0-.25.125-.25.3,0,.425.55,1.025.975,1.35a3,3,0,0,0,1.875.45,6.8,6.8,0,0,0,1.675-.25c-1.875,2.75-3.4,5.85-3.4,9.075a6.474,6.474,0,0,0,1.3,4.325A5.176,5.176,0,0,0-15.85.175C-12.975.175-10.825-1.9-9.8-4.6a17.068,17.068,0,0,0,.85-6.3c0-.825-.05-1.625-.075-2.4Zm3.85-6.8a.251.251,0,0,0-.25.25.321.321,0,0,0,.1.25,6.286,6.286,0,0,1,2.05,2c.35.575.525.675.825.675a.626.626,0,0,0,.575-.675,2.33,2.33,0,0,0-1.125-1.6,6.4,6.4,0,0,0-1.775-.825A1.733,1.733,0,0,0-5.075-20.125Zm-2.1,1.55a.277.277,0,0,0-.275.275.341.341,0,0,0,.15.25,7.206,7.206,0,0,1,1.85,2.025c.325.625.475.825.825.825.375,0,.625-.275.625-.725A2.58,2.58,0,0,0-5.075-17.55a6.081,6.081,0,0,0-1.85-1A.851.851,0,0,0-7.175-18.575ZM2.75-3.825a.335.335,0,0,0,.2.325A9.131,9.131,0,0,1,6.8.85c.3.675.65.9,1.15.9A1.147,1.147,0,0,0,9.025.5a3.648,3.648,0,0,0-1.65-2.65,9.85,9.85,0,0,0-4.1-1.875C3.025-4.075,2.75-4,2.75-3.825Zm33.65-8.9h4.9c.225,0,.325-.075.325-.225s-.05-.275-.475-.625c-1.025-.825-1.175-.9-1.3-.9-.15,0-.275.075-1.15,1.125H36.4v-4.375a29.077,29.077,0,0,0,3.15-1.05c.85.175,1.15.125,1.15-.15,0-.225-.125-.45-1.675-1.55A6.85,6.85,0,0,1,37.3-19.35a30.745,30.745,0,0,1-6.95,2.225c-.15.025-.1.35.05.35a36.638,36.638,0,0,0,4.525-.625v4.05h-3.2a7.773,7.773,0,0,1-1.825-.175l.25.95a7.122,7.122,0,0,1,1.575-.15H34.6a27.852,27.852,0,0,1-4.975,9.4c-.1.125.125.35.225.25A19.918,19.918,0,0,0,35.025-10c-.1,8.15-.25,10.625-.25,11.225,0,.425.15.6.65.6.7,0,1-.25,1-.75s-.025-2.125-.025-8v-3.7A6.228,6.228,0,0,1,38.925-7.85c.3.6.5.8.825.8a.815.815,0,0,0,.775-.9c0-1.275-1.2-2.35-4.125-3.175ZM50.15-2.275c.125.45.225.9.325,1.375C50.75.425,50.95.7,51.5.7c.5,0,.85-.5.85-1.275,0-1.975-1.7-5.5-5-8.525-.125-.1-.375.075-.275.2A19.641,19.641,0,0,1,50-2.8a73.5,73.5,0,0,1-8.75,1.15A75.08,75.08,0,0,0,46.8-18.425c.7-.2.875-.35.875-.625,0-.325-.6-.575-2.65-1.025A17.661,17.661,0,0,1,44.7-17.2,99.207,99.207,0,0,1,40.475-1.6a5.279,5.279,0,0,1-.65.05c-.5.025-.95.025-1.55,0,.65,2.175.8,2.5,1.025,2.5.25,0,.35-.125.525-.825A69,69,0,0,0,50.15-2.275ZM68.4-15.8a12.157,12.157,0,0,1,1.35,0c3.825.2,6.6,2.675,6.6,6.475,0,4.875-4.775,7.175-8.95,7.9-.35.075-.425.2-.425.4,0,.15.15.3.425.275C72.525-1.025,78-3.65,78-8.9c0-4.525-3.525-7.8-8.55-7.8A10.375,10.375,0,0,0,62.2-14a8.461,8.461,0,0,0-2.725,6.2,6.1,6.1,0,0,0,.875,3.3,2.575,2.575,0,0,0,2,1.3,3.72,3.72,0,0,0,2.475-1.675,25.07,25.07,0,0,0,3.6-6.625,9.013,9.013,0,0,0,.475-2.45A3.492,3.492,0,0,0,68.4-15.8Zm-.775.1a1.544,1.544,0,0,1,.3,1.05,5.107,5.107,0,0,1-.35,1.8,23.187,23.187,0,0,1-3.45,6.55c-.775,1.025-1.3,1.45-1.75,1.45A1.5,1.5,0,0,1,61.2-5.7a5.094,5.094,0,0,1-.6-2.525,6.976,6.976,0,0,1,2.025-4.95A8.548,8.548,0,0,1,67.625-15.7Zm31.4,7.925a14.931,14.931,0,0,0,3.575,4,14.072,14.072,0,0,0,3.225,1.85,2.888,2.888,0,0,0,.85.275c.15,0,.25-.075.35-.325.3-.725.475-.825,1.025-.975.15-.05.175-.275.025-.3a14.58,14.58,0,0,1-4.525-1.375,11.284,11.284,0,0,1-3.85-3.15h7.425c.25,0,.325-.1.325-.25,0-.125-.1-.275-.6-.675-1.075-.85-1.3-.975-1.45-.975-.125,0-.275.125-1.3,1.275h-3.15v-8.65h5.45c.225,0,.325-.1.325-.25,0-.125-.075-.25-.5-.625C105.2-18.8,105-18.9,104.875-18.9c-.15,0-.3.1-1.3,1.225H100.95V-19.65c.725-.275.85-.45.85-.6,0-.275-.3-.45-2.45-.675a29.461,29.461,0,0,1,.1,3.25H92.275V-19.65c.7-.275.85-.45.85-.6,0-.275-.3-.45-2.45-.675.075.825.1,1.875.1,3.25h-3A9.883,9.883,0,0,1,85.9-17.85l.225.95a8.158,8.158,0,0,1,1.675-.15h2.975V-8.4H86.95a10.33,10.33,0,0,1-1.9-.175l.225.95a8.391,8.391,0,0,1,1.7-.15h4.15a16.187,16.187,0,0,1-6.575,6.15c-.125.075.05.375.2.325A15.79,15.79,0,0,0,92.9-7.775ZM99.45-8.4H92.275v-2.575H99.45Zm0-5.625V-11.6H92.275v-2.425Zm-7.175-.625v-2.4H99.45v2.4ZM94.95.5H88.1A9.63,9.63,0,0,1,86.25.325l.25.95a9.357,9.357,0,0,1,1.625-.15h17.6c.275,0,.35-.075.35-.25,0-.15-.075-.25-.55-.65-1.025-.85-1.2-.95-1.35-.95s-.25.1-1.275,1.225H96.45V-3h4.775c.25,0,.325-.075.325-.25,0-.15-.05-.275-.45-.6-.975-.75-1.125-.875-1.275-.875-.125,0-.3.125-1.125,1.1H96.45v-2.05c.675-.25.825-.45.825-.6,0-.275-.275-.425-2.45-.625a21.282,21.282,0,0,1,.125,2.7v.575H91.925a8.05,8.05,0,0,1-1.85-.2l.25.975A7.928,7.928,0,0,1,91.975-3H94.95Zm32.825-17.675a21.482,21.482,0,0,0,1.9-2.075c.75-.025,1.025-.15,1.025-.35,0-.225-.425-.45-2.2-1.05a6.08,6.08,0,0,1-.3,1.075,15.29,15.29,0,0,1-1.2,2.4h-3.95a22.1,22.1,0,0,0,1.2-2.125c.7-.075.975-.225.975-.475,0-.2-.375-.45-2.125-1.075a9.746,9.746,0,0,1-.45,1.5,23.042,23.042,0,0,1-4.175,6.825c-.1.125.1.325.225.225a16.391,16.391,0,0,0,2.45-2.3V-13c0,2.65-.05,4.5-.05,6.1,0,.4.15.55.625.55.575,0,.85-.15.85-.625v-.5h11.7c.25,0,.35-.075.35-.225s-.075-.275-.525-.65c-1.05-.825-1.2-.875-1.325-.875s-.275.05-1.15,1.125H128.2v-2.525h4.95c.25,0,.325-.1.325-.275,0-.125-.05-.25-.45-.575-.9-.75-1.025-.8-1.175-.8-.125,0-.25.075-1.025,1.025H128.2V-13.6h4.9c.25,0,.325-.075.325-.225s-.075-.275-.475-.6c-.85-.725-1-.8-1.15-.8-.125,0-.275.075-1.05,1H128.2V-16.55h5.75c.25,0,.325-.075.325-.25,0-.125-.075-.25-.5-.625-.9-.775-1.1-.875-1.25-.875s-.275.1-1.15,1.125Zm-5.2,9.075v-2.525h4.2V-8.1Zm0-3.15V-13.6h4.2v2.35Zm0-2.975v-2.2l.075-.125h4.125v2.325Zm1.675,10.25V-5.25c.7-.275.825-.4.825-.6,0-.325-.3-.425-2.475-.675a19.3,19.3,0,0,1,.125,2.55H114.5a10.928,10.928,0,0,1-1.975-.175l.25.95a10.34,10.34,0,0,1,1.75-.15h8.2v.575c0,2.825-.1,3.875-.1,4.2,0,.45.15.625.7.625.7,0,1.025-.225,1.025-.725,0-.35-.1-1.65-.1-4.675h10.5c.25,0,.325-.075.325-.225S135-3.85,134.45-4.3c-1.125-.925-1.25-.975-1.375-.975s-.275.05-1.3,1.3ZM114.5-20a5.652,5.652,0,0,1,2.125,2.3c.225.4.425.55.675.55a.829.829,0,0,0,.775-.9c0-.975-1.475-1.95-3.45-2.175C114.5-20.25,114.4-20.075,114.5-20Zm-1.6,3.75a6.453,6.453,0,0,1,2.1,2.325c.225.4.4.55.675.55.425,0,.775-.3.775-.9,0-.95-1.25-1.825-3.425-2.25A.157.157,0,0,0,112.9-16.25Zm6.325-.3c-1.3,2.25-2.175,3.625-3.025,4.85-.5.7-.9.9-1.325.9a8.014,8.014,0,0,1-1.7-.275c-.15-.025-.225.275-.075.325,1.7.65,2.125.975,2.125,2,0,.85-.3,1.35-.3,2.025s.35,1.075.925,1.075a1.1,1.1,0,0,0,1.075-1.25c0-.725-.45-1.675-.45-2.35a2.117,2.117,0,0,1,.275-1.1c.95-1.95,1.725-3.625,2.775-6.025C119.6-16.5,119.3-16.675,119.225-16.55ZM143.55-4.725A3.254,3.254,0,0,0,140.3-1.5a3.276,3.276,0,0,0,3.25,3.25,3.254,3.254,0,0,0,3.225-3.25A3.233,3.233,0,0,0,143.55-4.725Zm0,.85A2.39,2.39,0,0,1,145.925-1.5,2.4,2.4,0,0,1,143.55.9a2.4,2.4,0,0,1-2.4-2.4A2.4,2.4,0,0,1,143.55-3.875Z" transform="translate(162.9 20.925)" fill="#fff"/>
</svg>
