<svg xmlns="http://www.w3.org/2000/svg" width="254.675" height="22.675" viewBox="0 0 254.675 22.675">
  <path id="パス_289" data-name="パス 289" d="M-128.6-12.725h4.9c.225,0,.325-.075.325-.225s-.05-.275-.475-.625c-1.025-.825-1.175-.9-1.3-.9-.15,0-.275.075-1.15,1.125h-2.3v-4.375a29.077,29.077,0,0,0,3.15-1.05c.85.175,1.15.125,1.15-.15,0-.225-.125-.45-1.675-1.55A6.85,6.85,0,0,1-127.7-19.35a30.745,30.745,0,0,1-6.95,2.225c-.15.025-.1.35.05.35a36.638,36.638,0,0,0,4.525-.625v4.05h-3.2a7.773,7.773,0,0,1-1.825-.175l.25.95a7.122,7.122,0,0,1,1.575-.15h2.875a27.852,27.852,0,0,1-4.975,9.4c-.1.125.125.35.225.25A19.918,19.918,0,0,0-129.975-10c-.1,8.15-.25,10.625-.25,11.225,0,.425.15.6.65.6.7,0,1-.25,1-.75s-.025-2.125-.025-8v-3.7a6.228,6.228,0,0,1,2.525,2.775c.3.6.5.8.825.8a.815.815,0,0,0,.775-.9c0-1.275-1.2-2.35-4.125-3.175Zm13.75,10.45c.125.45.225.9.325,1.375C-114.25.425-114.05.7-113.5.7c.5,0,.85-.5.85-1.275,0-1.975-1.7-5.5-5-8.525-.125-.1-.375.075-.275.2A19.641,19.641,0,0,1-115-2.8a73.5,73.5,0,0,1-8.75,1.15,75.08,75.08,0,0,0,5.55-16.775c.7-.2.875-.35.875-.625,0-.325-.6-.575-2.65-1.025A17.66,17.66,0,0,1-120.3-17.2a99.207,99.207,0,0,1-4.225,15.6,5.279,5.279,0,0,1-.65.05c-.5.025-.95.025-1.55,0,.65,2.175.8,2.5,1.025,2.5.25,0,.35-.125.525-.825A69,69,0,0,0-114.85-2.275ZM-96.6-15.8a12.157,12.157,0,0,1,1.35,0c3.825.2,6.6,2.675,6.6,6.475,0,4.875-4.775,7.175-8.95,7.9-.35.075-.425.2-.425.4,0,.15.15.3.425.275C-92.475-1.025-87-3.65-87-8.9c0-4.525-3.525-7.8-8.55-7.8A10.375,10.375,0,0,0-102.8-14a8.461,8.461,0,0,0-2.725,6.2,6.1,6.1,0,0,0,.875,3.3,2.575,2.575,0,0,0,2,1.3,3.72,3.72,0,0,0,2.475-1.675,25.07,25.07,0,0,0,3.6-6.625,9.013,9.013,0,0,0,.475-2.45A3.492,3.492,0,0,0-96.6-15.8Zm-.775.1a1.544,1.544,0,0,1,.3,1.05,5.107,5.107,0,0,1-.35,1.8,23.187,23.187,0,0,1-3.45,6.55c-.775,1.025-1.3,1.45-1.75,1.45A1.5,1.5,0,0,1-103.8-5.7a5.094,5.094,0,0,1-.6-2.525,6.976,6.976,0,0,1,2.025-4.95A8.548,8.548,0,0,1-97.375-15.7Zm39.15,5.45c.25,0,.325-.075.325-.25,0-.125-.1-.275-.625-.725C-59.65-12.15-59.875-12.3-60-12.3c-.15,0-.3.175-1.4,1.425h-9.4c.525-1.05.975-2.125,1.4-3.2.825-.175.975-.3.975-.525,0-.2-.25-.35-2.325-.975a12.544,12.544,0,0,1-.775,2.45c-.3.725-.625,1.5-1,2.25h-4.95a8.758,8.758,0,0,1-1.95-.2l.25.95a9.73,9.73,0,0,1,1.7-.125h4.625a44.046,44.046,0,0,1-3,5c-.225.3-.3.425-.3.6,0,.25.675.525,1.025.525.325,0,.4-.075.75-.575.25-.375.5-.775.775-1.15a43.176,43.176,0,0,1,4.85,2.025C-71.175-1.275-74.525.2-79.375,1.05c-.15.025-.1.375.05.35C-73.9.925-70.1-.4-67.425-3.1a20.686,20.686,0,0,1,4.5,3.3c1.05,1.05,1.3,1.2,1.675,1.2.325,0,.65-.325.65-.925,0-1.4-2.5-3.125-5.925-4.575A16.852,16.852,0,0,0-63.5-10.25Zm-7.025,0A15.519,15.519,0,0,1-68-4.675a43.891,43.891,0,0,0-5.35-1.6q1.2-1.95,2.25-3.975ZM-76.65-17a7.272,7.272,0,0,0-.125-1.225c-.025-.15-.3-.15-.3,0A3.4,3.4,0,0,1-78.95-15.15c-.5.275-.7.525-.7.95a.882.882,0,0,0,.875.925c1,0,1.95-1.225,2.1-3.1h15.9A16.74,16.74,0,0,1-61.95-13.7c-.075.125.125.275.25.175a20.873,20.873,0,0,0,2-1.775,1.082,1.082,0,0,1,1.025-.375c.575,0,.8-.125.8-.45,0-.15-.05-.275-.625-.825-.925-.85-1.125-.975-1.3-.975-.15,0-.25.05-1.05.925h-7.3v-2.125c.725-.325.875-.475.875-.675,0-.3-.3-.475-2.575-.7a13.871,13.871,0,0,1,.125,1.9V-17Zm35.3-2.075a23.56,23.56,0,0,0,4.95,6.1,22.012,22.012,0,0,0,4.45,3.2,3.1,3.1,0,0,0,.825.325.378.378,0,0,0,.35-.3c.25-.825.525-1.1,1.1-1.175.15-.025.2-.25.05-.3a19.461,19.461,0,0,1-6.025-2.85A19.626,19.626,0,0,1-40.775-19.3c.575-.125.75-.275.75-.475s-.425-.425-2.55-1.075a14.05,14.05,0,0,1-1.7,3.25A25.613,25.613,0,0,1-52.7-9.675c-.125.075.05.425.2.375A23.612,23.612,0,0,0-41.35-19.075ZM-42.425.075h-7.85A11.379,11.379,0,0,1-52.3-.075l.225.925A11.233,11.233,0,0,1-50.25.7h19.625c.25,0,.325-.075.325-.225,0-.125-.075-.25-.6-.725-1.125-.975-1.275-1.05-1.425-1.05s-.25.075-1.35,1.375h-7.15v-5.15h7.15c.225,0,.325-.075.325-.225s-.1-.3-.6-.725C-35.025-6.925-35.175-7-35.3-7c-.15,0-.275.1-1.25,1.3h-4.275v-4.525h5.575c.25,0,.35-.1.35-.225,0-.15-.075-.3-.525-.675-1.025-.85-1.2-.9-1.325-.9-.15,0-.275.075-1.15,1.175h-8.5a8.191,8.191,0,0,1-1.875-.175l.225.95a7.785,7.785,0,0,1,1.65-.15h3.975V-5.7H-47.25a8.4,8.4,0,0,1-1.9-.175l.25.975a7.406,7.406,0,0,1,1.65-.175h4.825Zm17.675-3.9a.335.335,0,0,0,.2.325A9.131,9.131,0,0,1-20.7.85c.3.675.65.9,1.15.9A1.147,1.147,0,0,0-18.475.5a3.648,3.648,0,0,0-1.65-2.65,9.85,9.85,0,0,0-4.1-1.875C-24.475-4.075-24.75-4-24.75-3.825Zm33.65-8.9h4.9c.225,0,.325-.075.325-.225s-.05-.275-.475-.625c-1.025-.825-1.175-.9-1.3-.9-.15,0-.275.075-1.15,1.125H8.9v-4.375a29.077,29.077,0,0,0,3.15-1.05c.85.175,1.15.125,1.15-.15,0-.225-.125-.45-1.675-1.55A6.85,6.85,0,0,1,9.8-19.35a30.745,30.745,0,0,1-6.95,2.225c-.15.025-.1.35.05.35A36.638,36.638,0,0,0,7.425-17.4v4.05h-3.2A7.773,7.773,0,0,1,2.4-13.525l.25.95a7.122,7.122,0,0,1,1.575-.15H7.1a27.852,27.852,0,0,1-4.975,9.4c-.1.125.125.35.225.25A19.918,19.918,0,0,0,7.525-10c-.1,8.15-.25,10.625-.25,11.225,0,.425.15.6.65.6.7,0,1-.25,1-.75S8.9-1.05,8.9-6.925v-3.7A6.228,6.228,0,0,1,11.425-7.85c.3.6.5.8.825.8a.815.815,0,0,0,.775-.9c0-1.275-1.2-2.35-4.125-3.175ZM22.65-2.275c.125.45.225.9.325,1.375C23.25.425,23.45.7,24,.7c.5,0,.85-.5.85-1.275,0-1.975-1.7-5.5-5-8.525-.125-.1-.375.075-.275.2A19.641,19.641,0,0,1,22.5-2.8a73.5,73.5,0,0,1-8.75,1.15A75.08,75.08,0,0,0,19.3-18.425c.7-.2.875-.35.875-.625,0-.325-.6-.575-2.65-1.025A17.661,17.661,0,0,1,17.2-17.2,99.207,99.207,0,0,1,12.975-1.6a5.279,5.279,0,0,1-.65.05c-.5.025-.95.025-1.55,0,.65,2.175.8,2.5,1.025,2.5.25,0,.35-.125.525-.825A69,69,0,0,0,22.65-2.275ZM40.9-15.8a12.157,12.157,0,0,1,1.35,0c3.825.2,6.6,2.675,6.6,6.475,0,4.875-4.775,7.175-8.95,7.9-.35.075-.425.2-.425.4,0,.15.15.3.425.275,5.125-.275,10.6-2.9,10.6-8.15,0-4.525-3.525-7.8-8.55-7.8A10.375,10.375,0,0,0,34.7-14a8.461,8.461,0,0,0-2.725,6.2,6.1,6.1,0,0,0,.875,3.3,2.575,2.575,0,0,0,2,1.3,3.72,3.72,0,0,0,2.475-1.675,25.07,25.07,0,0,0,3.6-6.625,9.013,9.013,0,0,0,.475-2.45A3.492,3.492,0,0,0,40.9-15.8Zm-.775.1a1.544,1.544,0,0,1,.3,1.05,5.107,5.107,0,0,1-.35,1.8,23.187,23.187,0,0,1-3.45,6.55c-.775,1.025-1.3,1.45-1.75,1.45A1.5,1.5,0,0,1,33.7-5.7a5.094,5.094,0,0,1-.6-2.525,6.976,6.976,0,0,1,2.025-4.95A8.548,8.548,0,0,1,40.125-15.7Zm39.15,5.45c.25,0,.325-.075.325-.25,0-.125-.1-.275-.625-.725C77.85-12.15,77.625-12.3,77.5-12.3c-.15,0-.3.175-1.4,1.425H66.7c.525-1.05.975-2.125,1.4-3.2.825-.175.975-.3.975-.525,0-.2-.25-.35-2.325-.975a12.544,12.544,0,0,1-.775,2.45c-.3.725-.625,1.5-1,2.25h-4.95a8.758,8.758,0,0,1-1.95-.2l.25.95a9.73,9.73,0,0,1,1.7-.125H64.65a44.046,44.046,0,0,1-3,5c-.225.3-.3.425-.3.6,0,.25.675.525,1.025.525.325,0,.4-.075.75-.575.25-.375.5-.775.775-1.15a43.176,43.176,0,0,1,4.85,2.025C66.325-1.275,62.975.2,58.125,1.05c-.15.025-.1.375.05.35C63.6.925,67.4-.4,70.075-3.1a20.686,20.686,0,0,1,4.5,3.3c1.05,1.05,1.3,1.2,1.675,1.2.325,0,.65-.325.65-.925,0-1.4-2.5-3.125-5.925-4.575A16.852,16.852,0,0,0,74-10.25Zm-7.025,0A15.519,15.519,0,0,1,69.5-4.675a43.891,43.891,0,0,0-5.35-1.6q1.2-1.95,2.25-3.975ZM60.85-17a7.272,7.272,0,0,0-.125-1.225c-.025-.15-.3-.15-.3,0A3.4,3.4,0,0,1,58.55-15.15c-.5.275-.7.525-.7.95a.882.882,0,0,0,.875.925c1,0,1.95-1.225,2.1-3.1h15.9A16.74,16.74,0,0,1,75.55-13.7c-.075.125.125.275.25.175a20.875,20.875,0,0,0,2-1.775,1.082,1.082,0,0,1,1.025-.375c.575,0,.8-.125.8-.45,0-.15-.05-.275-.625-.825-.925-.85-1.125-.975-1.3-.975-.15,0-.25.05-1.05.925h-7.3v-2.125c.725-.325.875-.475.875-.675,0-.3-.3-.475-2.575-.7a13.871,13.871,0,0,1,.125,1.9V-17Zm32.125-2.725a10.767,10.767,0,0,1,4,3.35c.625.85.825.95,1.15.95A.926.926,0,0,0,99-16.45c0-1.45-2.65-3.075-5.925-3.55A.152.152,0,0,0,92.975-19.725Zm9.825,8.7a12.607,12.607,0,0,1,2.275,5.375c.2,1.25.45,1.525,1,1.525.625,0,.975-.475.975-1.375,0-1.675-1.525-4.125-4.025-5.725C102.9-11.3,102.7-11.15,102.8-11.025ZM88.3-10.8a7,7,0,0,1-2.35,5,1.217,1.217,0,0,0-.65,1.05.92.92,0,0,0,.925.975c1.475,0,2.55-2.15,2.55-5.1a13.243,13.243,0,0,0-.15-1.925C88.6-10.95,88.325-10.95,88.3-10.8Zm5.075-2.775c.775-.3.9-.5.9-.725,0-.325-.225-.45-2.65-.725a60.913,60.913,0,0,1,.15,6.2c0,4.8-.075,6.35-.075,6.825,0,2.175.65,2.775,4.775,2.775A19.046,19.046,0,0,0,101.6.35c.7-.225,1.2-.675,1.2-1.2a.5.5,0,0,0-.3-.525.613.613,0,0,1-.45-.675c0-.5.05-1.475.125-2.9,0-.15-.3-.175-.325-.025-.75,2.875-1.075,3.55-1.625,3.85-.625.35-1.25.4-3.425.4-3.15,0-3.425-.175-3.425-1.475Zm22.675,8.85A3.254,3.254,0,0,0,112.8-1.5a3.276,3.276,0,0,0,3.25,3.25,3.254,3.254,0,0,0,3.225-3.25A3.233,3.233,0,0,0,116.05-4.725Zm0,.85A2.39,2.39,0,0,1,118.425-1.5,2.4,2.4,0,0,1,116.05.9a2.4,2.4,0,0,1-2.4-2.4A2.4,2.4,0,0,1,116.05-3.875Z" transform="translate(135.4 20.85)" fill="#fff"/>
</svg>
